<svg xmlns="http://www.w3.org/2000/svg" width="1920" height="300" viewBox="0 0 1920 300">
	<defs>
		<linearGradient id="book-a" x2="1" y2="1" gradientUnits="objectBoundingBox">
			<stop offset="0" stop-color="#74b1e0"/>
			<stop offset="1" stop-color="#609ccb"/>
		</linearGradient>
	</defs>
	<g data-name="Book Online 24/7">
		<path fill="url(#book-a)" d="M0 0h1920v300H0z"/>
		<path fill="#fff" d="M1919.373 300h-179.979l-43.961-.3h-129.809l172.543-112.74a94.067 94.067 0 01114.941 9.351 95.16 95.16 0 0115.671 18.582l50.594 78.384V300zm-1648.644 0H98.873a5.721 5.721 0 01.2-7.534 5.669 5.669 0 018.472 7.534h163.184zm-210.156 0h-10.61a5.682 5.682 0 015.306-7.659 5.614 5.614 0 013.856 1.528A5.7 5.7 0 0160.573 300zm-47.6 0H1.679a5.655 5.655 0 1111.294 0zm17.488-19.559a5.615 5.615 0 01-3.856-1.528 5.722 5.722 0 01-.279-8.04 5.67 5.67 0 114.135 9.568zm47.941-1.685a5.61 5.61 0 01-3.853-1.527 5.722 5.722 0 01-.28-8.042 5.67 5.67 0 114.133 9.569zm47.945-1.685a5.611 5.611 0 01-3.855-1.527 5.72 5.72 0 01-.279-8.04 5.669 5.669 0 114.134 9.567zM5.651 257.164a5.617 5.617 0 01-3.855-1.529 5.72 5.72 0 01-.278-8.04 5.67 5.67 0 114.134 9.569zm47.943-1.685a5.615 5.615 0 01-3.855-1.527 5.721 5.721 0 01-.279-8.04 5.67 5.67 0 114.134 9.568zm47.941-1.686a5.609 5.609 0 01-3.853-1.527 5.69 5.69 0 013.857-9.849 5.67 5.67 0 015.648 5.49 5.672 5.672 0 01-5.653 5.886zM28.784 232.2a5.666 5.666 0 01-5.648-5.489 5.669 5.669 0 015.651-5.887 5.617 5.617 0 013.855 1.527 5.72 5.72 0 01.278 8.04 5.655 5.655 0 01-4.136 1.809zm47.945-1.683a5.669 5.669 0 114.135-1.809 5.619 5.619 0 01-4.135 1.811zm-24.81-23.278a5.671 5.671 0 01-5.648-5.49 5.673 5.673 0 015.652-5.887 5.612 5.612 0 013.853 1.527 5.721 5.721 0 01.281 8.041 5.658 5.658 0 01-4.138 1.811zm218.523-31.374a93.535 93.535 0 01-52.712-16.252L.283 0h440.59l-92.071 133.98a94.23 94.23 0 01-78.361 41.887zm1522.631-68.909a5.615 5.615 0 01-3.856-1.528 5.722 5.722 0 01-.278-8.04 5.629 5.629 0 017.99-.281 5.721 5.721 0 01.281 8.04 5.663 5.663 0 01-4.137 1.809zm-24.813-23.278a5.614 5.614 0 01-3.851-1.527 5.721 5.721 0 01-.279-8.04 5.67 5.67 0 114.13 9.568zm47.949-1.684a5.689 5.689 0 113.854-9.85 5.721 5.721 0 01.28 8.041 5.655 5.655 0 01-4.134 1.81zM1743.456 60.4a5.674 5.674 0 114.136-1.81 5.614 5.614 0 01-4.136 1.81zm47.942-1.685a5.61 5.61 0 01-3.853-1.528 5.719 5.719 0 01-.28-8.04 5.67 5.67 0 114.133 9.568zm47.943-1.685a5.67 5.67 0 01-5.648-5.489 5.646 5.646 0 115.648 5.489zm-120.694-19.905a5.673 5.673 0 114.136-1.809 5.617 5.617 0 01-4.136 1.809zm47.945-1.685a5.621 5.621 0 01-3.856-1.528 5.69 5.69 0 013.859-9.849 5.61 5.61 0 013.852 1.528 5.719 5.719 0 01.28 8.04 5.655 5.655 0 01-4.135 1.809zm47.943-1.684a5.689 5.689 0 113.858-9.849 5.722 5.722 0 01.278 8.04 5.658 5.658 0 01-4.137 1.809zm47.943-1.685a5.616 5.616 0 01-3.856-1.528 5.721 5.721 0 01-.278-8.04 5.629 5.629 0 017.99-.281 5.72 5.72 0 01.28 8.04 5.659 5.659 0 01-4.141 1.81zm-120.7-19.908a5.669 5.669 0 01-5.649-5.49 5.646 5.646 0 115.649 5.49zm47.944-1.684a5.614 5.614 0 01-3.856-1.528 5.711 5.711 0 01-.279-8.04 5.738 5.738 0 011.086-.911h-71.6 77.7a5.757 5.757 0 01.8.631 5.712 5.712 0 01.28 8.04 5.658 5.658 0 01-4.127 1.809zm47.951-1.684a5.609 5.609 0 01-3.854-1.528 5.7 5.7 0 01-.888-7.267h9.478a5.7 5.7 0 01-.6 6.985 5.657 5.657 0 01-4.136 1.81z" data-name="Shape" opacity=".1"/>
	</g>
</svg>
