<svg xmlns="http://www.w3.org/2000/svg" fill="#214C9E" width="39.788" height="39.788" viewBox="0 0 39.788 39.788">
	<g fill="#74b1e0">
		<path d="M23.195 19.618l.695 2.218a.5.5 0 01-.273.61 9.056 9.056 0 01-7.446-.001.5.5 0 01-.273-.61l.696-2.217-3.061-2.142a2.512 2.512 0 00-1.1 4.194 10.562 10.562 0 0014.92 0 2.512 2.512 0 00-1.098-4.196zm0 0" data-name="Path 3056"/>
		<path d="M9.947 9.947a14.067 14.067 0 1019.894 0 14.067 14.067 0 00-19.894 0zM28.062 22.38a11.568 11.568 0 01-16.339.002 3.517 3.517 0 011.818-5.94.5.5 0 01.383.083l3.549 2.482a.5.5 0 01.191.562l-.668 2.13a8.048 8.048 0 005.798 0l-.67-2.131a.5.5 0 01.19-.563l3.55-2.481a.5.5 0 01.382-.082 3.517 3.517 0 011.816 5.938zm0 0" data-name="Path 3057"/>
	</g>
</svg>
