<svg xmlns="http://www.w3.org/2000/svg" width="80" height="80" viewBox="0 0 80 80">
	<defs>
		<style>
			.d{fill:#d3d3d8}.e{fill:#fff5f5}
		</style>
	</defs>
	<path fill="#3e9dc3" d="M78.243 40c0 22.091-17.515 40-39.121 40S0 62.091 0 40 17.515 0 39.121 0s39.122 17.909 39.122 40z"/>
	<path fill="#58aacb" d="M64.751 32.86A29.765 29.765 0 1134.983 3.095 29.765 29.765 0 0164.751 32.86z"/>
	<path fill="#ececf1" d="M29.765 19.404a22.358 22.358 0 018.9-10.026l7.462-4.477a7.452 7.452 0 0110.154 2.441l2.153 3.445a7.445 7.445 0 003.534 2.941 14.525 14.525 0 018.142 8.142 7.444 7.444 0 002.941 3.534l3.445 2.153a7.452 7.452 0 012.441 10.155l-4.477 7.462a22.358 22.358 0 01-10.026 8.9l-5.441 2.438-31.667-31.667z"/>
	<path d="M29.779 19.404a22.358 22.358 0 018.9-10.026l7.462-4.477a7.453 7.453 0 0110.154 2.441l.986 1.577a7.442 7.442 0 00-6.586.536l-7.462 4.477a22.358 22.358 0 00-8.9 10.026l-2.439 5.441-4.554-4.554z" class="d"/>
	<path d="M57.27 45.352c-.165-3.049 3.729-3.8 7.522-8.783 2.543-3.342 2.406-5.112 4.3-5.643 2.273-.636 5.43 1.13 6.324 3.513 1.711 4.558-5.286 9.857-5.972 10.364-3.483 2.575-9.214 4.731-11.343 2.613a3.19 3.19 0 01-.831-2.064z" class="e"/>
	<path fill="#b9b9be" d="M60.686 59.913l-2.259 2.259a3.2 3.2 0 01-4.518 0l-7.794-7.794-11.3 11.3a3.2 3.2 0 01-4.518 0l-1.13-1.13-5.648 5.648a3.2 3.2 0 01-4.518 0l-3.615-3.618a3.2 3.2 0 010-4.518l5.648-5.648-1.13-1.13a3.2 3.2 0 010-4.518l11.3-11.3-7.794-7.794a3.2 3.2 0 010-4.518l2.259-2.259a3.2 3.2 0 014.518 0l30.5 30.5a3.2 3.2 0 01-.001 4.52z"/>
	<path d="M42.729 50.99l-19.2 19.2a3.2 3.2 0 01-4.518 0l-.226-.226a3.2 3.2 0 010-4.518l19.2-19.2z" class="d"/>
	<path d="M60.104 62.651l-37.813-37.84a1.2 1.2 0 011.693-1.694l37.813 37.84a1.2 1.2 0 11-1.693 1.694zm-15.407-6.947L29.233 40.229a1.2 1.2 0 00-1.693 1.694l15.464 15.475a1.2 1.2 0 001.693-1.694zM26.411 43.053a1.2 1.2 0 00-1.693 1.694l15.464 15.475a1.2 1.2 0 101.693-1.694zm-2.822 2.824a1.2 1.2 0 10-1.693 1.694L37.36 63.046a1.2 1.2 0 001.693-1.694zm-2.822 2.824a1.2 1.2 0 00-1.693 1.694L34.538 65.87a1.2 1.2 0 101.693-1.694z" class="d"/>
	<path d="M47.978 50.631l-9.908-9.908a1.2 1.2 0 011.694-1.694l9.908 9.908a1.2 1.2 0 01-1.694 1.694zm-6.893 3.273a1.2 1.2 0 000-1.694l-4.179-4.179a1.2 1.2 0 00-1.694 1.694l4.179 4.179a1.2 1.2 0 001.695-.002zm-2.824 2.824a1.2 1.2 0 000-1.694l-4.179-4.179a1.2 1.2 0 00-1.694 1.694l4.179 4.179a1.2 1.2 0 001.695-.002zm-2.824 2.824a1.2 1.2 0 000-1.694l-4.179-4.179a1.2 1.2 0 00-1.694 1.694l4.179 4.179a1.2 1.2 0 001.695-.002zm-2.824 2.824a1.2 1.2 0 000-1.694l-4.179-4.179a1.2 1.2 0 00-1.694 1.694l4.179 4.179a1.2 1.2 0 001.695-.002z" class="e"/>
</svg>
