<svg xmlns="http://www.w3.org/2000/svg" width="80" height="80" viewBox="0 0 80 80">
	<defs>
		<style>
			.b{fill:#8c96dd}.c{fill:#5766ce}
		</style>
	</defs>
	<path fill="#717ed6" d="M78.23 39.115A39.115 39.115 0 1139.115 0 39.115 39.115 0 0178.23 39.115z"/>
	<path d="M68.415 43.476a28.158 28.158 0 11-28.157-28.158 28.158 28.158 0 0128.157 28.158z" class="b"/>
	<path d="M62.903 66.45L41.196 78.793l-7.03-7.03 22.561-22.56a11.167 11.167 0 000-15.793l-3.61-3.61a11.167 11.167 0 00-15.792 0L14.764 52.361l-7.03-7.03 12.343-21.707A31.407 31.407 0 1162.903 66.45z" class="b"/>
	<path d="M24.685 28.244l-12.331 21.7-4.619-4.624 12.33-21.7a31.366 31.366 0 0149.463-6.681 32.138 32.138 0 012.192 2.428 31.372 31.372 0 00-47.035 8.877zm33.009 6.174q-.255-.255-.522-.491a11.17 11.17 0 01-.49 15.265l-22.54 22.552 4.619 4.622L61.3 53.812a11.169 11.169 0 000-15.788z" class="c"/>
	<path d="M60.344 29.957l-1.222-1.047a4.827 4.827 0 01-.524-6.806l1.047-1.222a4.827 4.827 0 016.806-.524l1.222 1.047a4.827 4.827 0 01.524 6.806l-1.047 1.222a4.827 4.827 0 01-6.806.524zm-5.313-8.683l1.608-1.877a3.218 3.218 0 00-.349-4.538l-1.877-1.608a3.218 3.218 0 00-4.538.349l-1.608 1.877a3.218 3.218 0 00.349 4.538l1.877 1.608a3.218 3.218 0 004.543-.35zm18.317 18.424l1.387-1.618a3.218 3.218 0 00-.349-4.538l-1.618-1.387a3.218 3.218 0 00-4.538.349l-1.387 1.618a3.218 3.218 0 00.349 4.538l1.618 1.387a3.218 3.218 0 004.542-.35zM42.544 20.63l.966-1.126a3.218 3.218 0 00-.349-4.538L42.035 14a3.218 3.218 0 00-4.538.349l-.966 1.126a3.218 3.218 0 00.349 4.538l1.126.966a3.218 3.218 0 004.538-.349zm29.767 29.767l.966-1.126a3.218 3.218 0 00-.349-4.538l-1.126-.966a3.218 3.218 0 00-4.538.349l-.966 1.126a3.218 3.218 0 00.349 4.538l1.126.966a3.218 3.218 0 004.533-.349zm-38.38-23.893l.966-1.126a3.218 3.218 0 00-.353-4.538l-1.126-.966a3.218 3.218 0 00-4.538.349l-.966 1.126a3.218 3.218 0 00.349 4.538l1.126.966a3.218 3.218 0 004.542-.349zm32.743 32.743l.966-1.126a3.218 3.218 0 00-.349-4.538l-1.126-.966a3.218 3.218 0 00-4.538.349l-.966 1.126a3.218 3.218 0 00.349 4.538l1.126.966a3.218 3.218 0 004.539-.349zm-40.788-24.7l.966-1.126a3.218 3.218 0 00-.349-4.538l-1.126-.966a3.218 3.218 0 00-4.538.349l-.966 1.126a3.218 3.218 0 00.349 4.538l1.126.966a3.218 3.218 0 004.538-.347zm-7.482 7.482a3.218 3.218 0 10-4.538.349 3.218 3.218 0 004.538-.347zm39.322 22.585l.052-.061a3.218 3.218 0 00-.349-4.538l-.061-.052a3.218 3.218 0 00-4.538.349l-.052.061a3.218 3.218 0 00.349 4.538l.061.052a3.218 3.218 0 004.538-.347zm-7.724 5.894l.052-.061a3.218 3.218 0 00-.349-4.538l-.061-.052a3.218 3.218 0 00-4.538.349l-.052.061a3.218 3.218 0 00.349 4.538l.061.052a3.218 3.218 0 004.538-.347z" class="c"/>
	<path fill="#a7b0e9" d="M70.44 16.087a32.612 32.612 0 00-51.41 6.94L6.684 44.739a1.2 1.2 0 00.194 1.438l.987.987a1.2 1.2 0 00-.33 1.926l2.823 2.822a1.2 1.2 0 001.927-.33l1.628 1.628a1.2 1.2 0 001.693 0l22.563-22.568a9.984 9.984 0 0114.1 0l3.615 3.616a9.985 9.985 0 010 14.1L33.317 70.925a1.2 1.2 0 000 1.692l1.628 1.628a1.2 1.2 0 00-.33 1.926l2.821 2.821a1.2 1.2 0 001.927-.33l.987.987a1.2 1.2 0 001.438.194l21.713-12.347a32.612 32.612 0 006.94-51.41zm6.887 27.1a29.991 29.991 0 01-15.01 22.226l-20.92 11.9-5.539-5.542L57.577 50.05a12.381 12.381 0 000-17.49l-3.611-3.611a12.381 12.381 0 00-17.489 0L14.758 50.671 9.217 45.13l11.9-20.92a30.219 30.219 0 0156.216 18.98z"/>
	<path fill="#c7cdf6" d="M60.346 37.487a1.207 1.207 0 01-2.283.784 10 10 0 00-2.379-3.787l-3.641-3.641a10.068 10.068 0 00-14.222 0l-4.354 4.354a1.207 1.207 0 11-1.707-1.707l4.354-4.354a12.47 12.47 0 0117.635 0l3.641 3.641a12.4 12.4 0 012.955 4.71zm10.015-21.321A32.636 32.636 0 0042.708 6.83a33.038 33.038 0 00-10.641 3.317 1.211 1.211 0 00-.659 1.077 1.2 1.2 0 001.751 1.076 30.605 30.605 0 019.873-3.08 30.489 30.489 0 0125.741 51.649 1.207 1.207 0 101.7 1.713 32.924 32.924 0 00-.115-46.418z"/>
</svg>
