<svg xmlns="http://www.w3.org/2000/svg" width="80" height="80" viewBox="0 0 80 80">
	<defs>
		<style>
			.d{fill:#ececf1}.f{fill:#fff5f5}.m{fill:#a6d2e3}
		</style>
	</defs>
	<path fill="#3342ae" d="M3.893 39.352A3.713 3.713 0 01.24 35.2a39.682 39.682 0 015.138-15.66c.127-.218 1.261.134 1.392-.081a39.66 39.66 0 017.857-9.333c.189-.164-.627-.9-.435-1.057A38.807 38.807 0 0173.251 20.33a12.787 12.787 0 01-11.022 19.022H3.893z"/>
	<path fill="#5766ce" d="M76.428 40.041a40.2 40.2 0 01-.953 8.78c-.386 1.727-.084 2.991-1.829 3.116q-.847.061-1.722.061a19.817 19.817 0 01-10.7-2.845 19.817 19.817 0 01-10.7 2.845 19.817 19.817 0 01-10.7-2.845 19.817 19.817 0 01-10.7 2.845c-4.772 0-9.01-1.4-11.671-3.554-2.662 2.158-6.9 3.554-11.672 3.554q-.6 0-1.181-.029a3.923 3.923 0 01-3.623-3.074 40.492 40.492 0 01-.651-14.03 22.935 22.935 0 015.454-.642c4.772 0 9.01 1.4 11.671 3.554 2.662-2.158 6.9-3.554 11.671-3.554a19.817 19.817 0 0110.7 2.845 19.817 19.817 0 0110.7-2.845 19.817 19.817 0 0110.7 2.845 19.817 19.817 0 0110.7-2.845 11.272 11.272 0 014.2.774 40.4 40.4 0 01.306 5.044z"/>
	<path fill="#8c96dd" d="M78.222 39.959a39.721 39.721 0 01-.956 8.684c-.033.149-.511.3-.546.446-.458 1.939-2.275 2.828-3.92 1.7a6.462 6.462 0 01-2.772-4.549 10.522 10.522 0 01-9.743-.826v.035a6.457 6.457 0 11-4.489-6.156A10.511 10.511 0 0168.527 26.38a8.882 8.882 0 015.85-3.464 39.435 39.435 0 013.845 17.043z"/>
	<path d="M77.267 49.095a39.657 39.657 0 01-9.065 17.768c-1.906 2.148-12.722-.465-12.722-.465l-3.408-9.058q-.109-.291-.2-.586-.094.3-.2.586l-5.455 14.5a2 2 0 01-2.994.969s-10.745.252-11.2-.969l-5.455-14.5q-.109-.291-.2-.586-.094.3-.2.586l-2.487 6.61s-13.186 3.7-15.531.619A39.644 39.644 0 01.955 49.095l.758-3.071a3.815 3.815 0 014.561-2.828l2.027.474a3.768 3.768 0 002.345-.217 7.355 7.355 0 015.9 0 3.768 3.768 0 002.345.217l2.027-.474a3.815 3.815 0 014.561 2.828l.875 3.545.875-3.545a3.815 3.815 0 014.561-2.828l2.027.474a3.768 3.768 0 002.345-.217 7.355 7.355 0 015.9 0 3.768 3.768 0 002.345.217l2.028-.474a3.815 3.815 0 014.561 2.828l.875 3.545.875-3.545a3.815 3.815 0 014.561-2.828l2.028.474a3.768 3.768 0 002.345-.217 7.355 7.355 0 015.9 0 3.768 3.768 0 002.345.217l2.027-.474a3.815 3.815 0 014.561 2.828z" class="d"/>
	<path fill="#d3d3d8" d="M59.142 65.248h-3.339l-3.092-8.117a11.594 11.594 0 01-.413-6.939l1.094-4.378a3.864 3.864 0 014.618-2.828l.94.217c-5.021 9.562.192 22.045.192 22.045zM1.723 45.815l-.768 3.071a39.35 39.35 0 004.832 11.937l4.715 4.425 5.777.141 3.155-2.715C5.655 58.03 6.213 43.664 7.281 43.202l-.94-.217a3.865 3.865 0 00-4.618 2.828zm31.392-2.611l-.94-.217a3.865 3.865 0 00-4.618 2.828l-1.094 4.378a11.594 11.594 0 00.413 6.939l3.092 8.117h3.339s-4.265-16.076-.192-22.046z"/>
	<path d="M22.05 52.61c-.333 2.221-1.644 5.113-3.2 5.117a1.655 1.655 0 01-1.063-.451c-1.178-1.058-.025-2.76-.462-5.979-.293-2.158-.992-2.757-.491-3.647a3.055 3.055 0 013.607-1.031c2.298 1.045 1.675 5.553 1.609 5.991zm24.224-5.99a3.055 3.055 0 00-3.607 1.031c-.5.891.2 1.489.491 3.647.437 3.219-.716 4.921.462 5.979a1.655 1.655 0 001.063.451c1.557 0 2.868-2.9 3.2-5.117.068-.439.69-4.947-1.608-5.991zm25.835 0a3.055 3.055 0 00-3.607 1.031c-.5.891.2 1.489.491 3.647.437 3.219-.716 4.921.462 5.979a1.655 1.655 0 001.063.451c1.557 0 2.868-2.9 3.2-5.117.067-.439.69-4.947-1.609-5.991z" class="f"/>
	<path fill="#f2bb88" d="M73.104 59.896a38.789 38.789 0 01-67.985 0 8.706 8.706 0 006.9 3.411h4.535a8.826 8.826 0 008.764-8.887v-3.883a1.379 1.379 0 112.758 0v3.884a8.826 8.826 0 008.764 8.886h4.535a8.826 8.826 0 008.764-8.887v-3.883a1.379 1.379 0 112.758 0v3.884a8.826 8.826 0 008.764 8.887h4.535a8.707 8.707 0 006.9-3.411z"/>
	<path fill="#e3a76f" d="M45.81 79.513A39.656 39.656 0 015.119 59.895a8.872 8.872 0 007 3.411h4.6a8.882 8.882 0 002.716-.423 39.591 39.591 0 0026.375 16.63z"/>
	<path fill="#f2d1a5" d="M53.603 68.584c2.182-.628 4.974-.343 5.287.661.391 1.254-3.17 3.365-4.686 4.145-1.748.9-5.719 2.575-6.428 1.562-.742-1.061 1.96-5.255 5.827-6.368z"/>
	<path fill="#58aacb" d="M76.53 25.289l-12.936-4.708H21.887a2.586 2.586 0 110-5.171s41.85 0 41.928.011a2.576 2.576 0 011.125.145l13.362 4.863a2.585 2.585 0 11-1.768 4.859z"/>
	<path fill="#7fbed7" d="M79.843 23.743a2.585 2.585 0 01-3.314 1.545L63.593 20.58h-1.687a2.582 2.582 0 110-5.164h1.913a2.578 2.578 0 011.12.146l13.362 4.863a2.586 2.586 0 011.542 3.318z"/>
	<path d="M51.95 17.148a8.079 8.079 0 01-8.079 8.079h-30.7a8.083 8.083 0 01-7.726-5.685 39.782 39.782 0 018.927-10.471h29.494a8.079 8.079 0 018.084 8.077z" class="d"/>
	<path d="M51.466 14.402a8.082 8.082 0 01-7.6 5.332h-30.7a8.061 8.061 0 01-6.077-2.755 39.819 39.819 0 017.284-7.91h29.492a8.082 8.082 0 017.601 5.333z" class="f"/>
	<path d="M30.598 9.07v10.159h-3.232V9.07z" class="d"/>
	<path fill="#c0dfeb" d="M30.598 14.738v10.665h-3.232V14.738z"/>
	<path d="M45.142 17.007v.606a2.424 2.424 0 01-2.424 2.424H21.712a2.424 2.424 0 01-2.424-2.424v-.606a2.424 2.424 0 012.424-2.424h21.007a2.424 2.424 0 012.423 2.424z" class="m"/>
	<path d="M41.78 18.933a1.616 1.616 0 111.616-1.616 1.616 1.616 0 01-1.616 1.616zm-3.232-1.616a1.616 1.616 0 10-1.616 1.616 1.616 1.616 0 001.617-1.616z" class="f"/>
	<path d="M69.933 35.818a1.212 1.212 0 010-1.714l6.06-6.06a1.212 1.212 0 011.714 1.714l-6.06 6.06a1.212 1.212 0 01-1.714 0zm-1.518 1.518a1.212 1.212 0 00-1.714 0l-3.862 3.862a1.212 1.212 0 101.714 1.714l3.862-3.862a1.212 1.212 0 000-1.714zm10.432-4.887a1.212 1.212 0 00-1.532.768l-4.072 12.269a1.212 1.212 0 102.3.764l4.072-12.269a1.212 1.212 0 00-.772-1.532zm-5.732-5.642a1.212 1.212 0 00-1.592-.635l-11.88 5.108a1.212 1.212 0 00.958 2.227L72.476 28.4a1.212 1.212 0 00.639-1.592zm-10 10.578a1.212 1.212 0 10-1.212 1.212 1.212 1.212 0 001.211-1.212zm-6.06-2.828a1.212 1.212 0 101.212 1.212 1.212 1.212 0 00-1.212-1.212zm14.139 5.252a1.212 1.212 0 101.212 1.212 1.212 1.212 0 00-1.212-1.212zm-2.828 7.675a1.212 1.212 0 101.212 1.212 1.212 1.212 0 00-1.212-1.212z" class="m"/>
</svg>
