<svg xmlns="http://www.w3.org/2000/svg" width="59.846" height="62.084" viewBox="0 0 59.846 62.084">
	<defs>
		<style>
			.d{fill:#5fd2d0}.e{fill:#00bec2}.h{fill:#265cde}.k{fill:#74b1e0}
		</style>
	</defs>
	<path fill="#214c9e" d="M29.922 2.238a29.89 29.89 0 00-9.553 1.557L.599 38.15a29.8 29.8 0 005.8 12.507l23.523 4.83 23.523-4.83a29.972 29.972 0 002.691-4.056l1.357-26.088A29.931 29.931 0 0029.922 2.238z"/>
	<path fill="#ff6473" d="M38.596 40.156h-6.967a1.914 1.914 0 01-1.914-1.914v-2.135a1.914 1.914 0 011.914-1.914h6.967a1.914 1.914 0 011.914 1.914v2.135a1.914 1.914 0 01-1.914 1.914z"/>
	<path fill="#e8d6ff" d="M51.206 5.551L22.829 33.928a.933.933 0 01-1.319 0l-3.959-3.959a.933.933 0 010-1.319L45.928.273a.933.933 0 011.319 0l3.959 3.959a.933.933 0 010 1.319z"/>
	<path d="M50.774 9.893L30.303 30.364l-8.074-5.713L44.718 3.837z" class="d"/>
	<path d="M27.165 21.391L44.718 3.837 41.586.709l-23.6 23.6 9.188 9.188 3.132-3.132-3.138-3.138a4.126 4.126 0 010-5.836z" class="e"/>
	<path d="M30.796 50.707H13.429a2.506 2.506 0 010-5.011h17.367a7.385 7.385 0 007.385-7.385V15.67h5.011v22.64a12.4 12.4 0 01-12.396 12.397z" class="d"/>
	<circle cx="6.131" cy="6.131" r="6.131" fill="#fff" transform="translate(34.378 13.931)"/>
	<circle cx="6.131" cy="6.131" r="6.131" fill="none" stroke="#e8d6ff" stroke-miterlimit="10" stroke-width="16.49" transform="translate(34.378 13.931)"/>
	<circle cx="2.962" cy="2.962" r="2.962" class="h" transform="translate(37.547 17.1)"/>
	<path fill="#ffdc64" d="M18.4 41.001l-.183.852a3.162 3.162 0 003.094 3.891h2.292a3.475 3.475 0 003.475-3.475v-1.268z"/>
	<path fill="#ffc305" d="M18.402 42.269v-1.268h-6.264v1.268a3.475 3.475 0 003.475 3.475h6.264a3.475 3.475 0 01-3.475-3.475z"/>
	<path d="M9.796 50.709h6.676a2.506 2.506 0 100-5.011H9.796a2.506 2.506 0 100 5.011z" class="e"/>
	<path d="M57.41 20.321h-2.807a3.826 3.826 0 00-3.826 3.826v18.5a3.826 3.826 0 003.826 3.818h1.61a29.976 29.976 0 001.2-26.147zM-.005 32.161a30.055 30.055 0 00.6 5.989h6.011a4.975 4.975 0 004.975-4.975v-9.127a6.751 6.751 0 011.983-4.778l7.625-7.625a4.975 4.975 0 000-7.035l-.819-.819A29.935 29.935 0 00-.005 32.161z" class="k"/>
	<path d="M15.807 50.652a11.2 11.2 0 009.489 11.068 29.971 29.971 0 0028.15-11.071z" class="h"/>
	<path fill="#0037bd" d="M16.298 50.652h-9.9A29.944 29.944 0 0034.87 61.668a29.9 29.9 0 01-18.572-11.016z"/>
</svg>
