<svg xmlns="http://www.w3.org/2000/svg" width="60.93" height="60.929" viewBox="0 0 60.93 60.929">
	<defs>
		<style>
			.c{fill:#f5f0f0}.d{fill:#dddaec}.e{fill:#d0cee7}.g{fill:#74b1e0}.h{fill:#a5d1f3}
		</style>
	</defs>
	<path fill="#365e7d" d="M53.049 38.957c-1.5 5.177 2.35 9.786-1.424 13.429a30.369 30.369 0 01-21.155 8.543c-13.877 0-20.635-9.28-24.312-21.973z"/>
	<path fill="#73cbfc" d="M60.929 30.465c0 2.947-3.472 5.8-4.253 8.492H1.2a30.468 30.468 0 1159.73-8.492z"/>
	<path d="M12.705 8.722h35.509v42.739H12.705z" class="c"/>
	<path d="M14.661 51.462L2.375 53.584a2.029 2.029 0 01-2.375-2V6.894a2.029 2.029 0 012.636-1.937l12.025 3.765zM58.293 4.957a2.029 2.029 0 012.636 1.937v23.571a30.377 30.377 0 01-9.31 21.922l-5.352-.925V8.722l4.132-1.294zM29.816 29.933H19.61a2.1 2.1 0 01-2.1-2.1v-6.249a2.1 2.1 0 012.1-2.1h10.206a2.1 2.1 0 012.1 2.1v6.255a2.1 2.1 0 01-2.1 2.094z" class="d"/>
	<path d="M19.61 28.148a.315.315 0 01-.314-.314v-6.249a.315.315 0 01.314-.314h10.206a.315.315 0 01.314.314v6.249a.315.315 0 01-.314.314z" class="e"/>
	<path d="M41.45 44.971H31.244a2.1 2.1 0 01-2.1-2.1v-6.249a2.1 2.1 0 012.1-2.1H41.45a2.1 2.1 0 012.1 2.1v6.249a2.1 2.1 0 01-2.1 2.1z" class="d"/>
	<path d="M31.244 43.186a.315.315 0 01-.314-.314v-6.249a.315.315 0 01.314-.314h10.207a.315.315 0 01.314.314v6.249a.315.315 0 01-.314.314zM2.473 12.439v16.084a1.41 1.41 0 001.41 1.41h7.785a1.41 1.41 0 001.41-1.41V15.111a1.41 1.41 0 00-.952-1.334l-7.785-2.672a1.41 1.41 0 00-1.868 1.334z" class="e"/>
	<path d="M58.931 12.438v16.085a1.41 1.41 0 01-1.41 1.41h-7.785a1.41 1.41 0 01-1.41-1.41V15.111a1.41 1.41 0 01.952-1.334l7.785-2.672a1.411 1.411 0 011.868 1.334z" class="c"/>
	<g>
		<path d="M2.473 47.929V35.301a1.41 1.41 0 011.41-1.41h7.785a1.41 1.41 0 011.41 1.41v11.484a1.41 1.41 0 01-1.205 1.4l-7.785 1.144a1.41 1.41 0 01-1.615-1.4zM35.805 14.084H25.123a1.187 1.187 0 110-2.374h10.682a1.187 1.187 0 010 2.374zM42.758 22.157h-7.307a1.187 1.187 0 010-2.374h7.307a1.187 1.187 0 110 2.374zM42.758 25.842h-7.307a1.187 1.187 0 010-2.374h7.307a1.187 1.187 0 110 2.374zM42.758 29.528h-7.307a1.187 1.187 0 010-2.374h7.307a1.187 1.187 0 110 2.374z" class="e"/>
		<g>
			<path d="M25.557 37.706H18.25a1.187 1.187 0 110-2.374h7.307a1.187 1.187 0 110 2.374zM25.557 41.394H18.25a1.187 1.187 0 010-2.374h7.307a1.187 1.187 0 010 2.374zM25.557 45.08H18.25a1.187 1.187 0 110-2.374h7.307a1.187 1.187 0 110 2.374z" class="e"/>
		</g>
		<g>
			<path d="M56.698 35.508h-7.307a1.187 1.187 0 010-2.374h7.307a1.187 1.187 0 010 2.374zM56.677 39.436l-7.306-.128a1.187 1.187 0 01.042-2.374l7.306.128a1.187 1.187 0 11-.042 2.374zM56.602 43.439l-7.288-.53a1.187 1.187 0 11.172-2.368l7.288.53a1.187 1.187 0 11-.172 2.368z" class="e"/>
		</g>
	</g>
	<g transform="translate(29.283 15.488)">
		<path fill="#214c9e" d="M5.958 24.48l-1.074-1.393a.812.812 0 00-1.1-.178l-1.459.983a.812.812 0 01-1.255-.8L3.49 8.145 9.818 9.17l-2.42 14.947a.812.812 0 01-1.44.363z"/>
		<path d="M12.569 27.008l-1.385-1.083a.812.812 0 00-1.107.1l-1.169 1.314a.812.812 0 01-1.415-.466l-.74-8.186-.622-6.894 6.385-.577.455 5.031.908 10.049a.812.812 0 01-1.309.713z" class="g"/>
		<path d="M12.97 16.246a3.137 3.137 0 01-1.382-.417l-.184-.107v.214a3.139 3.139 0 01-4.651 2.749l-.622-6.894 6.384-.577z" class="h"/>
		<path d="M14.489 8.892l-.185-.107.185-.107a3.138 3.138 0 10-3.138-5.434l-.185.107v-.213a3.138 3.138 0 10-6.275 0v.213l-.185-.107a3.138 3.138 0 00-3.138 5.434l.185.107-.185.107a3.138 3.138 0 003.138 5.435l.185-.107v.213a3.138 3.138 0 106.275 0v-.213l.185.107a3.138 3.138 0 003.138-5.435z" class="g"/>
		<circle cx="4.907" cy="4.907" r="4.907" class="h" transform="translate(3.122 3.878)"/>
	</g>
</svg>
