<svg xmlns="http://www.w3.org/2000/svg" width="60" height="60" viewBox="0 0 60 60">
	<defs>
		<style>
			.a{fill:#3279ea}.b{fill:#2862be}.c{fill:#f2b9a1}.d{fill:#78a0d4}.e{fill:#c0dafc}.f{fill:#4c506e}.g{fill:#fbe1ca}
		</style>
	</defs>
	<path d="M24 30v-7.791a4 4 0 00-3.132-3.909l-3.657-.813a4 4 0 01-2.927-2.64L14 14h-4l-.284.851a4 4 0 01-2.927 2.64l-3.657.809A4 4 0 000 22.209V30z" class="a"/>
	<path d="M8 26a2 2 0 01-2-2v-6.333l.789-.175a4 4 0 002.927-2.64L10 14h4l.284.851a4 4 0 002.927 2.64l3.657.813A4 4 0 0124 22.209V26z" class="b"/>
	<path d="M12 14a6 6 0 006-6V6A6 6 0 006 6v2a6 6 0 006 6z" class="c"/>
	<path d="M9.716 14.851L10 14v-1l4.041-.005L14 14l.284.851a4 4 0 001.14 1.725L12 20l-3.424-3.424a3.988 3.988 0 001.14-1.725z" class="c"/>
	<path d="M3 25h6v2H3zM7 10a6.829 6.829 0 014.83-2h.342A6.835 6.835 0 0117 10l.465.465a5.995 5.995 0 01-10.933 0z" class="d"/>
	<path d="M11.829 8h.342A6.835 6.835 0 0117 10l.465.465A6 6 0 0116.455 12H10a1 1 0 01-1-1V8.621A6.825 6.825 0 0111.829 8z" class="e"/>
	<path d="M12.185 0A6.166 6.166 0 0118 6.252V8a2 2 0 01-2-2 2 2 0 00-2-2h-4a2 2 0 00-2 2 2 2 0 01-2 2V6a6 6 0 016.185-6z" class="f"/>
	<path d="M36 30v-7.791a4 4 0 013.132-3.909l3.657-.813a4 4 0 002.927-2.64L46 14h4l.284.851a4 4 0 002.927 2.64l3.657.813A4 4 0 0160 22.209V30z" class="a"/>
	<path d="M52 26a2 2 0 002-2v-6.333l-.789-.175a4 4 0 01-2.927-2.64L50 14h-4l-.284.851a4 4 0 01-2.927 2.64l-3.657.813A4 4 0 0036 22.209V26z" class="b"/>
	<path d="M20 32v-5a7 7 0 017-7h6a7 7 0 017 7v5" class="a"/>
	<path d="M20 28h20v5H20z" class="b"/>
	<path d="M23 38h-2a3 3 0 010-6h2M37 32h2a3 3 0 010 6h-2" class="c"/>
	<path d="M26 43l-8.052 2.2A4 4 0 0015 49.055V60h30V49.055a4 4 0 00-2.948-3.855L34 43" class="b"/>
	<path d="M35 56a2 2 0 002-2V43.818L34 43h-8l-8.052 2.2A4 4 0 0015 49.055V56z" class="a"/>
	<path d="M30 50l4.564-6.846L34 43h-8l-.564.154z" class="c"/>
	<path d="M35 43.253L34 43h-1v13h2zM27 43h-1l-1 .273V56h2z" class="d"/>
	<path d="M38 32v4a8 8 0 01-16 0v-4" class="g"/>
	<path d="M37 39l-1.317-.658a12.7 12.7 0 00-11.366 0L23 39l-.344.172a8 8 0 0014.688 0z" class="d"/>
	<path d="M39 56h6v4h-6zM15 56h6v4h-6z" class="c"/>
	<path d="M33.5 36a1.5 1.5 0 111.5-1.5 1.5 1.5 0 01-1.5 1.5zM26.5 36a1.5 1.5 0 111.5-1.5 1.5 1.5 0 01-1.5 1.5z" class="f"/>
	<path d="M48 14a6 6 0 01-6-6V6a6 6 0 0112 0v2a6 6 0 01-6 6z" class="c"/>
	<path d="M50.284 14.851L50 14v-1l-4.041-.005L46 14l-.284.851a4 4 0 01-1.14 1.725L48 20l3.424-3.424a3.988 3.988 0 01-1.14-1.725z" class="c"/>
	<path d="M51 25h6v2h-6zM53 10a6.829 6.829 0 00-4.83-2h-.342A6.835 6.835 0 0043 10l-.465.465a5.995 5.995 0 0010.933 0z" class="d"/>
	<path d="M39 56v3h3a1 1 0 001-1v-2zM15 56v3h3a1 1 0 001-1v-2z" class="g"/>
	<path d="M30 37a12.7 12.7 0 00-5.683 1.342L23 39l-.344.172A7.989 7.989 0 0023.769 41H33a1 1 0 001-1v-2.338A12.683 12.683 0 0030 37zM48.171 8h-.342A6.835 6.835 0 0043 10l-.465.465A6 6 0 0043.545 12H50a1 1 0 001-1V8.621A6.825 6.825 0 0048.171 8z" class="e"/>
	<path d="M47.815 0A6.166 6.166 0 0042 6.252V8a2 2 0 002-2 2 2 0 012-2h4a2 2 0 012 2 2 2 0 002 2V6a6 6 0 00-6.185-6z" class="f"/>
</svg>
