<svg xmlns="http://www.w3.org/2000/svg" width="85.446" height="26.873" viewBox="0 0 85.446 26.873">
	<g data-name="Group 5802">
		<path fill="#4285f4" d="M10.672 9.573v2.875h6.874a6.1 6.1 0 01-1.566 3.624 7.037 7.037 0 01-5.306 2.1 7.645 7.645 0 010-15.289 7.308 7.308 0 015.178 2.057l2.022-2.022a9.927 9.927 0 00-7.2-2.922 10.521 10.521 0 100 21.04 9.641 9.641 0 007.34-2.946 9.515 9.515 0 002.49-6.721 9.244 9.244 0 00-.152-1.8z" data-name="Path 2976"/>
		<path fill="#ea4335" d="M29.092 7.236a6.791 6.791 0 106.815 6.791 6.692 6.692 0 00-6.815-6.791zm0 10.906a4.125 4.125 0 113.834-4.114 3.928 3.928 0 01-3.834 4.114z" data-name="Path 2977"/>
		<path fill="#4285f4" d="M62.501 8.756h-.105a4.708 4.708 0 00-3.577-1.52 6.807 6.807 0 000 13.582 4.638 4.638 0 003.577-1.543h.105v.947c0 2.595-1.391 3.986-3.624 3.986a3.766 3.766 0 01-3.425-2.42l-2.6 1.076a6.47 6.47 0 006.02 4.009c3.495 0 6.452-2.057 6.452-7.072V7.587h-2.829zm-3.425 9.386c-2.057 0-3.623-1.753-3.623-4.114 0-2.4 1.566-4.115 3.623-4.115 2.034 0 3.623 1.754 3.623 4.138a3.781 3.781 0 01-3.623 4.091z" data-name="Path 2978"/>
		<path fill="#fbbc05" d="M44.29 7.236a6.791 6.791 0 106.814 6.791 6.692 6.692 0 00-6.814-6.791zm0 10.906a4.125 4.125 0 113.834-4.114 3.928 3.928 0 01-3.834 4.114z" data-name="Path 2979"/>
		<path fill="#34a853" d="M67.667.281h2.934v20.537h-2.934z" data-name="Path 2980"/>
		<path fill="#ea4335" d="M79.66 18.142a3.457 3.457 0 01-3.3-2.057l9.082-3.752-.3-.771a6.307 6.307 0 00-5.809-4.325 6.453 6.453 0 00-6.405 6.791 6.639 6.639 0 006.733 6.791 6.776 6.776 0 005.657-3l-2.315-1.543a3.889 3.889 0 01-3.343 1.87zm-.211-8.357a2.685 2.685 0 012.572 1.5l-6.137 2.536a3.689 3.689 0 013.565-4.037z" data-name="Path 2981"/>
	</g>
</svg>
