<svg xmlns="http://www.w3.org/2000/svg" xmlns:xlink="http://www.w3.org/1999/xlink" width="186.585" height="54" viewBox="0 0 186.585 54">
	<defs>
		<linearGradient id="logo-l" x1="-15.986" x2="-15.913" y1="3.526" y2="3.526" xlink:href="#logo-b"/>
		<linearGradient id="logo-v" x1="-2.107" x2="-2.081" y1="6.29" y2="6.29" xlink:href="#logo-b"/>
		<linearGradient id="logo-t" x1="-.708" x2="-.69" y1="1.711" y2="1.711" xlink:href="#logo-a"/>
		<linearGradient id="logo-e" x1="-4.415" x2="-4.37" y1="3.515" y2="3.515" xlink:href="#logo-a"/>
		<linearGradient id="logo-r" x1="-15.772" x2="-15.717" y1="3.422" y2="3.422" xlink:href="#logo-b"/>
		<linearGradient id="logo-g" x1="-5.565" x2="-5.52" y1="3.515" y2="3.515" xlink:href="#logo-a"/>
		<linearGradient id="logo-p" x1="-12.109" x2="-12.062" y1="3.488" y2="3.488" xlink:href="#logo-b"/>
		<linearGradient id="logo-b" x1="-8.205" x2="-8.151" y1="3.422" y2="3.422" gradientUnits="objectBoundingBox">
			<stop offset="0" stop-color="#85bcec"/>
			<stop offset="1" stop-color="#69aade"/>
		</linearGradient>
		<linearGradient id="logo-n" x1="-10.593" x2="-10.549" y1="3.515" y2="3.515" xlink:href="#logo-b"/>
		<linearGradient id="logo-j" x1="-4.074" x2="-4.05" y1="3.458" y2="3.458" xlink:href="#logo-b"/>
		<linearGradient id="logo-a" x1="-1.866" x2="-1.837" y1="3.465" y2="3.465" gradientUnits="objectBoundingBox">
			<stop offset="0" stop-color="#1f4dab"/>
			<stop offset="1" stop-color="#173c7b"/>
		</linearGradient>
		<clipPath id="logo-q">
			<path d="M290.769 82.553c0 2.5 1.131 4.394 4.593 6.424l1.7 1c2.6 1.531 2.9 2.763 2.9 3.994 0 2-1.531 3.595-4.061 3.595-1.83 0-4.027-.7-4.66-2.8a5.316 5.316 0 01-.266-1.464c0-.2-.034-.467-.3-.467-.233 0-.366.3-.366.733-.034.465-.167 2.23-.167 3.761 0 .633.1.765.567.965a12.444 12.444 0 004.759.733 8.539 8.539 0 004.892-1.165 6.048 6.048 0 002.93-5.292c0-2.562-1.2-4.725-5.059-6.856l-1.2-.665c-2.63-1.464-3.095-2.463-3.095-3.728 0-1.93 1.9-3.029 3.993-3.029a3.927 3.927 0 013.261 1.332 3.191 3.191 0 01.765 1.863c0 .332.1.5.3.5.233 0 .366-.3.366-.9 0-2.23.1-3.028.1-3.395 0-.2-.134-.3-.4-.366a17.373 17.373 0 00-4.159-.466c-4.061 0-7.389 2.23-7.389 5.691" data-name="Контур 3172" transform="translate(-290.136 -76.862)"/>
		</clipPath>
		<clipPath id="logo-k">
			<path d="M222.737 77.488c-.832 0-2.83-.066-3.927-.066-.466 0-.7.066-.7.233 0 .266.166.332.465.332a3.76 3.76 0 011.066.133c.632.2.932.533 1 1.5.034.9.034 1.7.034 5.991V90.6c0 2.729 0 4.992-.134 6.157-.1.831-.267 1.231-.866 1.364a4.355 4.355 0 01-1.031.1c-.366 0-.466.166-.466.3 0 .2.2.3.566.3 1.164 0 3.162-.1 3.827-.1.8 0 2.8.1 4.726.1.334 0 .567-.1.567-.3 0-.134-.134-.3-.466-.3a11.1 11.1 0 01-1.5-.1c-.866-.134-1.065-.566-1.165-1.33-.133-1.2-.133-3.463-.133-6.192v-4.99c0-4.293 0-5.092.066-5.991.066-1 .3-1.4 1.1-1.531a4.133 4.133 0 01.866-.1c.3 0 .465-.066.465-.332 0-.167-.232-.233-.6-.233-1.13 0-3.028.066-3.759.066" data-name="Контур 3169" transform="translate(-218.111 -77.422)"/>
		</clipPath>
		<clipPath id="logo-i">
			<path d="M195.253 77.423L187.4 93.264l-7.855-15.643c-.4-.765-.6-.9-.9-.9-.232 0-.5.266-.565.733l-2.9 18.338c-.133.932-.4 2.064-1.2 2.162a5.206 5.206 0 01-.9.068c-.3 0-.466.133-.466.267 0 .266.233.332.532.332.932 0 2.33-.1 2.9-.1.533 0 1.864.1 3.1.1.432 0 .7-.066.7-.332 0-.134-.2-.267-.465-.267a5.108 5.108 0 01-1.031-.134c-.5-.1-.9-.3-.9-.833a9.32 9.32 0 01.1-1.33l1.4-10.916h.1c.966 1.963 2.7 5.392 2.929 5.924.333.8 2.663 5.126 3.361 6.425.466.865.8 1.43 1.165 1.43.333 0 .5-.266 1.166-1.6l6.29-12.514h.1l1.63 12.214c.1.8.034 1.132-.132 1.2-.2.066-.333.166-.333.3 0 .166.165.3.865.333 1.165.066 5.325.167 6.057.167.433 0 .765-.1.765-.334 0-.166-.2-.265-.465-.265a5.809 5.809 0 01-1.664-.267c-.9-.267-1.165-1.032-1.432-2.8l-2.663-17.408c-.1-.6-.432-.9-.665-.9-.267 0-.534.233-.767.7" data-name="Контур 3168" transform="translate(-172.621 -76.723)"/>
		</clipPath>
		<clipPath id="logo-o">
			<path d="M276.313 77.229c-.234.033-.7.133-1.233.167-.565.033-7.056 0-7.988 0-.832 0-2.7-.066-4.227-.066-.432 0-.666.066-.666.266s.2.3.5.3a5.457 5.457 0 011.165.1c.932.267 1.2.567 1.264 1.531.034.9.034 1.7.034 5.991v4.992c0 2.6 0 4.826-.134 6.024-.1.833-.267 1.365-.866 1.5a4.347 4.347 0 01-1.031.1c-.367 0-.466.166-.466.3 0 .2.2.3.565.3.6 0 1.332-.034 2.031-.066.7 0 1.33-.034 1.664-.034.866 0 1.963.034 3.395.066 1.431.067 3.195.1 5.392.1 1.1 0 1.364 0 1.564-.733a19.107 19.107 0 00.4-3.128c0-.3-.033-.665-.266-.665-.2 0-.267.133-.333.432-.2 1.165-.532 1.764-1.265 2.1a7.9 7.9 0 01-2.762.366c-3 0-3.894-.432-3.961-2.363-.033-.831 0-3.229 0-4.193v-2.27c0-.166.034-.3.167-.3.732 0 4.06.066 4.593.134 1.1.1 1.464.532 1.631 1.1.067.367.067.733.1 1.032 0 .133.067.233.267.233.267 0 .3-.4.3-.633 0-.2.066-1.332.134-1.9.166-1.432.232-1.9.232-2.064a.269.269 0 00-.232-.3c-.134 0-.233.167-.466.367a2.308 2.308 0 01-1.4.432c-.665.066-4.46.066-5.126.066-.166 0-.2-.132-.2-.3v-6.986c0-.166.066-.267.2-.267.6 0 4.095.067 4.593.134 1.464.133 1.7.532 1.93 1.031a2.67 2.67 0 01.2 1.032c0 .233.034.366.232.366.233 0 .3-.332.334-.466.066-.333.133-1.564.166-1.864a12.593 12.593 0 01.232-1.83c0-.133-.033-.267-.2-.267a3.364 3.364 0 00-.465.133" data-name="Контур 3171" transform="translate(-262.2 -77.096)"/>
		</clipPath>
		<clipPath id="logo-h">
			<path d="M151.557 82.553c0 2.5 1.131 4.394 4.593 6.424l1.7 1c2.6 1.531 2.9 2.763 2.9 3.994 0 2-1.531 3.595-4.061 3.595-1.83 0-4.027-.7-4.658-2.8a5.244 5.244 0 01-.267-1.464c0-.2-.033-.467-.3-.467-.234 0-.367.3-.367.733-.033.465-.166 2.23-.166 3.761 0 .633.1.765.565.965a12.442 12.442 0 004.759.733 8.536 8.536 0 004.892-1.165 6.046 6.046 0 002.93-5.292c0-2.562-1.2-4.725-5.059-6.856l-1.2-.665c-2.63-1.464-3.1-2.463-3.1-3.728 0-1.93 1.9-3.029 3.994-3.029a3.931 3.931 0 013.262 1.332 3.191 3.191 0 01.765 1.863c0 .332.1.5.3.5.233 0 .366-.3.366-.9 0-2.23.1-3.028.1-3.395 0-.2-.134-.3-.4-.366a17.387 17.387 0 00-4.16-.466c-4.06 0-7.389 2.23-7.389 5.691" data-name="Контур 3167" transform="translate(-150.925 -76.862)"/>
		</clipPath>
		<clipPath id="logo-m">
			<path d="M241.44 77.488c-.8 0-2.663-.066-4.027-.066-.432 0-.633.066-.633.266s.166.3.5.3a3.952 3.952 0 01.966.1c.932.267 1.2.567 1.265 1.531.033.9.033 1.7.033 5.991v4.99c0 2.6 0 4.826-.133 6.024-.1.833-.266 1.365-.865 1.5a4.364 4.364 0 01-1.033.1c-.365 0-.465.166-.465.3 0 .2.2.3.566.3.6 0 1.331-.034 2.03-.066.7 0 1.332-.034 1.664-.034 1.2 0 2.429.034 3.894.066 1.464.067 3.163.1 5.258.1 1.531 0 1.665-.134 1.864-.765a21.638 21.638 0 00.432-3.261c0-.333-.066-.633-.266-.633-.233 0-.3.166-.332.432a3.405 3.405 0 01-.733 1.7c-.732.766-1.863.8-3.428.8-2.263 0-3.394-.167-3.893-.6-.633-.532-.633-2.33-.633-5.958V85.61c0-4.293 0-5.092.068-5.991.066-1 .3-1.4 1.1-1.531a6.588 6.588 0 011.131-.1c.367 0 .532-.1.532-.3s-.2-.266-.632-.266c-1.131 0-3.527.066-4.226.066" data-name="Контур 3170" transform="translate(-236.78 -77.422)"/>
		</clipPath>
		<clipPath id="logo-f">
			<path d="M129.045 77.488c-.8 0-2.662-.066-4.027-.066-.432 0-.633.066-.633.266s.167.3.5.3a3.946 3.946 0 01.965.1c.932.267 1.2.567 1.264 1.531.034.9.034 1.7.034 5.991v4.99c0 2.6 0 4.826-.133 6.024-.1.833-.267 1.365-.866 1.5a4.347 4.347 0 01-1.031.1c-.367 0-.467.166-.467.3 0 .2.2.3.566.3.6 0 1.332-.034 2.03-.066.7 0 1.332-.034 1.665-.034 1.2 0 2.43.034 3.894.066 1.465.067 3.162.1 5.259.1 1.531 0 1.664-.134 1.864-.765a21.563 21.563 0 00.432-3.261c0-.333-.066-.633-.266-.633-.234 0-.3.166-.333.432a3.4 3.4 0 01-.732 1.7c-.732.766-1.864.8-3.428.8-2.263 0-3.395-.167-3.894-.6-.633-.532-.633-2.33-.633-5.958V85.61c0-4.293 0-5.092.067-5.991.066-1 .3-1.4 1.1-1.531a6.57 6.57 0 011.131-.1c.366 0 .532-.1.532-.3s-.2-.266-.632-.266c-1.132 0-3.529.066-4.227.066" data-name="Контур 3166" transform="translate(-124.385 -77.422)"/>
		</clipPath>
		<clipPath id="logo-s">
			<path d="M52.57 56.411c-10.455 6.786-2.018 28.429.55 34.666s6.419 13.572 13.206 16.691a69.772 69.772 0 01-15.04-32.281c-3.668-19.993 9.538-19.809 13.023-17.608s9.9 12.106 18.158 9.538c0 0-2.532.581-6.741-2.9-3.226-2.665-6.344-8.31-11.626-10.128a13.128 13.128 0 00-3.594-.51 14.409 14.409 0 00-7.933 2.532" data-name="Контур 3182" transform="translate(-47.468 -53.879)"/>
		</clipPath>
		<clipPath id="logo-d">
			<path d="M103.345 77.488c-.8 0-2.663-.066-4.027-.066-.433 0-.633.066-.633.266s.167.3.5.3a3.948 3.948 0 01.966.1c.932.267 1.2.567 1.265 1.531.034.9.034 1.7.034 5.991v4.99c0 2.6 0 4.826-.134 6.024-.1.833-.266 1.365-.866 1.5a4.353 4.353 0 01-1.032.1c-.366 0-.465.166-.465.3 0 .2.2.3.566.3.6 0 1.332-.034 2.03-.066.7 0 1.332-.034 1.664-.034 1.2 0 2.43.034 3.894.066 1.464.067 3.161.1 5.258.1 1.531 0 1.665-.134 1.865-.765a21.641 21.641 0 00.432-3.261c0-.333-.066-.633-.266-.633-.233 0-.3.166-.333.432a3.4 3.4 0 01-.732 1.7c-.733.766-1.864.8-3.428.8-2.263 0-3.394-.167-3.894-.6-.633-.532-.633-2.33-.633-5.958V85.61c0-4.293 0-5.092.067-5.991.066-1 .3-1.4 1.1-1.531a6.576 6.576 0 011.131-.1c.367 0 .532-.1.532-.3s-.2-.266-.633-.266c-1.131 0-3.527.066-4.226.066" data-name="Контур 3165" transform="translate(-98.685 -77.422)"/>
		</clipPath>
		<clipPath id="logo-u">
			<path d="M83 57.492a20.146 20.146 0 001.5 2.051c3.528-1.355 12.046-3.869 18.375-.425 5.19 2.826 8.284 9.294 8.284 9.294-.552-9.7-7-14.689-15.161-14.689a26.544 26.544 0 00-13 3.769" data-name="Контур 3183" transform="translate(-83.001 -53.723)"/>
		</clipPath>
		<clipPath id="logo-c">
			<path d="M72.245 89.691l2.829-7.056c.034-.1.067-.266.167-.266.066 0 .1.167.133.266l2.762 7.088c.034.1 0 .168-.133.168h-5.658c-.1 0-.167-.067-.1-.2m2.9-11.882l-7.659 17.673c-.6 1.432-1.1 2.3-2.43 2.5-.266 0-.6.034-.865.034-.233 0-.333.133-.333.3 0 .233.167.3.532.3 1.532 0 3.1-.1 3.395-.1.932 0 2.3.1 3.261.1.3 0 .467-.066.467-.3 0-.167-.067-.3-.433-.3h-.432c-.9 0-1.165-.3-1.165-.8a5.145 5.145 0 01.432-1.731l1.564-3.828c.066-.165.1-.2.266-.2h6.889a.28.28 0 01.3.2l2.266 5.722a.445.445 0 01-.267.633c-.3.033-.366.133-.366.3 0 .2.333.2.865.233 2.464.066 4.593.066 5.625.066 1.1 0 1.265-.066 1.265-.3 0-.2-.134-.3-.4-.3a7.156 7.156 0 01-1.1-.1c-.533-.1-1.364-.466-2.5-3.029-1.864-4.293-6.756-15.742-7.455-17.306-.3-.633-.432-.9-.866-.9-.3 0-.532.332-.865 1.131" data-name="Контур 3164" transform="translate(-63.858 -76.678)"/>
		</clipPath>
	</defs>
	<g data-name="Сгруппировать 5844">
		<g clip-path="url(#logo-c)" data-name="Сгруппировать 5843" transform="translate(11.714 16.406)">
			<path fill="url(#logo-a)" d="M0 0h24.462v21.933H0z" data-name="Прямоугольник 428" transform="translate(0 -.001)"/>
		</g>
	</g>
	<g data-name="Сгруппировать 5846">
		<g clip-path="url(#logo-d)" data-name="Сгруппировать 5845" transform="translate(36.605 16.938)">
			<path fill="url(#logo-e)" d="M0 0h15.975v21.467H0z" data-name="Прямоугольник 429"/>
		</g>
	</g>
	<g data-name="Сгруппировать 5848">
		<g clip-path="url(#logo-f)" data-name="Сгруппировать 5847" transform="translate(54.973 16.938)">
			<path fill="url(#logo-g)" d="M0 0h15.976v21.467H0z" data-name="Прямоугольник 430"/>
		</g>
	</g>
	<g data-name="Сгруппировать 5850">
		<g clip-path="url(#logo-h)" data-name="Сгруппировать 5849" transform="translate(73.942 16.538)">
			<path fill="url(#logo-b)" d="M0 0h13.146v22.166H0z" data-name="Прямоугольник 431" transform="translate(0 .001)"/>
		</g>
	</g>
	<g data-name="Сгруппировать 5852">
		<g clip-path="url(#logo-i)" data-name="Сгруппировать 5851" transform="translate(89.448 16.438)">
			<path fill="url(#logo-j)" d="M0 0h30.287v21.967H0z" data-name="Прямоугольник 432"/>
		</g>
	</g>
	<g data-name="Сгруппировать 5854">
		<g clip-path="url(#logo-k)" data-name="Сгруппировать 5853" transform="translate(121.96 16.938)">
			<path fill="url(#logo-l)" d="M0 0h9.752v21.4H0z" data-name="Прямоугольник 433"/>
		</g>
	</g>
	<g data-name="Сгруппировать 5856">
		<g clip-path="url(#logo-m)" data-name="Сгруппировать 5855" transform="translate(135.303 16.938)">
			<path fill="url(#logo-n)" d="M0 0h15.975v21.467H0z" data-name="Прямоугольник 434"/>
		</g>
	</g>
	<g data-name="Сгруппировать 5858">
		<g clip-path="url(#logo-o)" data-name="Сгруппировать 5857" transform="translate(153.471 16.705)">
			<path fill="url(#logo-p)" d="M0 0h15.476v21.701H0z" data-name="Прямоугольник 435" transform="translate(.001 -.001)"/>
		</g>
	</g>
	<g data-name="Сгруппировать 5860">
		<g clip-path="url(#logo-q)" data-name="Сгруппировать 5859" transform="translate(173.438 16.538)">
			<path fill="url(#logo-r)" d="M0 0h13.148v22.166H0z" data-name="Прямоугольник 436" transform="translate(.001 .001)"/>
		</g>
	</g>
	<g fill="#636262" data-name="Сгруппировать 5861">
		<path d="M22.963 46.231c0-1.8 0-2.138-.014-2.516-.029-.4-.14-.53-.531-.641a2.211 2.211 0 00-.489-.043c-.126 0-.209-.041-.209-.125s.1-.112.279-.112c.643 0 1.424.028 1.774.028.377 0 1.256-.028 2-.028 1.537 0 3.6 0 4.944 1.355a4.158 4.158 0 011.159 3.017 4.606 4.606 0 01-1.341 3.311 5.73 5.73 0 01-4.12 1.4c-.447 0-.978-.041-1.467-.07s-.936-.07-1.243-.07c-.139 0-.405.014-.7.014s-.6.029-.852.029c-.154 0-.238-.043-.238-.127 0-.055.042-.126.2-.126a1.851 1.851 0 00.432-.041c.252-.056.321-.28.363-.629.056-.5.056-1.439.056-2.528v-2.093zm1.648 1.312c0 1.257.014 2.164.028 2.4a2.166 2.166 0 00.139.838c.154.224.643.475 1.606.475a3.868 3.868 0 002.682-.81 3.623 3.623 0 001.048-2.947 3.867 3.867 0 00-1.145-2.96 4.957 4.957 0 00-3.436-1.131 2.641 2.641 0 00-.755.084.209.209 0 00-.153.238c-.014.4-.014 1.383-.014 2.317z" data-name="Контур 3173"/>
		<path d="M39.462 46.233c0-1.8 0-2.137-.014-2.514-.027-.405-.139-.53-.53-.643a2.268 2.268 0 00-.489-.042c-.126 0-.209-.041-.209-.125s.1-.111.279-.111c.643 0 1.425.027 1.774.027.391 0 3.115.014 3.352 0a5.037 5.037 0 00.517-.069 1.319 1.319 0 01.2-.056c.069 0 .084.056.084.112a5.217 5.217 0 00-.1.768c-.014.126-.041.643-.07.783-.014.055-.041.2-.139.2s-.1-.056-.1-.154a1.111 1.111 0 00-.084-.433c-.1-.209-.2-.377-.81-.432-.21-.028-1.676-.056-1.928-.056-.056 0-.084.042-.084.111v2.933c0 .07.014.126.084.126.279 0 1.871 0 2.151-.028a.967.967 0 00.587-.182c.1-.082.139-.154.2-.154s.1.056.1.127-.029.264-.1.866c-.028.237-.056.712-.056.795 0 .1-.014.266-.125.266-.084 0-.112-.042-.112-.1-.014-.126-.014-.28-.042-.433-.069-.237-.223-.42-.684-.461-.223-.028-1.62-.056-1.928-.056-.056 0-.069.056-.069.127v.949c0 .405-.014 1.412 0 1.76.028.81.4.993 1.662.993a3.309 3.309 0 001.159-.155c.307-.139.447-.391.53-.879.029-.126.056-.182.14-.182s.111.154.111.279a7.99 7.99 0 01-.167 1.313c-.084.308-.2.308-.656.308-.923 0-1.662-.015-2.263-.043s-1.061-.028-1.424-.028c-.14 0-.405.015-.7.015s-.6.028-.851.028c-.154 0-.237-.043-.237-.127 0-.055.041-.125.2-.125a1.82 1.82 0 00.433-.041c.252-.056.322-.281.363-.629.056-.5.056-1.439.056-2.528v-2.1z" data-name="Контур 3174"/>
		<path d="M53.028 50.156c.029.921.182 1.2.42 1.285a2.1 2.1 0 00.642.083c.14 0 .209.056.209.126 0 .1-.111.127-.279.127-.8 0-1.369-.042-1.592-.042-.111 0-.7.042-1.327.042-.167 0-.279-.015-.279-.127 0-.069.084-.126.2-.126a2.557 2.557 0 00.559-.056c.322-.083.363-.4.377-1.439l.111-7.038c0-.238.084-.4.209-.4.154 0 .322.182.53.391.154.154 2 2.039 3.785 3.784.838.824 2.471 2.5 2.654 2.667h.056l-.126-5.28c-.014-.726-.126-.935-.419-1.047a2.057 2.057 0 00-.643-.07c-.154 0-.2-.056-.2-.127 0-.1.125-.111.307-.111.643 0 1.3.027 1.564.027.14 0 .6-.027 1.2-.027.167 0 .279.014.279.111 0 .071-.07.127-.209.127a1.241 1.241 0 00-.377.042c-.335.1-.432.307-.447.977l-.139 7.486c0 .265-.1.377-.2.377a.731.731 0 01-.5-.252c-.768-.712-2.3-2.178-3.589-3.421-1.341-1.286-2.639-2.723-2.877-2.933h-.042z" data-name="Контур 3175"/>
		<path d="M70.674 43.521l-1.83.042c-.713.014-1.006.1-1.187.363a1.373 1.373 0 00-.209.405c-.028.1-.056.153-.139.153s-.112-.069-.112-.194c0-.2.238-1.341.265-1.439.029-.154.07-.224.14-.224.1 0 .224.1.53.14a11.668 11.668 0 001.229.055h4.986a5.469 5.469 0 00.838-.055c.2-.028.294-.056.335-.056.084 0 .1.071.1.252 0 .253-.028 1.131-.028 1.439-.014.126-.042.194-.111.194-.1 0-.126-.056-.14-.237l-.014-.125c-.028-.308-.35-.67-1.453-.684l-1.55-.029v4.8c0 1.089.014 2.025.07 2.542.042.335.112.557.475.615a4.716 4.716 0 00.628.041c.14 0 .2.071.2.126 0 .084-.1.127-.238.127-.81 0-1.634-.042-1.983-.042-.279 0-1.118.042-1.607.042-.154 0-.237-.042-.237-.127 0-.055.042-.126.2-.126a1.764 1.764 0 00.432-.041c.252-.057.322-.28.364-.63.056-.5.056-1.439.056-2.527z" data-name="Контур 3176"/>
		<path d="M82.607 48.773c-.07 0-.084.014-.112.083l-.656 1.606a2.148 2.148 0 00-.182.727c0 .209.111.335.488.335h.182c.153 0 .182.056.182.125 0 .1-.07.127-.2.127-.405 0-.977-.043-1.369-.043-.126 0-.782.043-1.424.043-.154 0-.224-.029-.224-.127 0-.069.042-.125.14-.125s.251-.014.363-.014c.558-.084.768-.447 1.019-1.048l3.213-7.416c.139-.335.237-.474.363-.474.182 0 .237.111.363.377.293.655 2.346 5.46 3.128 7.262.475 1.075.824 1.229 1.047 1.271a2.966 2.966 0 00.461.041c.111 0 .167.043.167.125 0 .1-.069.127-.53.127-.433 0-1.326 0-2.361-.029-.223-.014-.362-.014-.362-.1 0-.069.027-.111.154-.125a.186.186 0 00.111-.265l-.95-2.4a.116.116 0 00-.126-.083zm2.626-.657c.056 0 .07-.028.056-.07l-1.159-2.975c-.014-.042-.029-.111-.056-.111s-.056.07-.07.111l-1.187 2.961c-.027.056 0 .084.042.084z" data-name="Контур 3177"/>
		<path d="M97.583 48.326c0 1.522 0 2.277.265 2.5.209.182.685.252 1.634.252.657 0 1.132-.014 1.439-.336a1.417 1.417 0 00.308-.712c.014-.111.042-.182.139-.182s.111.125.111.265a9.022 9.022 0 01-.181 1.369c-.084.264-.14.32-.783.32-.88 0-1.592-.014-2.206-.043s-1.131-.026-1.634-.026c-.139 0-.405.014-.7.014s-.6.029-.851.029c-.154 0-.238-.042-.238-.127 0-.055.042-.126.2-.126a1.846 1.846 0 00.432-.041c.252-.057.321-.28.363-.63.056-.5.056-1.438.056-2.527v-2.094c0-1.8 0-2.138-.014-2.516-.029-.4-.14-.53-.531-.641a1.608 1.608 0 00-.4-.043c-.14 0-.21-.041-.21-.126s.084-.111.266-.111c.572 0 1.354.028 1.69.028.293 0 1.3-.028 1.773-.028.181 0 .265.028.265.111s-.07.126-.223.126a2.666 2.666 0 00-.475.043c-.335.056-.433.223-.462.641-.028.377-.028.713-.028 2.516v2.095z" data-name="Контур 3178"/>
		<path d="M117.233 51.621c-.2-.084-.237-.139-.237-.4 0-.643.056-1.384.071-1.579s.056-.308.154-.308.125.112.125.2a2.207 2.207 0 00.112.615 1.9 1.9 0 001.954 1.173 1.542 1.542 0 001.7-1.508c0-.517-.127-1.033-1.215-1.675l-.712-.42c-1.453-.852-1.928-1.649-1.928-2.7 0-1.452 1.4-2.389 3.1-2.389a7.3 7.3 0 011.745.2c.112.029.168.071.168.154 0 .154-.043.489-.043 1.425 0 .251-.056.377-.153.377s-.126-.071-.126-.211a1.348 1.348 0 00-.322-.782 1.652 1.652 0 00-1.369-.558c-.88 0-1.676.461-1.676 1.27 0 .531.2.951 1.3 1.564l.5.28c1.621.894 2.123 1.8 2.123 2.877a2.537 2.537 0 01-1.229 2.22 3.583 3.583 0 01-2.053.49 5.187 5.187 0 01-2-.306" data-name="Контур 3179"/>
		<path d="M130.194 46.231c0-1.8 0-2.137-.014-2.514-.027-.405-.139-.53-.53-.643a2.268 2.268 0 00-.489-.042c-.127 0-.209-.041-.209-.125s.1-.111.279-.111c.643 0 1.425.027 1.774.027.5 0 1.48-.027 2.039-.027a3.131 3.131 0 012.291.67 2.062 2.062 0 01.615 1.424 2.908 2.908 0 01-3.087 2.877 3.251 3.251 0 01-.363-.014.141.141 0 01-.154-.127c0-.1.139-.153.4-.153a1.859 1.859 0 001.649-1.928 2.212 2.212 0 00-.727-1.76 1.848 1.848 0 00-1.229-.447 1.95 1.95 0 00-.531.056c-.069.028-.1.1-.1.224v4.706c0 1.089 0 2.025.056 2.542.041.335.111.559.475.615a4.755 4.755 0 00.628.041c.139 0 .2.07.2.125 0 .084-.1.127-.223.127-.824 0-1.69-.043-2.011-.043-.279 0-1.061.043-1.55.043-.154 0-.237-.043-.237-.127 0-.055.042-.125.2-.125a1.809 1.809 0 00.432-.041c.252-.056.321-.281.363-.629.056-.5.056-1.439.056-2.528v-2.093z" data-name="Контур 3180"/>
		<path d="M143.383 48.773c-.071 0-.084.014-.112.083l-.652 1.606a2.148 2.148 0 00-.182.727c0 .209.112.335.488.335h.182c.153 0 .182.056.182.125 0 .1-.07.127-.2.127-.405 0-.977-.043-1.369-.043-.126 0-.782.043-1.424.043-.154 0-.224-.029-.224-.127a.121.121 0 01.139-.125c.112 0 .252-.014.363-.014.558-.084.768-.447 1.02-1.048l3.213-7.416c.139-.335.237-.474.363-.474.182 0 .237.111.363.377.293.655 2.346 5.46 3.128 7.262.475 1.075.824 1.229 1.047 1.271a2.967 2.967 0 00.462.041c.111 0 .167.043.167.125 0 .1-.069.127-.53.127-.432 0-1.326 0-2.361-.029-.223-.014-.362-.014-.362-.1 0-.069.027-.111.154-.125a.186.186 0 00.112-.265l-.95-2.4a.116.116 0 00-.126-.083zm2.626-.657c.056 0 .07-.028.056-.07l-1.159-2.975c-.015-.042-.029-.111-.056-.111s-.056.07-.07.111l-1.187 2.961c-.027.056 0 .084.042.084z" data-name="Контур 3181"/>
	</g>
	<g data-name="Сгруппировать 5863">
		<g clip-path="url(#logo-s)" data-name="Сгруппировать 5862" transform="translate(0 .111)">
			<path fill="url(#logo-t)" d="M0 0h40.351v53.888H0z" data-name="Прямоугольник 437" transform="translate(-5.353)"/>
		</g>
	</g>
	<g data-name="Сгруппировать 5865">
		<g clip-path="url(#logo-u)" data-name="Сгруппировать 5864" transform="translate(25.396)">
			<path fill="url(#logo-v)" d="M0 0h28.157v14.689H0z" data-name="Прямоугольник 438"/>
		</g>
	</g>
</svg>
