<svg xmlns="http://www.w3.org/2000/svg" width="80" height="80.003" viewBox="0 0 80 80.003">
	<g data-name="user (3)">
		<path fill="#e7eced" d="M28.234 62.357l-11.8 6.648a10.611 10.611 0 00-1.893 1.392 38.537 38.537 0 0050.768.136 10.449 10.449 0 00-2.079-1.44l-12.635-6.524a5 5 0 01-2.663-4.451v-5.12a19.639 19.639 0 001.195-1.588 30.44 30.44 0 003.926-8.175 4.084 4.084 0 002.813-3.9v-5.466a4.14 4.14 0 00-1.321-3.026v-7.9s1.571-12.3-14.544-12.3-14.544 12.3-14.544 12.3v7.9a4.134 4.134 0 00-1.322 3.029v5.466a4.131 4.131 0 001.829 3.439 27.452 27.452 0 004.783 10.224v4.994a5.009 5.009 0 01-2.513 4.362z" data-name="Контур 3184"/>
		<g data-name="Сгруппировать 5897">
			<path fill="#214c9e" d="M40.685.006a39.845 39.845 0 00-26.423 70.382 10.629 10.629 0 011.9-1.346l11.933-6.492a4.86 4.86 0 002.54-4.268v-4.877a26.438 26.438 0 01-4.835-9.984 4 4 0 01-1.851-3.358v-5.338a3.98 3.98 0 011.337-2.958V24.05S23.693 12.042 40 12.042 54.718 24.05 54.718 24.05v7.716a3.975 3.975 0 011.337 2.958v5.338a4 4 0 01-2.847 3.808 29.3 29.3 0 01-3.973 7.984 19.259 19.259 0 01-1.209 1.55v5a4.857 4.857 0 002.694 4.347l12.78 6.374a10.644 10.644 0 012.1 1.4A39.857 39.857 0 0040.685.006z" data-name="Контур 3185"/>
		</g>
	</g>
</svg>
