<svg xmlns="http://www.w3.org/2000/svg" width="32.11" height="30.291" viewBox="0 0 32.11 30.291">
	<defs>
		<style>
			.a{fill:#d4e1f4}
		</style>
	</defs>
	<path d="M23.011 5.017a6.437 6.437 0 012.115-.032 5.62 5.62 0 012.02.657 4.521 4.521 0 00-3.118-1.619 6.438 6.438 0 00-2.115.032 10.469 10.469 0 01-1.215.121 5.427 5.427 0 001.191.958 10.9 10.9 0 001.122-.117zM19.224 18.419a9.152 9.152 0 00.409-5.328 1.369 1.369 0 00-.786-.876 1.425 1.425 0 00-.314-.093v.007a9.152 9.152 0 01-.409 5.328 16.829 16.829 0 01-1.153 2.706l-.012.019a.41.41 0 00-.071.236.426.426 0 00.4.4.535.535 0 00.19-.006 4.343 4.343 0 001.052-.63 17.828 17.828 0 00.694-1.763zM11.257 17.96l.015-.047a10.961 10.961 0 011.408-5.762c.076-.145.147-.279.214-.4a3.008 3.008 0 00.594-1.868 5.328 5.328 0 00-1.351-2.17 2.978 2.978 0 01-.537-2.3 4.87 4.87 0 011.142-2.517 3.786 3.786 0 012.208-1.283 4.533 4.533 0 013.092.705c.038.022.076.046.114.071a5.772 5.772 0 00-1.212-1.033 4.534 4.534 0 00-3.092-.705 3.786 3.786 0 00-2.208 1.283 4.87 4.87 0 00-1.142 2.517 2.979 2.979 0 00.537 2.3 5.328 5.328 0 011.351 2.17 3.01 3.01 0 01-.594 1.868l-.214.4c-1.061 2.029-1.919 4.894-1.148 6.852a.541.541 0 00.127.141.426.426 0 00.566.017.41.41 0 00.121-.214.158.158 0 00.009-.025z" class="a"/>
	<path fill="#214c9e" d="M31.827 16.068c-2.548-.888-4.682-.879-6.344.028-2.462 1.343-3.034 4.176-3.588 6.916-.487 2.411-.947 4.689-2.624 5.787-1.166.763-2.832.857-4.952.277a7.778 7.778 0 01-4.2-2.856 8.175 8.175 0 01-1.641-4.846 5.686 5.686 0 00-2.284-4.725c-2.51-1.688-5.823-.1-5.963-.029a.421.421 0 00.37.755c.03-.015 3.012-1.448 5.123-.029a4.853 4.853 0 011.913 4.038 9.011 9.011 0 001.81 5.341 8.611 8.611 0 004.646 3.161 10.329 10.329 0 002.708.4 5.236 5.236 0 002.927-.789c1.971-1.29 2.488-3.849 2.988-6.324.539-2.668 1.048-5.189 3.166-6.344 1.444-.788 3.35-.778 5.664.028a.421.421 0 00.277-.794z"/>
	<path fill="#74b1e0" d="M12.319 19.12a1.115 1.115 0 00.285-.571c.073-.287 1.3-4.95 4.045-6.6a.67.67 0 01.964.35c1.042 3.018-.955 7.383-1.08 7.651a1.1 1.1 0 00.966 1.648h.023a1.081 1.081 0 00.48-.091 6.768 6.768 0 002.667-2.692 14.786 14.786 0 001.52-3.631c.044-.16.083-.31.12-.449.222-.836.331-1.215.6-1.43a5.12 5.12 0 012.12-.553 3.774 3.774 0 002.543-1.868 6.074 6.074 0 00.931-3.369c-.084-2.466-1.8-4.067-4.593-4.282a6.981 6.981 0 00-2.3.189 8.728 8.728 0 01-1.5.221h-.006c-.092-.105-.2-.232-.319-.372a10.87 10.87 0 00-2.811-2.6c-2.349-1.208-4.628-.783-6.095 1.137-1.4 1.836-1.538 4.43-.3 5.783a5.1 5.1 0 011.29 1.769c.072.338-.083.7-.441 1.486l-.192.426a14.787 14.787 0 00-1.125 3.772 6.77 6.77 0 00.358 3.772 1.1 1.1 0 00.333.389 1.117 1.117 0 001.517-.085zm-1.078-.656c-.843-1.875-.154-4.763.774-6.843.067-.15.13-.29.19-.42a3.186 3.186 0 00.5-2.011 5.282 5.282 0 00-1.492-2.161c-.959-1.048-.8-3.2.349-4.7.576-.754 2.22-2.35 5.041-.9a10.3 10.3 0 012.555 2.394c.2.233.369.435.5.573a5.389 5.389 0 002.886 1.763.421.421 0 00.126-.832 3.6 3.6 0 01-1.766-.909c.337-.048.625-.11.891-.167a6.191 6.191 0 012.053-.172c2.357.182 3.749 1.447 3.817 3.472s-1.27 4.16-2.755 4.377a5.3 5.3 0 00-2.523.728 3.189 3.189 0 00-.89 1.872c-.036.138-.076.285-.119.443-.6 2.2-1.9 4.868-3.737 5.784a.579.579 0 01-.132.009.262.262 0 01-.24-.4q.009-.015.016-.031c.095-.2 2.306-4.875 1.122-8.3a1.491 1.491 0 00-.916-.918 1.524 1.524 0 00-.513-.089 1.481 1.481 0 00-.763.211c-3.125 1.873-4.382 6.919-4.434 7.133 0 .011 0 .023-.007.034a.262.262 0 01-.438.157.618.618 0 01-.1-.09z"/>
</svg>
