<svg xmlns="http://www.w3.org/2000/svg" width="22.321" height="29" viewBox="0 0 22.321 29">
	<defs>
		<style>
			.b{fill:#0635c9}.d{fill:#74b1e0}
		</style>
	</defs>
	<path fill="#d4e1f4" d="M11.614 11.853a5.125 5.125 0 011.991-9.519 5.2 5.2 0 00-.589-.035 5.124 5.124 0 10.582 10.215 5.1 5.1 0 01-1.984-.661z"/>
	<path d="M7.211 3.231a.354.354 0 00-.354-.354H2.57a.354.354 0 100 .707h4.29a.354.354 0 00.351-.353z" class="b"/>
	<path fill="#214c9e" d="M2.805 24.992c.083 0 .166 0 .247-.011h6.555v.992A3.026 3.026 0 0012.63 29h9.307a.358.358 0 00.354-.359.354.354 0 00-.354-.354h-.1a1.1 1.1 0 01-1-1.1V21.3a3.026 3.026 0 00-3.022-3.022h-4.431V12.9a.354.354 0 10-.707 0v5.38H7.609a2.709 2.709 0 00-2.706 2.706v1.2a2.1 2.1 0 11-4.2 0V.772a1.483 1.483 0 01.241.141 1.66 1.66 0 001.98 0 .96.96 0 011.189 0 1.661 1.661 0 001.98 0 .96.96 0 011.189 0 1.661 1.661 0 001.98 0 .96.96 0 011.189 0 1.662 1.662 0 001.981 0 1.482 1.482 0 01.241-.142v1.174a.354.354 0 10.707 0V.354A.354.354 0 0013.031 0a1.589 1.589 0 00-.99.327.961.961 0 01-1.19 0 1.661 1.661 0 00-1.98 0 .96.96 0 01-1.189 0 1.661 1.661 0 00-1.98 0 .96.96 0 01-1.189 0 1.661 1.661 0 00-1.98 0 .96.96 0 01-1.189 0A1.587 1.587 0 00.354 0 .354.354 0 000 .354v21.833a2.809 2.809 0 002.805 2.805zm15.006-6a2.318 2.318 0 012.316 2.308v5.888a1.8 1.8 0 00.371 1.1H12.63a2.318 2.318 0 01-2.315-2.315v-4.987a2.7 2.7 0 00-.883-2zm-12.2 3.2v-1.2a2 2 0 014 0v3.288H4.678a2.8 2.8 0 00.933-2.087z"/>
	<path d="M7.759 5.433H4.822a.354.354 0 100 .707h2.937a.354.354 0 100-.707zM3.541 5.433h-.97a.354.354 0 100 .707h.97a.354.354 0 000-.707zM4.823 8.693h2.76a.354.354 0 100-.707h-2.76a.354.354 0 100 .707zM3.541 7.986h-.97a.354.354 0 100 .707h.97a.354.354 0 000-.707zM4.823 11.246h3.939a.354.354 0 100-.707H4.823a.354.354 0 100 .707zM3.541 10.539h-.97a.354.354 0 100 .707h.97a.354.354 0 000-.707zM10.814 13.092H4.823a.354.354 0 100 .707h5.991a.354.354 0 100-.707zM3.541 13.092h-.97a.354.354 0 100 .707h.97a.354.354 0 000-.707zM10.814 15.351H4.823a.354.354 0 100 .707h5.991a.354.354 0 100-.707zM3.541 15.351h-.97a.354.354 0 100 .707h.97a.354.354 0 000-.707zM14.42 25.898h3.619a.354.354 0 000-.707H14.42a.354.354 0 100 .707zM12.206 25.898h1.006a.354.354 0 100-.707h-1.006a.354.354 0 100 .707zM14.42 23.835h3.619a.354.354 0 000-.707H14.42a.354.354 0 100 .707zM12.206 23.835h1.006a.354.354 0 100-.707h-1.006a.354.354 0 100 .707zM14.42 21.772h3.619a.354.354 0 000-.707H14.42a.354.354 0 100 .707zM12.206 21.772h1.006a.354.354 0 100-.707h-1.006a.354.354 0 100 .707z" class="b"/>
	<path d="M10.079 12.464a5.831 5.831 0 006.8-.674l1.684 1.684-.479.479a.354.354 0 000 .5l1.871 1.871a1.385 1.385 0 001.959-1.959l-1.871-1.871a.354.354 0 00-.5 0l-.479.48-1.685-1.684a5.828 5.828 0 10-7.3 1.174zm9.716.781l1.621 1.621a.678.678 0 01-.959.959l-1.621-1.621zm-10.4-9.444a5.129 5.129 0 110 7.247 5.124 5.124 0 010-7.247z" class="d"/>
	<path d="M10.45 7.281a2.124 2.124 0 01.5.318 1.168 1.168 0 010 .365c0 .047-.008.1-.012.151a3.583 3.583 0 00.645 2.536.565.565 0 00.229.137.573.573 0 00.759-.629 3.723 3.723 0 01.459-2.263 3.783 3.783 0 01.449 2.263.573.573 0 00.759.628.566.566 0 00.228-.136 3.585 3.585 0 00.645-2.536c0-.054-.008-.1-.012-.151a1.171 1.171 0 010-.365 2.136 2.136 0 01.5-.319 1.855 1.855 0 00.586-2.235 1.578 1.578 0 00-.752-.851 1.869 1.869 0 00-1.363-.079 2.458 2.458 0 00-.732.33 2.883 2.883 0 01-.3.171l-.039-.023a3.657 3.657 0 00-1.213-.51 1.7 1.7 0 00-1.959 1.153 1.727 1.727 0 00.64 2.043zm.033-1.828a.979.979 0 011.193-.668 3.23 3.23 0 01.952.421c.088.051.165.1.226.125a1.931 1.931 0 001.2.24.354.354 0 00-.038-.7 1.853 1.853 0 01.224-.075c.8-.218 1.132.156 1.271.508a1.174 1.174 0 01-.26 1.35c-.817.434-.931.613-.868 1.368 0 .045.008.093.012.145a3.459 3.459 0 01-.2 1.6 3.883 3.883 0 00-.626-2.318.7.7 0 00-1.089-.006 3.834 3.834 0 00-.64 2.324 3.459 3.459 0 01-.2-1.6c0-.052.008-.1.012-.146.064-.755-.05-.934-.868-1.367a1.064 1.064 0 01-.297-1.201z" class="d"/>
</svg>
