<svg xmlns="http://www.w3.org/2000/svg" width="34" height="14.902" viewBox="0 0 34 14.902">
	<path fill="#d4e1f4" d="M1.125 13.547h31.75v.968H1.125z"/>
	<path fill="#214c9e" d="M31.468 5.977a.415.415 0 10-.268.785 1.891 1.891 0 011.28 1.79v5.52H1.521v-5.52a1.889 1.889 0 011.155-1.743.415.415 0 10-.323-.764A2.716 2.716 0 00.692 8.552v5.934a.415.415 0 00.415.415h31.785a.415.415 0 00.415-.415V8.552a2.72 2.72 0 00-1.839-2.575z"/>
	<path fill="#74b1e0" d="M30.186.157a4.271 4.271 0 00-1.269.574 5.04 5.04 0 01-.683.372l-.174-.1a6.47 6.47 0 00-2.117-.9 2.821 2.821 0 00-3.31 1.938v.006a3.437 3.437 0 00-.114-.34A2.717 2.717 0 0018.952.154a4.271 4.271 0 00-1.269.574A5.036 5.036 0 0117 1.1l-.174-.1a6.47 6.47 0 00-2.118-.9 2.821 2.821 0 00-3.31 1.938v.006a3.444 3.444 0 00-.114-.34A2.717 2.717 0 007.717.151a4.27 4.27 0 00-1.269.574 5.047 5.047 0 01-.683.372l-.174-.1a6.47 6.47 0 00-2.118-.9 2.821 2.821 0 00-3.31 1.938 2.944 2.944 0 001.052 3.438 3.075 3.075 0 01.992.659c.078.126.064.336.025.8l-.022.273c-.055.714-.136 3.143 1.107 4.428a.825.825 0 001.4-.707c-.019-.207-.242-2.911.891-4.291a.222.222 0 01.336 0c1.113 1.389.892 4.083.873 4.29a.809.809 0 00.807.943.829.829 0 00.27-.045.806.806 0 00.326-.191c1.243-1.284 1.161-3.714 1.107-4.428-.007-.1-.015-.187-.022-.272-.039-.464-.053-.675.025-.8a3.09 3.09 0 01.992-.66 2.319 2.319 0 001.056-1.415 2.326 2.326 0 001.07 1.415 3.076 3.076 0 01.992.659c.078.126.064.336.025.8l-.022.273c-.055.714-.136 3.143 1.107 4.427a.825.825 0 001.4-.707c-.019-.206-.243-2.911.891-4.291a.222.222 0 01.336 0c1.113 1.389.892 4.083.873 4.29a.809.809 0 00.807.943.828.828 0 00.27-.045.807.807 0 00.326-.191c1.243-1.284 1.161-3.714 1.107-4.428-.007-.1-.015-.187-.022-.272-.039-.464-.053-.675.025-.8a3.09 3.09 0 01.992-.66 2.319 2.319 0 001.056-1.415 2.326 2.326 0 001.07 1.415 3.075 3.075 0 01.992.659c.078.126.064.336.025.8l-.022.273c-.055.714-.136 3.143 1.107 4.427a.825.825 0 001.4-.707c-.019-.206-.243-2.911.891-4.291a.222.222 0 01.336 0c1.113 1.389.892 4.083.873 4.29a.809.809 0 00.807.943.828.828 0 00.27-.045.806.806 0 00.326-.191c1.243-1.284 1.162-3.714 1.107-4.428-.007-.1-.015-.187-.022-.272-.039-.464-.053-.675.025-.8a3.089 3.089 0 01.992-.66c1.08-.573 1.528-2.336.959-3.772A2.715 2.715 0 0030.186.157zM9.935 4.747C8.477 5.521 8.379 5.798 8.48 7.01l.022.265a5.385 5.385 0 01-.852 3.762h-.009v-.009c.014-.13.317-3.2-1.049-4.906a1.051 1.051 0 00-1.624-.009c-1.394 1.7-1.087 4.786-1.074 4.916a.088.088 0 000 .01h-.009a5.384 5.384 0 01-.852-3.762c.007-.1.015-.184.022-.267.1-1.212 0-1.489-1.455-2.262a2.133 2.133 0 01-.65-2.453A2.062 2.062 0 013.361.927a6 6 0 011.812.793c.157.091.293.169.4.221a3.3 3.3 0 002.04.417.415.415 0 10-.159-.814 1.625 1.625 0 01-.7-.032l.126-.078A3.474 3.474 0 017.931.956a1.9 1.9 0 012.578 1.058 2.334 2.334 0 01-.574 2.733zm11.236 0c-1.458.774-1.556 1.051-1.455 2.263l.022.265a5.386 5.386 0 01-.852 3.762h-.009v-.009c.014-.13.317-3.2-1.049-4.906a1.051 1.051 0 00-1.624-.009c-1.394 1.7-1.087 4.785-1.074 4.916a.088.088 0 000 .01h-.009a5.383 5.383 0 01-.852-3.762c.007-.1.015-.184.022-.267.1-1.212 0-1.489-1.455-2.262a2.133 2.133 0 01-.65-2.453A2.062 2.062 0 0114.597.927a6 6 0 011.812.793c.157.091.293.169.4.221a3.3 3.3 0 002.04.417.415.415 0 10-.159-.814 1.625 1.625 0 01-.7-.032l.126-.078a3.473 3.473 0 011.05-.478 1.9 1.9 0 012.578 1.058 2.334 2.334 0 01-.574 2.733zm11.236 0c-1.458.774-1.556 1.051-1.455 2.263l.022.265a5.386 5.386 0 01-.852 3.762h-.009v-.009c.014-.13.317-3.2-1.049-4.906a1.051 1.051 0 00-1.624-.009c-1.394 1.7-1.087 4.785-1.074 4.916a.053.053 0 000 .01h-.009a5.384 5.384 0 01-.852-3.762c.007-.1.015-.184.022-.267.1-1.212 0-1.489-1.455-2.262a2.133 2.133 0 01-.65-2.453A2.062 2.062 0 0125.833.927a6 6 0 011.812.793c.157.091.293.169.4.221a3.3 3.3 0 002.04.417.415.415 0 10-.159-.814 1.625 1.625 0 01-.7-.032l.126-.078a3.473 3.473 0 011.05-.478 1.9 1.9 0 012.578 1.058 2.333 2.333 0 01-.576 2.733z"/>
</svg>
