<svg xmlns="http://www.w3.org/2000/svg" width="26.824" height="29.41" viewBox="0 0 26.824 29.41">
	<defs>
		<style>
			.a{fill:#d4e1f4}.b{fill:#74b1e0}
		</style>
	</defs>
	<path d="M18.777 7.484a8.04 8.04 0 012.436-1.107 6.949 6.949 0 012.667-.244 5.6 5.6 0 00-4.417-.339 8.038 8.038 0 00-2.436 1.107 13.1 13.1 0 01-1.349.758 6.73 6.73 0 001.856.531 13.659 13.659 0 001.243-.706zM20.169 25.039a11.928 11.928 0 00-2.166-6.51 1.713 1.713 0 00-1.346-.639 1.764 1.764 0 00-.41.048l.006.007a11.928 11.928 0 012.166 6.51 22.093 22.093 0 010 3.784v.029a.519.519 0 00.7.586.667.667 0 00.218-.1 5.584 5.584 0 00.908-1.277 23.383 23.383 0 00-.076-2.438zM11.356 28.241c0-.007 0-.028-.006-.063a14.356 14.356 0 01-1.222-7.528c.016-.209.032-.4.048-.586a3.944 3.944 0 00-.237-2.51 6.729 6.729 0 00-2.642-1.884 3.824 3.824 0 01-1.763-2.452 6.388 6.388 0 01.077-3.554A4.863 4.863 0 017.534 7.03a5.619 5.619 0 013.934-.729c.055.007.111.016.167.026a7.178 7.178 0 00-1.917-.609 5.622 5.622 0 00-3.934.729 4.864 4.864 0 00-1.923 2.634 6.387 6.387 0 00-.077 3.555 3.825 3.825 0 001.763 2.452 6.725 6.725 0 012.642 1.884 3.944 3.944 0 01.237 2.51c-.015.182-.032.376-.048.586-.224 2.936.2 6.759 2.064 8.686a.678.678 0 00.217.1.519.519 0 00.7-.586.237.237 0 010-.028z" class="a"/>
	<path d="M4.116 1.149a.374.374 0 10-.657.358l1.149 2.108a.374.374 0 00.657-.358zM8.968.012a.374.374 0 00-.458.264l-.748 2.788a.374.374 0 10.722.194L9.232.47a.374.374 0 00-.264-.459zM3.167 5.765L.478 4.99a.374.374 0 00-.207.718l2.689.775a.374.374 0 10.207-.718z" class="b"/>
	<path fill="#214c9e" d="M23.862 5.313a6.366 6.366 0 00-4.629-.238 8.685 8.685 0 00-2.608 1.181 11.164 11.164 0 01-1.707.91.654.654 0 00-.071.035c-.17-.093-.38-.214-.612-.348a13.619 13.619 0 00-4.389-1.875C6.62 4.55 4.155 5.983 3.251 8.811c-.866 2.71.041 5.769 2.023 6.818a6.482 6.482 0 012.347 1.612c.266.431.218 1.006.13 2.051-.015.182-.032.377-.048.587-.114 1.49-.288 6.554 2.249 9.176a1.249 1.249 0 00.5.282 1.275 1.275 0 00.415.07 1.229 1.229 0 001.227-1.444c-.031-.326-.579-6.494 2.043-9.685a1 1 0 011.539.008c2.573 3.211 2.031 9.352 2 9.678a1.284 1.284 0 002.141 1.1c2.538-2.622 2.363-7.687 2.249-9.177l-.047-.584c-.088-1.046-.136-1.622.13-2.052a6.5 6.5 0 012.347-1.614 4.613 4.613 0 002.151-3.2 7.509 7.509 0 00-.317-4.31 5.2 5.2 0 00-2.468-2.814zM3.962 9.04c.377-1.179 1.695-3.862 5.784-3.32.076.01.153.023.231.038l.072 1.484a1.268 1.268 0 01-1.267 1.33 2.013 2.013 0 00-1.985 1.666l-.069.39a1.266 1.266 0 01-1.414 1.035l-1.619-.213a6.339 6.339 0 01.269-2.41zm21.953 3.228a3.943 3.943 0 01-1.772 2.7c-2.987 1.585-3.076 1.957-2.871 4.39l.047.578c.222 2.908-.2 6.694-2.04 8.6a.674.674 0 01-.206.1.5.5 0 01-.628-.254.507.507 0 01-.032-.3v-.031a21.953 21.953 0 000-3.761 11.863 11.863 0 00-2.159-6.475 1.751 1.751 0 00-2.7-.015c-2.879 3.5-2.236 9.977-2.207 10.251v.03a.488.488 0 01-.66.551.7.7 0 01-.205-.1c-1.844-1.905-2.264-5.692-2.041-8.6l.047-.581c.2-2.434.116-2.805-2.872-4.387a3.77 3.77 0 01-1.737-2.418 6.135 6.135 0 01-.08-.331l1.409.186a2.036 2.036 0 00.267.018 2.012 2.012 0 001.981-1.666l.069-.39a1.267 1.267 0 011.249-1.048 2.016 2.016 0 002.014-2.114l-.06-1.243a18.54 18.54 0 013.124 1.539c.332.192.619.358.832.463a6.149 6.149 0 004.081.857.374.374 0 10-.143-.734 5.006 5.006 0 01-2.9-.468 13.268 13.268 0 001.288-.728 7.956 7.956 0 012.41-1.1c2.967-.809 5.228.139 6.2 2.6a6.739 6.739 0 01.283 3.87z"/>
</svg>
