<svg xmlns="http://www.w3.org/2000/svg" width="28.611" height="29.723" viewBox="0 0 28.611 29.723">
	<defs>
		<style>
			.a{fill:#d4e1f4}.b{fill:#214c9e}
		</style>
	</defs>
	<path d="M13.804 28.887a10.226 10.226 0 01.242-3.279c0-.216.01-.428.025-.631l.023-.278c.105-1.251.013-1.51-1.488-2.3a2.273 2.273 0 01-.7-2.616 1.976 1.976 0 011.5-1.421 1.951 1.951 0 00-.2-.04 2.2 2.2 0 00-2.567 1.46 2.273 2.273 0 00.7 2.616c1.5.794 1.593 1.053 1.488 2.3l-.023.278c-.1 1.346.082 3.089.908 3.965l.038.015a.047.047 0 00.054-.013.043.043 0 000-.026.098.098 0 000-.03zM17.786 23.816a1.044 1.044 0 00-1.442-.171 1.019 1.019 0 01.176.171c1.41 1.759 1.1 4.937 1.082 5.072v.031a.043.043 0 000 .026.047.047 0 00.054.013l.038-.015a5.081 5.081 0 00.934-3.351 4.778 4.778 0 00-.842-1.776z" class="a"/>
	<path d="M28.366 9.153l-6.739-2.564 2.514-.462a2.822 2.822 0 002.315-3.212.38.38 0 00-.455-.311l-9.294 2.025a2.754 2.754 0 00-1.211-.523l-6.06-1.12a3.805 3.805 0 00-1.852.12l-.107.034H6.166l.4-1.983a.38.38 0 00-.3-.447L2.747.01a.38.38 0 00-.447.3L.007 11.765a.38.38 0 00.3.447l3.519.7a.38.38 0 00.447-.3l.349-1.745.9.111a4.476 4.476 0 003.27 2l-.564 5.787a.38.38 0 00.378.417h.028a3.72 3.72 0 003.421-3.292l.3-2.657c.091-.81.216-1.627.37-2.429a2.459 2.459 0 014.524.678l.8 3.462a4.49 4.49 0 003.225 3.332.38.38 0 00.471-.436l-1.086-5.881 1.974 2.3a3.236 3.236 0 003.972.76.38.38 0 00.12-.574l-3.163-3.953 1.3.55a2.788 2.788 0 001.155.25 2.823 2.823 0 002.557-1.622.38.38 0 00-.209-.516zm-4.352-3.774h-.006l-5.319.978-1.263-1.108 8.3-1.81a2.062 2.062 0 01-1.716 1.938zM3.601 12.096l-2.774-.555L2.969.827l2.774.555zm15.19 2.682l-.8-3.462a3.219 3.219 0 00-5.958-.822.38.38 0 00-.04.11c-.163.841-.295 1.7-.391 2.549l-.3 2.657a2.961 2.961 0 01-2.269 2.549l.555-5.693a.38.38 0 00-.371-.417 3.728 3.728 0 01-3.142-1.819.38.38 0 00-.279-.182l-1.025-.126 1.244-6.224h1.522a.379.379 0 00.117-.018l.164-.053a3.042 3.042 0 011.481-.1l6.063 1.12h.007a2 2 0 01.992.469l2.127 1.867a2.379 2.379 0 01.767 1.35l1.627 8.8a3.731 3.731 0 01-2.089-2.558zm7.025-.255a2.478 2.478 0 01-2.607-.764l-2.46-2.861-.363-.416-.268-1.45 1.975.835zm-.643-4.176h-.01l-5.226-2.209a3.149 3.149 0 00-.581-1.128l.83-.153 7.488 2.848a2.061 2.061 0 01-2.5.645z" class="b"/>
	<path d="M3.982 1.938a1.037 1.037 0 101.033 1.037 1.037 1.037 0 00-1.037-1.037zm0 1.314a.277.277 0 11.277-.277.277.277 0 01-.277.277z" class="b"/>
	<path fill="#74b1e0" d="M13.768 29.72a.791.791 0 00.789-.924c-.019-.207-.257-3.052.939-4.508a.283.283 0 01.43 0c1.175 1.466.939 4.3.92 4.506a.818.818 0 001.372.693c1.279-1.322 1.195-3.832 1.138-4.57l-.023-.283c-.042-.5-.056-.721.033-.866a3.16 3.16 0 011.053-.706c1.1-.585 1.558-2.39.975-3.863a2.8 2.8 0 00-3.652-1.586 4.4 4.4 0 00-1.308.591 5.317 5.317 0 01-.741.4l-.2-.117a6.706 6.706 0 00-2.186-.927 2.889 2.889 0 00-3.39 1.982 3.012 3.012 0 001.07 3.519 3.142 3.142 0 011.053.7c.09.145.075.37.033.865l-.023.284a9.057 9.057 0 00.13 2.423 4.232 4.232 0 001.008 2.147.79.79 0 00.319.186.813.813 0 00.261.054zm-.964-4.743l.023-.278c.105-1.251.013-1.51-1.488-2.3a2.274 2.274 0 01-.7-2.616 2.2 2.2 0 012.567-1.46 6.177 6.177 0 011.906.832c.163.094.3.175.411.229a3.388 3.388 0 002.091.43.38.38 0 10-.146-.746 1.839 1.839 0 01-.868-.066c.084-.049.161-.1.236-.144a3.668 3.668 0 011.107-.5c1.8-.492 2.5.5 2.747 1.133.434 1.1.131 2.512-.625 2.913-1.5.8-1.592 1.055-1.488 2.306l.023.277c.1 1.346-.082 3.089-.908 3.965l-.038.015a.047.047 0 01-.054-.013.043.043 0 010-.026v-.031c.014-.134.328-3.313-1.082-5.072a1.042 1.042 0 00-1.61-.009c-1.438 1.751-1.12 4.946-1.107 5.081v.031a.043.043 0 010 .026.046.046 0 01-.054.013l-.038-.015c-.826-.876-1.011-2.619-.909-3.965z"/>
</svg>
