<svg xmlns="http://www.w3.org/2000/svg" width="35.712" height="30.022" viewBox="0 0 35.712 30.022">
	<defs>
		<style>
			.a{fill:#d4e1f4}.b{fill:#214c9e}
		</style>
	</defs>
	<path d="M22.148 4.961a8.044 8.044 0 00-2.437 1.107 13.09 13.09 0 01-1.35.759 6.732 6.732 0 001.857.531 13.671 13.671 0 001.243-.707 8.044 8.044 0 012.437-1.107q.158-.043.313-.08l.056-.788a7.435 7.435 0 00-2.119.285zM14.036 27.423c0-.007 0-.028-.006-.063a14.364 14.364 0 01-1.223-7.532c.016-.209.032-.4.048-.586a3.945 3.945 0 00-.238-2.511 6.73 6.73 0 00-2.644-1.885 3.827 3.827 0 01-1.764-2.454 6.392 6.392 0 01.077-3.557 4.866 4.866 0 011.925-2.636 5.624 5.624 0 013.936-.73c.055.007.111.016.167.026a7.175 7.175 0 00-1.918-.61 5.624 5.624 0 00-3.936.73 4.867 4.867 0 00-1.924 2.636 6.391 6.391 0 00-.077 3.557 3.827 3.827 0 001.764 2.454 6.731 6.731 0 012.644 1.885 3.946 3.946 0 01.238 2.511c-.015.181-.032.376-.048.586-.225 2.938.2 6.763 2.065 8.691a.678.678 0 00.217.1.519.519 0 00.7-.586l-.003-.026z" class="a"/>
	<path d="M1.401 21.579a3.147 3.147 0 013.65.2 4.029 4.029 0 005.623-.593l.8-.981a.435.435 0 00-.674-.551l-.8.981a3.156 3.156 0 01-4.4.465 4.018 4.018 0 00-4.661-.26l-.735.465a.436.436 0 10.466.736zM35.365 20.171l-2.255-.467a4 4 0 00-2.911.509 3.148 3.148 0 01-3.169.068l-1.314-.729a.436.436 0 00-.423.762l1.314.729a4.02 4.02 0 004.047-.087 3.132 3.132 0 012.279-.4l2.255.467a.436.436 0 10.176-.853z" class="b"/>
	<path fill="#74b1e0" d="M8.168 15.455a6.829 6.829 0 012.459 1.686c.263.425.23.963.131 2.139l-.05.619c-.12 1.576-.3 6.933 2.384 9.711a1.369 1.369 0 002.328-1.192c-.034-.357-.609-6.831 2.145-10.184a1.017 1.017 0 011.56.008c2.7 3.369 2.135 9.819 2.1 10.177a1.337 1.337 0 001.334 1.575 1.386 1.386 0 00.452-.076 1.354 1.354 0 00.543-.308c2.689-2.778 2.5-8.135 2.384-9.711l-.05-.616c-.1-1.177-.132-1.715.131-2.139a6.853 6.853 0 012.459-1.688 4.544 4.544 0 002.058-2.594 7.864 7.864 0 00.343-3.665 5.708 5.708 0 00-4.366-5.15.436.436 0 10-.181.852 4.871 4.871 0 013.684 4.419c.328 2.338-.49 4.6-1.946 5.368-1.6.849-2.383 1.34-2.792 2a4.17 4.17 0 00-.259 2.671l.05.61c.234 3.058-.206 7.039-2.138 9.035a.715.715 0 01-.2.094.488.488 0 01-.611-.245.493.493 0 01-.032-.289c0-.012 0-.024.005-.036.03-.288.7-7.1-2.286-10.827a1.888 1.888 0 00-2.912-.016c-3.048 3.71-2.368 10.553-2.337 10.843 0 .012 0 .024.005.036a.494.494 0 01-.031.289.488.488 0 01-.611.245.8.8 0 01-.2-.09c-1.936-2-2.375-5.981-2.141-9.039l.05-.612a4.169 4.169 0 00-.259-2.67c-.409-.661-1.192-1.15-2.792-2-1.722-.912-2.515-3.754-1.731-6.206.394-1.234 1.773-4.041 6.056-3.473a13.8 13.8 0 014.324 1.874c.351.2.654.377.879.49 2.269 1.128 3.559 1.059 4.331.908a.436.436 0 10-.167-.855 5.16 5.16 0 01-2.95-.456 14.448 14.448 0 001.28-.73 8.793 8.793 0 014.158-1.436.436.436 0 00-.06-.869 9.287 9.287 0 00-1.8.314 9.191 9.191 0 00-2.762 1.251 11.726 11.726 0 01-1.8.957.636.636 0 00-.059.028c-.176-.1-.389-.219-.625-.356a14.4 14.4 0 00-4.645-1.983c-3.424-.454-6.041 1.068-7 4.071-.92 2.878.046 6.126 2.153 7.241z"/>
	<path d="M13.95 16.986a5.366 5.366 0 00-.743 1.331.432.432 0 00-.034.092 5.349 5.349 0 00-.309 2.244l.615 8.839a.436.436 0 00.434.405h.031a.436.436 0 00.4-.465l-.47-6.755a9.246 9.246 0 01.292-1.757c.215-.782.628-1.763 1.375-1.991a.436.436 0 10-.255-.833 2.647 2.647 0 00-1.512 1.424 4.515 4.515 0 01.215-.82 11.51 11.51 0 00.7-1.256c.057-.072.116-.143.178-.212l.293-.324a4.484 4.484 0 017.807 3.24l-.009.2a2.066 2.066 0 00-1.4-.934.436.436 0 10-.146.859c1.488.253 1.4 3.181 1.4 3.216l-.277 5.953a.436.436 0 10.87.041l.194-4.174a.432.432 0 00.081-.192l3.617-23.5a1.409 1.409 0 10-2.8-.314l-1.161 16.346a5.356 5.356 0 00-8-2.069 2.479 2.479 0 00-.636-2.5.436.436 0 00-.563.665c.662.56.411 1.713.085 2.581a5.853 5.853 0 01-.272.66zm10.978-9.305l.552.069-1.034 6.711zm1.065-3.265l-.825-.1.026-.362.855.106zm-.133.861l-.058.375-.724-.091.027-.379zm-.19 1.236l-.058.375-.622-.078.027-.379zm.211-5.649h.033a.537.537 0 01.531.619l-.264 1.714-.925-.115.122-1.719a.539.539 0 01.5-.5z" class="b"/>
</svg>
