<svg xmlns="http://www.w3.org/2000/svg" width="30.858" height="29.251" viewBox="0 0 30.858 29.251">
	<defs>
		<style>
			.a{fill:#d4e1f4}.d{fill:#74b1e0}
		</style>
	</defs>
	<path d="M17.617 2.979a4.4 4.4 0 011.333-.606 3.8 3.8 0 011.459-.133 3.064 3.064 0 00-2.417-.186 4.4 4.4 0 00-1.333.606 7.173 7.173 0 01-.738.415 3.682 3.682 0 001.015.291 7.467 7.467 0 00.681-.387zM18.378 12.581a6.523 6.523 0 00-1.185-3.562.937.937 0 00-.736-.349.962.962 0 00-.224.027 6.527 6.527 0 011.185 3.562 12.1 12.1 0 010 2.071v.016a.284.284 0 00.383.32.367.367 0 00.119-.056 3.058 3.058 0 00.5-.7 12.8 12.8 0 00-.042-1.329zM13.556 14.332v-.035a7.855 7.855 0 01-.669-4.119l.026-.32a2.158 2.158 0 00-.13-1.374 3.681 3.681 0 00-1.446-1.031 2.093 2.093 0 01-.965-1.342 3.5 3.5 0 01.042-1.945 2.661 2.661 0 011.053-1.441 3.074 3.074 0 012.152-.4l.092.014a3.924 3.924 0 00-1.049-.333 3.076 3.076 0 00-2.152.4 2.664 2.664 0 00-1.053 1.441 3.5 3.5 0 00-.042 1.945 2.093 2.093 0 00.965 1.342 3.68 3.68 0 011.446 1.031 2.158 2.158 0 01.13 1.374l-.026.32c-.123 1.606.109 3.7 1.129 4.753a.372.372 0 00.119.056.284.284 0 00.383-.32.043.043 0 01-.005-.016z" class="a"/>
	<path fill="#214c9e" d="M30.8 17.568a2.545 2.545 0 00-3.394-.928l-.165.089a2.178 2.178 0 00-2.59-.654h-.009l-.38.2a2.834 2.834 0 00-3.251-.3L19 17.088h-2.69a3.885 3.885 0 01-1.681-.385l-.369-.178a6.322 6.322 0 00-6.58.643l-.025.02-.891.793a3.1 3.1 0 01-1.178.655l-.509-1.669a.392.392 0 00-.375-.278H.392a.392.392 0 00-.389.44l1.436 11.778a.392.392 0 00.389.345h6.464a.392.392 0 00.375-.507l-.851-2.793 2.651-1.676a1.6 1.6 0 011.168-.151l.024.005 5.38.991a6.954 6.954 0 004.3-.607.376.376 0 00.048-.028l9.305-6.389a.392.392 0 00.108-.529zm-5.79-.795a1.371 1.371 0 011.521.339l-3.543 1.912-.216.114a3.049 3.049 0 00-.492-.894zm-3.618-.1l.009-.005a2.049 2.049 0 012.1.028l-1.812.976a3.039 3.039 0 00-1.17-.523zM2.176 28.468l-1.341-11h3.576l3.352 11zm18.786-4.643a6.165 6.165 0 01-3.783.526l-5.367-.988a2.383 2.383 0 00-1.738.235l-.018.011-2.478 1.567-1.764-5.787a3.884 3.884 0 001.471-.82l.879-.782a5.54 5.54 0 015.754-.554l.369.178a4.673 4.673 0 002.023.464h3.58a2.273 2.273 0 012.231 1.857l-2.605-.118a15.521 15.521 0 00-2.821.13.392.392 0 10.107.777 14.721 14.721 0 012.678-.124l3.053.138h.018a.392.392 0 00.392-.392c0-.067 0-.133-.007-.2l.424-.223 4.422-2.386a1.762 1.762 0 012.127.347z"/>
	<path fill="#0635c9" d="M3.468 26.798a1.254 1.254 0 101.256-1.254 1.254 1.254 0 00-1.256 1.254zm1.254-.47a.47.47 0 11-.47.47.47.47 0 01.472-.469z"/>
	<path d="M10.122 7.658a3.553 3.553 0 011.2.809c.108.174.091.432.043 1l-.026.32a10.193 10.193 0 00.146 2.728 4.749 4.749 0 001.13 2.408.859.859 0 00.346.2.88.88 0 00.287.048.857.857 0 00.855-1c-.021-.226-.294-3.462 1.069-5.122a.357.357 0 01.544 0c1.339 1.671 1.068 4.894 1.048 5.12a.887.887 0 001.487.753 4.747 4.747 0 001.13-2.408 10.2 10.2 0 00.146-2.728l-.026-.319c-.048-.568-.064-.827.043-1a3.571 3.571 0 011.2-.811c1.23-.653 1.737-2.671 1.084-4.319-.645-1.629-2.171-2.291-4.083-1.77a4.942 4.942 0 00-1.468.664 5.986 5.986 0 01-.859.463l-.247-.141a7.541 7.541 0 00-2.456-1.043 3.225 3.225 0 00-3.791 2.214 3.366 3.366 0 001.198 3.934zm-.444-3.693a2.466 2.466 0 012.941-1.675 7 7 0 012.167.945c.183.106.342.2.463.257a3.8 3.8 0 002.34.482.392.392 0 10-.15-.77 2.181 2.181 0 01-1.079-.1c.123-.071.234-.139.339-.2a4.17 4.17 0 011.261-.574c2.067-.564 2.859.574 3.148 1.3.5 1.255.146 2.877-.723 3.338a3.7 3.7 0 00-1.5 1.09 2.289 2.289 0 00-.158 1.479c.008.1.017.2.025.313.117 1.532-.1 3.517-1.041 4.514a.483.483 0 01-.053.021.087.087 0 01-.107-.035.084.084 0 01-.005-.051v-.032c.016-.151.369-3.728-1.214-5.7a1.141 1.141 0 00-1.762-.01c-1.615 1.966-1.258 5.562-1.242 5.714v.032a.086.086 0 01-.005.051.087.087 0 01-.107.035.483.483 0 01-.054-.021c-.946-1-1.158-2.982-1.041-4.514l.026-.314a2.287 2.287 0 00-.158-1.479 3.686 3.686 0 00-1.5-1.09 2.606 2.606 0 01-.813-3.007zM28.411 4.847a.392.392 0 00-.392-.392h-2.285a.393.393 0 100 .785h2.284a.392.392 0 00.393-.393zM24.879 2.502a.391.391 0 00.235-.078L27.398.713a.392.392 0 10-.47-.628l-2.284 1.711a.392.392 0 00.235.706zM24.643 7.895l2.284 1.711a.392.392 0 00.47-.628l-2.284-1.711a.392.392 0 10-.47.628zM5.517 4.847a.392.392 0 00-.392-.392H2.84a.393.393 0 000 .785h2.284a.392.392 0 00.393-.393zM6.294 7.35a.392.392 0 00-.549-.079L3.461 8.982a.392.392 0 00.47.628l2.284-1.711a.392.392 0 00.079-.549zM3.461.712l2.284 1.711a.393.393 0 10.471-.628L3.931.083a.392.392 0 10-.47.628z" class="d"/>
</svg>
