<svg xmlns="http://www.w3.org/2000/svg" width="20.444" height="30.138" viewBox="0 0 20.444 30.138">
	<defs>
		<style>
			.a{fill:#d4e1f4}.c{fill:#74b1e0}
		</style>
	</defs>
	<path d="M13.142 2.335a6.649 6.649 0 012.015-.916 5.747 5.747 0 012.206-.2A4.63 4.63 0 0013.71.938a6.65 6.65 0 00-2.015.915 10.832 10.832 0 01-1.116.627 5.566 5.566 0 001.535.439 11.307 11.307 0 001.028-.584zM5.648.874a4.649 4.649 0 00-3.254.6A4.023 4.023 0 00.803 3.653a5.284 5.284 0 00-.064 2.94 3.164 3.164 0 001.458 2.029 5.56 5.56 0 012.186 1.559 3.263 3.263 0 01.2 2.076l-.039.484a15.884 15.884 0 00.206 4.045l1.37.047a16.375 16.375 0 01-.128-3.61l.039-.484a3.262 3.262 0 00-.2-2.076 5.563 5.563 0 00-2.186-1.559 3.163 3.163 0 01-1.458-2.029 5.283 5.283 0 01.064-2.94 4.023 4.023 0 011.591-2.179 4.649 4.649 0 013.254-.6c.046.006.092.014.138.022A5.937 5.937 0 005.648.874z" class="a"/>
	<path fill="#214c9e" d="M20.017 2.909C19.052.471 16.76-.516 13.886.267a7.44 7.44 0 00-2.235 1.012 9.361 9.361 0 01-1.431.763l-.018.008c-.134-.074-.293-.166-.468-.267A11.609 11.609 0 005.98.183C3.195-.186 1.066 1.054.28 3.5c-.748 2.341.043 4.986 1.763 5.9a5.463 5.463 0 011.947 1.328c.2.322.173.746.1 1.674-.013.154-.027.32-.04.5a16.459 16.459 0 00.224 4.307.42.42 0 00.412.337h.554l1.355 12.228a.42.42 0 00.418.374h6.427a.42.42 0 00.418-.374l1.355-12.227h.546a.42.42 0 00.411-.333 15.653 15.653 0 00.248-4.312l-.04-.5c-.078-.928-.1-1.352.1-1.674a5.487 5.487 0 011.947-1.33 4.006 4.006 0 001.874-2.777 6.464 6.464 0 00-.274-3.71zM13.06 29.301H7.386l-1.3-11.761h8.282zm6.411-22.866a3.238 3.238 0 01-1.449 2.216 5.65 5.65 0 00-2.268 1.63 3.391 3.391 0 00-.218 2.187l.04.489a15.105 15.105 0 01-.167 3.74H5.032a15.973 15.973 0 01-.148-3.74c.013-.176.027-.339.04-.491a3.39 3.39 0 00-.218-2.186 5.633 5.633 0 00-2.268-1.628c-1.354-.717-1.975-2.96-1.356-4.9.311-.973 1.4-3.189 4.785-2.74a11.018 11.018 0 013.445 1.5c.283.163.527.3.71.4a5.737 5.737 0 003.522.735.42.42 0 00-.161-.825 3.937 3.937 0 01-2.184-.3c.348-.18.632-.356.894-.519a6.651 6.651 0 012.014-.916c2.456-.669 4.325.111 5.129 2.141a5.6 5.6 0 01.235 3.203z"/>
	<path d="M15.45 26.017l-10.616 2.1a.42.42 0 10.163.824l10.618-2.1a.42.42 0 10-.163-.824zM15.45 23.974l-10.618 2.1a.42.42 0 10.163.824l10.618-2.1a.42.42 0 10-.163-.824zM15.45 21.933l-10.618 2.1a.42.42 0 00.081.832.426.426 0 00.082-.008l10.618-2.1a.42.42 0 10-.163-.824zM15.449 19.892l-10.618 2.1a.42.42 0 00.081.832.426.426 0 00.082-.008l10.618-2.1a.42.42 0 00-.163-.824zM4.913 20.778a.423.423 0 00.082-.008l10.618-2.1a.42.42 0 10-.163-.824l-10.618 2.1a.42.42 0 00.081.832z" class="c"/>
</svg>
