<svg xmlns="http://www.w3.org/2000/svg" width="31.359" height="29.725" viewBox="0 0 31.359 29.725">
	<defs>
		<style>
			.a{fill:#d4e1f4}.b{fill:#214c9e}.c{fill:#74b1e0}
		</style>
	</defs>
	<path d="M17.903 3.023a4.47 4.47 0 011.354-.615 3.863 3.863 0 011.483-.135 3.114 3.114 0 00-2.456-.189 4.471 4.471 0 00-1.354.615 7.289 7.289 0 01-.75.422 3.742 3.742 0 001.032.3 7.592 7.592 0 00.691-.398zM18.676 12.785a6.628 6.628 0 00-1.2-3.62.952.952 0 00-.748-.355.977.977 0 00-.228.027 6.632 6.632 0 011.2 3.62 12.287 12.287 0 010 2.1v.016a.288.288 0 00.39.326.374.374 0 00.121-.057 3.107 3.107 0 00.5-.71 12.993 12.993 0 00-.035-1.347zM13.776 14.565v-.035a7.982 7.982 0 01-.68-4.186l.027-.326a2.193 2.193 0 00-.132-1.4 3.74 3.74 0 00-1.469-1.048 2.127 2.127 0 01-.98-1.364 3.553 3.553 0 01.043-1.976 2.7 2.7 0 011.07-1.465 3.124 3.124 0 012.187-.405l.093.015a3.988 3.988 0 00-1.066-.339 3.126 3.126 0 00-2.187.405 2.707 2.707 0 00-1.07 1.465 3.552 3.552 0 00-.043 1.976 2.127 2.127 0 00.98 1.364 3.74 3.74 0 011.469 1.048 2.193 2.193 0 01.132 1.4l-.027.326c-.125 1.632.111 3.758 1.148 4.83a.378.378 0 00.121.057.288.288 0 00.39-.326.04.04 0 01-.006-.016z" class="a"/>
	<path d="M31.3 17.857a2.586 2.586 0 00-3.449-.943l-.168.091a2.213 2.213 0 00-2.632-.664h-.009l-.386.208a2.88 2.88 0 00-3.3-.3L19.3 17.365h-2.725a3.947 3.947 0 01-1.709-.391l-.375-.181a6.425 6.425 0 00-6.687.653l-.025.021-.906.806a3.15 3.15 0 01-1.2.665l-.517-1.7a.4.4 0 00-.381-.282H.4a.4.4 0 00-.4.447l1.46 11.969a.4.4 0 00.4.35h6.569a.4.4 0 00.381-.515l-.865-2.838 2.694-1.7a1.628 1.628 0 011.187-.154l.025.005 5.467 1.007a7.066 7.066 0 004.366-.616.386.386 0 00.049-.029l9.456-6.492a.4.4 0 00.111-.533zm-5.884-.808a1.393 1.393 0 011.546.344l-3.6 1.943-.22.116a3.1 3.1 0 00-.5-.908zm-3.677-.1l.009-.005a2.082 2.082 0 012.131.028l-1.841.992a3.088 3.088 0 00-1.189-.531zM2.21 28.929L.848 17.757h3.634l3.406 11.172zM21.3 24.21a6.266 6.266 0 01-3.844.534l-5.454-1a2.422 2.422 0 00-1.766.239l-.018.011L7.7 25.582l-1.793-5.88a3.948 3.948 0 001.495-.834l.893-.795a5.63 5.63 0 015.847-.563l.375.181a4.748 4.748 0 002.056.471h3.637a2.309 2.309 0 012.267 1.887l-2.647-.12a15.772 15.772 0 00-2.867.132.4.4 0 10.109.79 14.964 14.964 0 012.722-.126l3.1.14h.018a.4.4 0 00.4-.4c0-.068 0-.135-.007-.2l.431-.227 4.494-2.424a1.79 1.79 0 012.161.353z" class="b"/>
	<path d="M3.524 27.232a1.274 1.274 0 101.274-1.274 1.274 1.274 0 00-1.274 1.274zm1.274-.477a.477.477 0 11-.477.477.477.477 0 01.477-.477z" class="b"/>
	<path d="M10.283 7.781a3.611 3.611 0 011.223.822c.109.177.092.439.044 1.016l-.027.326a10.357 10.357 0 00.148 2.772 4.826 4.826 0 001.148 2.447.873.873 0 00.351.2.894.894 0 00.291.049.871.871 0 00.869-1.018c-.021-.23-.3-3.518 1.087-5.205a.362.362 0 01.552 0c1.361 1.7 1.086 4.974 1.065 5.2a.9.9 0 001.511.765 4.824 4.824 0 001.148-2.447 10.361 10.361 0 00.148-2.772 26.482 26.482 0 00-.027-.324c-.049-.578-.065-.84.044-1.017a3.629 3.629 0 011.223-.824c1.25-.664 1.765-2.715 1.1-4.389-.655-1.656-2.207-2.328-4.149-1.8a5.023 5.023 0 00-1.492.675 6.08 6.08 0 01-.873.471l-.251-.144a7.663 7.663 0 00-2.5-1.06 3.277 3.277 0 00-3.852 2.25 3.42 3.42 0 001.219 4.007zm-.451-3.753a2.506 2.506 0 012.988-1.7 7.118 7.118 0 012.2.96c.186.108.347.2.47.262a3.857 3.857 0 002.378.49.4.4 0 10-.153-.782 2.217 2.217 0 01-1.1-.1c.125-.072.237-.142.344-.208a4.237 4.237 0 011.281-.583c2.1-.573 2.906.583 3.2 1.323.5 1.275.148 2.923-.735 3.392a3.757 3.757 0 00-1.527 1.108 2.326 2.326 0 00-.161 1.5l.026.318c.119 1.556-.1 3.574-1.058 4.587a.485.485 0 01-.054.022.089.089 0 01-.108-.035.086.086 0 01-.005-.052v-.033c.016-.154.375-3.789-1.234-5.8a1.159 1.159 0 00-1.791-.01c-1.642 2-1.279 5.652-1.262 5.807v.033a.087.087 0 01-.005.052.089.089 0 01-.108.035.487.487 0 01-.054-.022c-.961-1.013-1.177-3.03-1.058-4.587l.026-.32a2.324 2.324 0 00-.16-1.5 3.745 3.745 0 00-1.528-1.107 2.648 2.648 0 01-.812-3.05zM28.871 4.926a.4.4 0 00-.4-.4H26.15a.4.4 0 000 .8h2.321a.4.4 0 00.4-.4zM25.281 2.547a.4.4 0 00.239-.08L27.841.728a.4.4 0 10-.478-.638l-2.321 1.739a.4.4 0 00.239.718zM25.042 8.027l2.321 1.739a.4.4 0 00.478-.638L25.52 7.389a.4.4 0 10-.478.638zM5.606 4.926a.4.4 0 00-.4-.4h-2.32a.4.4 0 000 .8h2.321a.4.4 0 00.399-.4zM6.395 7.469a.4.4 0 00-.558-.08L3.516 9.128a.4.4 0 00.478.638l2.321-1.739a.4.4 0 00.08-.558zM3.516.724l2.321 1.739a.4.4 0 10.478-.638L3.993.086a.4.4 0 10-.478.638z" class="c"/>
</svg>
