<svg xmlns="http://www.w3.org/2000/svg" width="22.465" height="29.922" viewBox="0 0 22.465 29.922">
	<defs>
		<style>
			.c{fill:#74b1e0}
		</style>
	</defs>
	<path fill="#d4e1f4" d="M6.769 23.57a5.64 5.64 0 015.035-5.6 5.757 5.757 0 00-.6-.032 5.632 5.632 0 10.6 11.233 5.64 5.64 0 01-5.035-5.601z"/>
	<path fill="#214c9e" d="M18.356 14.253a1.4 1.4 0 00-.732-2.348 1.4 1.4 0 00-.937-1.935 1.4 1.4 0 00-1.186-2.153h-.026c0-.042.006-.084.006-.126a1.4 1.4 0 00-2.4-.992l-1.236 1.236a2.743 2.743 0 00-1.3-.325h-1.62a2.022 2.022 0 01-1.253-.431l2.124-2.132a.36.36 0 00-.509-.508L7.163 6.686l-.229-.228 2.129-2.147a.36.36 0 00-.509-.508L6.419 5.945l-.229-.228 2.135-2.142a.36.36 0 10-.509-.508L5.681 5.209l-.229-.228 2.135-2.142a.36.36 0 00-.509-.508L4.943 4.473l-.229-.228 2.135-2.142a.36.36 0 10-.509-.508L4.205 3.737l-.229-.228 2.135-2.142a.36.36 0 00-.509-.508L3.463 3.001l-.105-.1a.24.24 0 010-.339L5.296.618A.36.36 0 004.787.11L2.851 2.05a.96.96 0 000 1.356l4.133 4.119a2.791 2.791 0 00.284.246L5.23 9.809a2.145 2.145 0 00-.632 1.527v.78a4.2 4.2 0 01-1 2.726l-.135-.134a1.106 1.106 0 00-1.563 0L.324 16.286a1.1 1.1 0 000 1.563l4.758 4.758.508-.508-4.758-4.758a.386.386 0 010-.546l1.581-1.581a.386.386 0 01.546 0l4.074 4.072.508-.508-3.43-3.43a4.911 4.911 0 001.205-3.235v-.78a1.431 1.431 0 01.422-1.019l2.181-2.181a2.753 2.753 0 001.011.191h.764l.882.879-.808.808q-.038.038-.077.073a2.026 2.026 0 01-2.221.306l-.031-.015a.36.36 0 00-.308.65l.031.015a2.716 2.716 0 003.015-.426q.051-.046.1-.095l3.316-3.316a.684.684 0 01.968.968l-.053.053-2.477 2.482a.36.36 0 00.508.508l2.478-2.478a.684.684 0 11.968.968l-.633.633-1.845 1.849a.36.36 0 10.508.508l1.848-1.849a.684.684 0 11.967.968l-.474.474-1.373 1.371a.36.36 0 00.508.508l1.372-1.37a.684.684 0 01.967.968l-1.085 1.085-3.111 3.111.508.508 2.857-2.857 3.829 3.816a.959.959 0 101.354-1.358zm-7.634-5.917a2.025 2.025 0 01.588.139l-.224.224zm10.955 10.58a.24.24 0 01-.339 0l-3.828-3.815.339-.339 3.828 3.815a.24.24 0 010 .339z"/>
	<path d="M11.203 29.922a6.352 6.352 0 002.847-12.031 6.287 6.287 0 00-2.847-.672 6.351 6.351 0 100 12.7zm0-11.984a5.632 5.632 0 11-5.632 5.632 5.629 5.629 0 015.632-5.634z" class="c"/>
	<path d="M8.389 23.388a2.261 2.261 0 01.561.362 1.147 1.147 0 010 .42c0 .052-.009.107-.014.167a3.923 3.923 0 00.7 2.772.594.594 0 00.24.143.6.6 0 00.8-.662 4.028 4.028 0 01.518-2.523.036.036 0 01.037 0 4.188 4.188 0 01.507 2.525.6.6 0 00.8.66.6.6 0 00.24-.143 3.922 3.922 0 00.7-2.772c0-.059-.009-.114-.013-.166a1.147 1.147 0 010-.421 2.264 2.264 0 01.562-.362 2.014 2.014 0 00.632-2.426 1.709 1.709 0 00-.814-.922 2.031 2.031 0 00-1.481-.085 2.687 2.687 0 00-.8.361 3.15 3.15 0 01-.352.2l-.057-.033a4.005 4.005 0 00-1.326-.558 2.007 2.007 0 00-1.408.275 1.806 1.806 0 00-.719.976 1.873 1.873 0 00.687 2.212zm-.006-2a1.106 1.106 0 011.348-.757 3.576 3.576 0 011.061.468l.247.137a2.1 2.1 0 001.308.263.36.36 0 00-.138-.706c-.021 0-.042.007-.064.009a1.85 1.85 0 01.4-.157c.9-.246 1.279.179 1.437.578a1.327 1.327 0 01-.3 1.526 2 2 0 00-.836.619 1.3 1.3 0 00-.1.859c0 .05.009.1.013.16a3.794 3.794 0 01-.286 1.913 4.405 4.405 0 00-.682-2.688.746.746 0 00-1.153-.006 4.343 4.343 0 00-.7 2.694 3.8 3.8 0 01-.286-1.913c0-.058.009-.111.013-.161a1.3 1.3 0 00-.1-.859 2 2 0 00-.836-.619 1.2 1.2 0 01-.343-1.362z" class="c"/>
</svg>
