<svg xmlns="http://www.w3.org/2000/svg" width="24.226" height="29.505" viewBox="0 0 24.226 29.505">
	<defs>
		<style>
			.c{fill:#74b1e0}
		</style>
	</defs>
	<path fill="#d4e1f4" d="M7.49 23.05a5.734 5.734 0 014.815-5.653 5.8 5.8 0 00-.917-.073 5.725 5.725 0 10.914 11.378A5.734 5.734 0 017.49 23.05z"/>
	<path fill="#214c9e" d="M5.165 22.072l.517-.517-4.836-4.836a.392.392 0 010-.555l1.608-1.608a.393.393 0 01.555 0l4.141 4.141.517-.517-3.486-3.486a4.992 4.992 0 001.224-3.284v-.8a1.455 1.455 0 01.429-1.035l2.407-2.407 1.894 1.894-.205.205-.078.075a2.059 2.059 0 01-2.258.311l-.032-.015a.365.365 0 00-.312.661l.032.015a2.761 2.761 0 003.065-.433q.051-.047.1-.1l3.372-3.37a.7.7 0 11.984.984l-2.572 2.572a.366.366 0 10.517.517l2.519-2.519a.7.7 0 11.983.984l-2.519 2.519a.366.366 0 10.517.517l1.875-1.875a.7.7 0 11.984.984l-.482.482-1.393 1.393a.366.366 0 10.517.517l1.393-1.393a.7.7 0 11.984.984l-4.264 4.264.517.517 2.278-2.278 1.057 1.058a1.526 1.526 0 001.846.238l2.382 2.382a.365.365 0 00.256.107l1.293.008.006 1.274a.365.365 0 00.365.364.365.365 0 00.364-.367l-.007-1.634a.365.365 0 00-.363-.364l-1.5-.009-2.269-2.269a1.525 1.525 0 00-.216-1.881L18.8 13.415a1.427 1.427 0 00-.878-2.226 1.428 1.428 0 00-.952-1.968 1.427 1.427 0 00-1.207-2.187h-.026c0-.042.006-.085.006-.128a1.426 1.426 0 00-2.435-1.009L12.29 6.91 9.744 4.365a1.525 1.525 0 00-1.933-.182L5.373 1.746a.365.365 0 00-.517 0 .788.788 0 01-1.1 0 .758.758 0 01-.222-.554.818.818 0 01.242-.567.366.366 0 10-.517-.517 1.546 1.546 0 00-.456 1.071 1.482 1.482 0 00.436 1.084 1.511 1.511 0 001.843.228l2.24 2.24a1.525 1.525 0 00.268 1.791l.134.134-2.407 2.407a2.181 2.181 0 00-.644 1.547v.8a4.267 4.267 0 01-1.013 2.771l-.137-.137a1.123 1.123 0 00-1.589 0L.327 15.651a1.123 1.123 0 000 1.589zm14.184-5.948a.793.793 0 01-1.12 0l-1.056-1.057 1.12-1.12 1.058 1.058a.793.793 0 010 1.12zM9.227 4.883l2.546 2.545-1.12 1.12-2.545-2.545a.792.792 0 111.12-1.12z"/>
	<path d="M11.388 29.505a6.457 6.457 0 002.894-12.229 6.389 6.389 0 00-2.894-.683 6.457 6.457 0 100 12.913zm0-12.182a5.725 5.725 0 11-5.725 5.725 5.722 5.722 0 015.725-5.725z" class="c"/>
	<path d="M8.528 22.863a2.3 2.3 0 01.57.368 1.165 1.165 0 010 .427c0 .053-.009.109-.014.169a3.987 3.987 0 00.714 2.818.6.6 0 00.244.146.611.611 0 00.809-.672 4.191 4.191 0 01.526-2.566.037.037 0 01.037 0 4.257 4.257 0 01.516 2.566.611.611 0 00.81.671.6.6 0 00.244-.145 3.987 3.987 0 00.714-2.818c0-.06-.009-.116-.014-.169a1.167 1.167 0 010-.428 2.31 2.31 0 01.571-.368 2.047 2.047 0 00.642-2.466 1.737 1.737 0 00-.828-.937 2.064 2.064 0 00-1.505-.086 2.728 2.728 0 00-.812.367 3.189 3.189 0 01-.358.2l-.058-.034a4.073 4.073 0 00-1.348-.567 2.04 2.04 0 00-1.431.279 1.836 1.836 0 00-.731.992 1.9 1.9 0 00.702 2.253zm-.006-2.03a1.125 1.125 0 011.37-.769 3.634 3.634 0 011.078.476c.1.057.184.106.251.14a2.135 2.135 0 001.329.267.365.365 0 10-.14-.717q-.032.006-.065.009a1.881 1.881 0 01.411-.16c.917-.25 1.3.182 1.461.588a1.349 1.349 0 01-.306 1.551 2.038 2.038 0 00-.85.629 1.325 1.325 0 00-.106.874c0 .051.009.1.013.163a3.854 3.854 0 01-.291 1.945 4.478 4.478 0 00-.693-2.732.758.758 0 00-1.172-.007 4.415 4.415 0 00-.709 2.739 3.857 3.857 0 01-.291-1.945c0-.059.009-.113.013-.164a1.326 1.326 0 00-.106-.873 2.034 2.034 0 00-.85-.629 1.224 1.224 0 01-.348-1.385z" class="c"/>
</svg>
