<svg xmlns="http://www.w3.org/2000/svg" width="24.1" height="24.858" viewBox="0 0 24.1 24.858">
	<defs>
		<style>
			.a{fill:#d4e1f4}
		</style>
	</defs>
	<path d="M15.901 2.596a8.228 8.228 0 012.493-1.133 7.113 7.113 0 012.73-.249 5.729 5.729 0 00-4.521-.347A8.227 8.227 0 0014.11 2a13.417 13.417 0 01-1.381.776 6.892 6.892 0 001.9.544 13.978 13.978 0 001.272-.723zM17.325 20.567a12.21 12.21 0 00-2.217-6.664 1.753 1.753 0 00-1.377-.654 1.8 1.8 0 00-.419.05l.006.007a12.209 12.209 0 012.217 6.664 22.615 22.615 0 010 3.874v.029a.531.531 0 00.717.6.687.687 0 00.223-.106 5.718 5.718 0 00.929-1.307 23.939 23.939 0 00-.078-2.493zM8.304 23.843c0-.007 0-.029-.006-.065a14.694 14.694 0 01-1.252-7.706c.016-.214.033-.413.049-.6a4.038 4.038 0 00-.243-2.57 6.885 6.885 0 00-2.7-1.929 3.915 3.915 0 01-1.8-2.51 6.539 6.539 0 01.079-3.638 4.979 4.979 0 011.969-2.7 5.753 5.753 0 014.027-.746c.056.007.114.017.171.027A7.346 7.346 0 006.636.782a5.754 5.754 0 00-4.027.746 4.977 4.977 0 00-1.969 2.7 6.538 6.538 0 00-.087 3.644 3.915 3.915 0 001.8 2.51 6.884 6.884 0 012.7 1.929 4.037 4.037 0 01.243 2.57l-.049.6c-.23 3.005.2 6.919 2.113 8.891a.693.693 0 00.222.105.531.531 0 00.717-.6c.007-.015.006-.024.005-.034z" class="a"/>
	<path fill="#74b1e0" d="M20.764 9.467a.32.32 0 00.32-.32v-.69h2.458v-.64H.624v.64h2.147v.69a.32.32 0 00.64 0v-.69h1.57v.69a.32.32 0 00.64 0v-.69h1.57v.69a.32.32 0 00.64 0v-.69h1.57v.69a.32.32 0 00.64 0v-.69h1.57v.69a.32.32 0 10.64 0v-.69h1.57v.69a.32.32 0 00.64 0v-.69h1.57v.69a.32.32 0 10.64 0v-.69h1.57v.69a.32.32 0 00.64 0v-.69h1.57v.69a.32.32 0 00.313.32z"/>
	<path fill="#214c9e" d="M21.132.552a6.393 6.393 0 00-4.648-.237 8.748 8.748 0 00-2.627 1.19 11.327 11.327 0 01-1.739.927.618.618 0 00-.093.049 66.8 66.8 0 01-.651-.369A13.765 13.765 0 006.949.219a6.3 6.3 0 00-4.414.839 5.557 5.557 0 00-2.2 3.005c-.87 2.721.037 5.788 2.021 6.839a6.586 6.586 0 012.4 1.655c.28.453.231 1.043.141 2.115-.015.184-.032.382-.048.594a18.691 18.691 0 00.265 4.97 8.449 8.449 0 002 4.283 1.217 1.217 0 002.061-1.067c-.03-.308-.6-6.6 2.083-9.859a1.075 1.075 0 011.651.008c2.627 3.283 2.068 9.551 2.038 9.851a1.21 1.21 0 00.081.694 1.2 1.2 0 001.1.708 1.234 1.234 0 00.4-.067 1.209 1.209 0 00.483-.271 8.45 8.45 0 002-4.283 18.694 18.694 0 00.265-4.97c-.016-.211-.033-.408-.048-.591-.09-1.072-.14-1.662.141-2.115a6.611 6.611 0 012.4-1.657 4.617 4.617 0 002.15-3.2 7.549 7.549 0 00-.319-4.333A5.208 5.208 0 0021.132.552zm2.165 7.008a4.053 4.053 0 01-1.826 2.777c-1.521.807-2.264 1.271-2.644 1.885a3.95 3.95 0 00-.234 2.506c.015.182.032.377.048.586.345 4.513-.851 7.484-2.085 8.759a.666.666 0 01-.231.111.554.554 0 01-.746-.625v-.026a22.176 22.176 0 000-3.8 11.964 11.964 0 00-2.171-6.529 1.715 1.715 0 00-2.649-.012 11.786 11.786 0 00-2.217 6.53 21.951 21.951 0 00-.007 3.813v.026a.554.554 0 01-.746.625.665.665 0 01-.231-.111c-1.234-1.275-2.43-4.246-2.084-8.759.016-.211.033-.406.048-.589a3.948 3.948 0 00-.234-2.5 6.748 6.748 0 00-2.645-1.883A3.877 3.877 0 01.859 7.852a6.457 6.457 0 01.078-3.593 4.921 4.921 0 011.947-2.666A5.68 5.68 0 016.861.855a13.321 13.321 0 014.19 1.812c.336.194.626.361.839.468a6.178 6.178 0 004.1.864.32.32 0 10-.123-.628 5.243 5.243 0 01-3.092-.529 12.883 12.883 0 001.417-.791A8.11 8.11 0 0116.65.934c3.039-.828 5.355.145 6.355 2.671a6.889 6.889 0 01.292 3.957z"/>
</svg>
