<svg xmlns="http://www.w3.org/2000/svg" width="32.595" height="29.006" viewBox="0 0 32.595 29.006">
	<defs>
		<style>
			.a{fill:#d4e1f4}.c{fill:#74b1e0}
		</style>
	</defs>
	<path d="M21.628 5.024a8.7 8.7 0 012.637-1.2 7.521 7.521 0 012.887-.264 6.059 6.059 0 00-4.781-.367 8.7 8.7 0 00-2.637 1.2 14.183 14.183 0 01-1.46.821 7.282 7.282 0 002.009.575 14.774 14.774 0 001.345-.765zM23.134 24.027a12.91 12.91 0 00-2.344-7.047 1.854 1.854 0 00-1.456-.691 1.909 1.909 0 00-.443.052l.006.008a12.911 12.911 0 012.344 7.047 23.905 23.905 0 010 4.1v.031a.562.562 0 00.758.634.726.726 0 00.236-.112 6.043 6.043 0 00.983-1.382 25.291 25.291 0 00-.084-2.64zM13.595 27.492c0-.007 0-.031-.007-.068-1.244-2.237-1.524-5.521-1.323-8.149.017-.227.035-.437.052-.634a4.269 4.269 0 00-.257-2.717c-.411-.665-1.25-1.187-2.86-2.04a4.14 4.14 0 01-1.908-2.655 6.915 6.915 0 01.083-3.848A5.265 5.265 0 019.457 4.53a6.084 6.084 0 014.258-.789c.06.008.12.018.181.028a7.769 7.769 0 00-2.075-.66 6.086 6.086 0 00-4.258.789 5.265 5.265 0 00-2.082 2.851 6.915 6.915 0 00-.083 3.848 4.14 4.14 0 001.908 2.655c1.61.852 2.449 1.375 2.86 2.04a4.269 4.269 0 01.257 2.717l-.052.634c-.243 3.178.216 7.317 2.234 9.4a.733.733 0 00.235.111.562.562 0 00.758-.634.21.21 0 010-.031z" class="a"/>
	<path fill="#214c9e" d="M7.011 13.977a7.06 7.06 0 012.55 1.751c.288.465.235 1.091.14 2.226-.017.2-.035.41-.052.639a20.166 20.166 0 00.286 5.362 9.152 9.152 0 002.167 4.64 1.384 1.384 0 002.353-1.206c-.035-.358-.632-7.062 2.221-10.536a1.079 1.079 0 011.656.008c2.8 3.491 2.209 10.169 2.175 10.528a1.351 1.351 0 001.348 1.593 1.4 1.4 0 00.457-.077 1.371 1.371 0 00.549-.311 9.154 9.154 0 002.167-4.64 20.17 20.17 0 00.286-5.362 55.454 55.454 0 00-.052-.636c-.1-1.136-.148-1.761.14-2.227a7.082 7.082 0 012.55-1.753 5.156 5.156 0 002.381-3.639 8.109 8.109 0 00-.5-4.843.42.42 0 10-.766.344 7.251 7.251 0 01.443 4.33 4.336 4.336 0 01-1.952 3.065c-3.26 1.73-3.357 2.136-3.133 4.792.016.2.034.4.051.63.369 4.825-.9 8-2.217 9.352a.729.729 0 01-.22.1.533.533 0 01-.668-.269.539.539 0 01-.034-.316c0-.011 0-.023.005-.035a23.919 23.919 0 000-4.1 12.932 12.932 0 00-2.349-7.058 1.919 1.919 0 00-2.961-.016 12.737 12.737 0 00-2.4 7.059 23.668 23.668 0 00-.007 4.113q0 .017.005.034a.539.539 0 01-.034.316.533.533 0 01-.668.27.775.775 0 01-.218-.1c-1.315-1.358-2.588-4.529-2.219-9.354.017-.226.035-.436.051-.632.224-2.658.127-3.063-3.134-4.789a4.092 4.092 0 01-1.884-2.624 6.86 6.86 0 01.083-3.817c.409-1.28 1.84-4.195 6.284-3.605a14.265 14.265 0 014.474 1.938c.362.209.675.39.906.5a7.266 7.266 0 004.452.935.42.42 0 00-.161-.825 5.413 5.413 0 01-3.122-.5 14.579 14.579 0 001.377-.781 8.656 8.656 0 012.621-1.191 6.167 6.167 0 014.414.181.42.42 0 10.372-.754 6.97 6.97 0 00-5.007-.239 9.465 9.465 0 00-2.843 1.288 12.12 12.12 0 01-1.858.99.731.731 0 00-.072.035c-.185-.1-.41-.23-.66-.375A14.839 14.839 0 0012 2.343c-3.519-.467-6.209 1.1-7.2 4.183-.945 2.957.046 6.295 2.209 7.44z"/>
	<path d="M1.581 20.249a.42.42 0 00.351-.189 2.252 2.252 0 012.306-.978.42.42 0 00.309-.764 2.252 2.252 0 01-.978-2.306.42.42 0 00-.764-.309 2.252 2.252 0 01-2.306.978.42.42 0 00-.309.764 2.252 2.252 0 01.978 2.306.42.42 0 00.413.5zm1.155-3.276a3.085 3.085 0 00.541 1.276 3.086 3.086 0 00-1.275.541 3.085 3.085 0 00-.541-1.275 3.086 3.086 0 001.274-.538zM32.258 3.509A4.032 4.032 0 0129.086.337a.42.42 0 00-.824 0 4.032 4.032 0 01-3.172 3.172.42.42 0 000 .824 4.032 4.032 0 013.172 3.172.42.42 0 00.824 0 4.032 4.032 0 013.172-3.172.42.42 0 000-.824zm-3.583 2.619a4.863 4.863 0 00-2.207-2.207 4.863 4.863 0 002.207-2.207 4.863 4.863 0 002.207 2.207 4.863 4.863 0 00-2.208 2.207zM8.188 23.458a.42.42 0 00-.338-.412 3.358 3.358 0 01-2.641-2.64.42.42 0 00-.824 0 3.358 3.358 0 01-2.641 2.641.42.42 0 000 .824 3.358 3.358 0 012.636 2.635.42.42 0 00.824 0 3.358 3.358 0 012.641-2.641.42.42 0 00.343-.407zm-3.391 1.733a4.189 4.189 0 00-1.733-1.733 4.191 4.191 0 001.733-1.733 4.191 4.191 0 001.733 1.733 4.189 4.189 0 00-1.733 1.733z" class="c"/>
</svg>
