<svg xmlns="http://www.w3.org/2000/svg" width="34.956" height="30.818" viewBox="0 0 34.956 30.818">
	<path fill="#d4e1f4" d="M29.965 7.517L19.798 17.684a.285.285 0 01-.4 0l-3.036-3.036-.509.51a.284.284 0 000 .4l3.546 3.546a.285.285 0 00.4 0L30.476 8.428a.284.284 0 000-.4z"/>
	<path fill="#74b1e0" d="M33.021 30.392v-5.878a2.71 2.71 0 00-1.473-2.411 3.557 3.557 0 01.955-.617c1.076-.571 1.523-2.326.957-3.756a2.705 2.705 0 00-3.552-1.547 4.243 4.243 0 00-1.261.57 5.007 5.007 0 01-.667.364l-.165-.095a6.419 6.419 0 00-2.1-.89 2.809 2.809 0 00-3.28 1.886 3.3 3.3 0 00-.214-.541.426.426 0 10-.762.383c.505 1 .258 2.481-.482 2.873-1.452.771-1.55 1.048-1.449 2.256l.021.263a5.375 5.375 0 01-.817 3.69c.032-.347.256-3.217-1.046-4.841a1.056 1.056 0 00-1.632-.009c-1.328 1.616-1.1 4.5-1.07 4.85a5.374 5.374 0 01-.817-3.69l.021-.264c.1-1.209 0-1.486-1.449-2.255a2.1 2.1 0 01-.636-2.411 2.027 2.027 0 012.371-1.344 2.763 2.763 0 01.682.206.426.426 0 10.332-.785 3.541 3.541 0 00-.9-.266 2.809 2.809 0 00-3.281 1.888 3.198 3.198 0 00-.1-.29 2.706 2.706 0 00-3.552-1.547 4.243 4.243 0 00-1.261.57 5 5 0 01-.667.364l-.165-.095a6.417 6.417 0 00-2.1-.89 2.809 2.809 0 00-3.3 1.93 2.932 2.932 0 001.05 3.424 3.569 3.569 0 01.953.613 2.705 2.705 0 00-1.479 2.415v5.878a.426.426 0 00.426.426h31.479a.426.426 0 00.426-.426zm-9.792-12.07a2.027 2.027 0 012.371-1.344 5.935 5.935 0 011.789.783c.156.09.29.168.395.22a3.279 3.279 0 002.031.414.426.426 0 00-.163-.837 1.565 1.565 0 01-.647-.023l.092-.057a3.429 3.429 0 011.036-.472 1.868 1.868 0 012.535 1.038 2.3 2.3 0 01-.564 2.689c-1.1.586-1.425.887-1.471 1.528a.423.423 0 00-.006.148c0 .168.01.358.028.581l.021.263a5.375 5.375 0 01-.817 3.69c.032-.347.256-3.217-1.046-4.841a1.056 1.056 0 00-1.632-.009c-1.328 1.616-1.1 4.5-1.07 4.85a5.374 5.374 0 01-.817-3.69l.021-.264c.1-1.209 0-1.486-1.449-2.255a2.1 2.1 0 01-.636-2.412zM1.608 20.733a2.1 2.1 0 01-.636-2.411 2.027 2.027 0 012.371-1.344 5.933 5.933 0 011.789.783c.156.09.29.168.395.219a3.279 3.279 0 002.031.414.426.426 0 00-.163-.837 1.564 1.564 0 01-.647-.023l.092-.057a3.43 3.43 0 011.036-.472 1.868 1.868 0 012.535 1.038 2.3 2.3 0 01-.564 2.689c-1.452.771-1.55 1.048-1.449 2.256l.021.263a5.376 5.376 0 01-.817 3.69c.032-.347.256-3.217-1.046-4.841a1.056 1.056 0 00-1.632-.009c-1.328 1.616-1.1 4.5-1.07 4.85a5.374 5.374 0 01-.817-3.69l.021-.264c.1-1.209 0-1.486-1.45-2.255zm30.56 9.233H1.537v-5.451a1.854 1.854 0 01.658-1.419c0 .03 0 .06-.007.091-.054.709-.135 3.121 1.1 4.4a.815.815 0 00.329.193.835.835 0 00.272.046.817.817 0 00.815-.952 9.566 9.566 0 01.005-1.6 5.006 5.006 0 01.874-2.637.2.2 0 01.308 0c1.1 1.37.88 4.031.861 4.237a.843.843 0 001.416.713c1.236-1.277 1.155-3.689 1.1-4.4-.007-.1-.015-.186-.022-.269-.038-.456-.052-.663.022-.784a3.062 3.062 0 01.977-.648 2.291 2.291 0 001.039-1.365 2.3 2.3 0 001.053 1.365 3.05 3.05 0 01.976.647c.075.12.061.327.022.783l-.022.27c-.054.709-.135 3.121 1.1 4.4a.813.813 0 00.329.193.836.836 0 00.272.046.817.817 0 00.815-.952c-.019-.208-.239-2.877.879-4.238a.2.2 0 01.308 0c1.1 1.37.88 4.031.861 4.237a.843.843 0 001.416.713c1.236-1.277 1.155-3.689 1.1-4.4-.007-.1-.015-.186-.022-.269-.038-.456-.052-.663.022-.784a3.057 3.057 0 01.977-.648 2.288 2.288 0 001.04-1.36 2.3 2.3 0 001.052 1.36 3.053 3.053 0 01.976.647c.075.12.061.327.022.783l-.022.27c-.054.709-.135 3.121 1.1 4.4a.815.815 0 00.329.193.835.835 0 00.272.046.817.817 0 00.815-.952c-.019-.207-.239-2.877.879-4.238a.2.2 0 01.308 0c1.1 1.37.88 4.031.861 4.237a.843.843 0 001.416.713c1.236-1.277 1.155-3.689 1.1-4.4l-.007-.083a1.857 1.857 0 01.648 1.41z"/>
	<path fill="#214c9e" d="M31.182.36a1.231 1.231 0 10-1.741 1.741l.836.836-1.842 1.843-.9-.9a1.138 1.138 0 00-1.608 0L15.248 14.554a1.138 1.138 0 000 1.608l.049.049-.836.836a.426.426 0 000 .6l.267.267-.887.887a.426.426 0 000 .6l.552.552-4.806 4.806a.426.426 0 00.6.6l4.806-4.806.552.552a.426.426 0 00.6 0l.887-.887.267.267a.426.426 0 00.6 0l.836-.836.049.05a1.138 1.138 0 001.608 0L31.068 9.022a1.138 1.138 0 000-1.608l-.9-.9 1.843-1.843.836.836a1.231 1.231 0 101.741-1.741zM15.85 20.21l-1.1-1.1.586-.586 1.1 1.1zm1.757-.62l-2.241-2.241.535-.535 2.241 2.241zM30.473 8.428L19.799 19.105a.285.285 0 01-.4 0l-3.546-3.546a.284.284 0 010-.4l1.459-1.459 1.405 1.4a.426.426 0 10.6-.6l-1.405-1.405.782-.782.552.552a.426.426 0 00.6-.6l-.552-.552.782-.782 1.405 1.4a.426.426 0 10.6-.6l-1.405-1.405.782-.782.552.552a.426.426 0 00.6-.6l-.552-.552.782-.782 1.405 1.4a.426.426 0 10.6-.6l-1.406-1.4.782-.782.552.552a.426.426 0 10.6-.6l-.552-.552 1.694-1.694a.284.284 0 01.4 0l3.546 3.546a.284.284 0 010 .4zm-.9-2.51l-.535-.535 1.843-1.843.535.535zm4.42-1.007a.378.378 0 01-.535 0L32.32 3.773l-1.138-1.138-1.137-1.137a.378.378 0 11.535-.535l3.413 3.417a.378.378 0 010 .535z"/>
</svg>
