<svg xmlns="http://www.w3.org/2000/svg" width="405.654" height="335.725" viewBox="0 0 405.654 335.725">
	<g fill="#74b1e0" data-name="Group 5789">
		<path d="M131.073 69.163c-3.5-7.42-6.343-15.337-11.711-21.54-9.828-11.357-26.3-14.7-41.262-13.366-13.2 1.18-26.325 5.608-36.585 14s-17.39 20.962-17.767 34.21c-.531 18.708 11.919 35.412 26.221 47.485 7.563 6.384 15.857 12.015 22.365 19.473s11.152 17.338 9.534 27.1c-1.2 7.229-5.677 13.685-6.322 20.983-1.013 11.472 8.55 22.212 19.811 24.626s23.216-2.321 31.612-10.2c11.4-10.7 17.833-27.143 32.048-33.642 6.333-2.9 13.654-3.465 19.58-7.122 10.094-6.227 13.2-19.265 14.916-31 1.271-8.7 1.52-19.264-5.648-24.36-3.769-2.679-8.642-3.033-13.14-4.106-10.878-2.6-18.741-9.656-24.883-18.654-2.381-3.489-5.169-5.732-8.214-8.564-4.618-4.297-7.886-9.658-10.555-15.323z" data-name="Path 2857"/>
		<path d="M15.388 157.623A25.661 25.661 0 00.557 174.977a22.468 22.468 0 006.678 21.549c3.845 3.373 9.026 5.423 11.658 9.808 1.55 2.581 2.042 5.736 3.854 8.141 2.518 3.342 7.065 4.5 11.249 4.419 9.935-.2 19.36-6.493 23.89-15.337s4.24-19.844-.2-28.732c-7.627-15.247-26.02-24.2-42.298-17.202z" data-name="Path 2858"/>
		<path d="M33.674 236.776a8.312 8.312 0 003.794 8.855 9.371 9.371 0 009.777-.351 10.761 10.761 0 004.606-8.781c.089-12.101-15.916-8.7-18.177.277z" data-name="Path 2859"/>
		<path d="M285.298 289.069a8.314 8.314 0 008.691 4.156 9.374 9.374 0 007.119-6.712 10.755 10.755 0 00-2.328-9.638c-7.915-9.156-17.706 3.954-13.482 12.194z" data-name="Path 2860"/>
		<path d="M260.39 95.024c8.515-8.671 13.7-20.045 21.3-29.521 19.313-24.055 55.353-33.156 83.53-20.6s45.547 45.937 39.078 76.1c-5.583 26.033-26.109 46.311-48.155 61.24-4.542 3.076-9.25 6.048-12.9 10.144s-6.16 9.586-5.329 15.008c1.076 7.017 7.332 12.1 13.77 15.093s13.531 4.648 19.472 8.533c12.763 8.347 17.195 27.205 9.486 40.363s-26.325 18.513-39.847 11.461c-15.668-8.171-22.2-28.82-38.466-35.73-11.817-5.02-25.35-1.323-38.158-2.231a52.522 52.522 0 01-37.851-20.576 51.2 51.2 0 01-8.69-42.124c2.652-10.889 8.919-20.675 11.23-31.642a45.917 45.917 0 00-.225-19.742c-1.5-6.5-6.555-12.655-6.917-19.273-.544-9.93 13.725-5.394 19.8-6.274 7.152-1.035 13.871-5.136 18.872-10.229z" data-name="Path 2861"/>
		<path d="M135.798 8.924a14.008 14.008 0 00-2.057 8.3c.069 3.214.841 6.6 3.111 8.879a11.967 11.967 0 007.064 3.068 17.347 17.347 0 0014.082-4.282c3.658-3.512 5.274-9.208 3.43-13.932-3.759-9.63-20.057-10.094-25.63-2.033z" data-name="Path 2862"/>
		<path d="M273.398 22.158a15.3 15.3 0 0012.154 7.144 11.24 11.24 0 007.39-2.013 13.1 13.1 0 004.263-7.228c2.3-8.666-2.31-21.026-13.173-20-9.927.934-15.534 13.979-10.634 22.097z" data-name="Path 2863"/>
	</g>
	<path fill="#f5f5f5" d="M297.743 162.544c-7.78 39.46-17.83 78.44-27.87 117.4-1.36 5.26-2.76 10.63-5.69 15.22s-7.69 8.33-13.12 8.63a13.39 13.39 0 01-5.71-.97 19.916 19.916 0 01-9.57-8.6c-3.15-5.48-4.19-11.89-5.16-18.14-.15.29-.31.59-.46.88q-10.32 19.845-20.63 39.68c-2.74 5.28-5.58 10.68-10.03 14.62a17.653 17.653 0 01-13.54 4.39l-.2-.02c-14.14-1.73-23.61-15.71-27.62-29.38-3.77-12.84-4.52-26.62-9.67-38.91q-.5-1.2-1.05-2.37c-4.43 6.58-6.06 14.66-10.02 21.52-2.92 5.07-8.05 9.58-13.54 10.5a11.373 11.373 0 01-5.9-.5c-5.71-2.08-8.69-8.28-10.59-14.05-5.36-16.31-6.68-33.63-7.95-50.75-1.89-25.34-3.78-50.67-5.18-76.03-.54-9.84-.85-20.38 4.36-28.75 5.33-8.59 15.36-13.02 25.13-15.62s20.03-3.94 29.02-8.57c8.69-4.47 15.61-11.72 23.68-17.23s18.12-8.13 27.58-5.66c17.37 4.54 10.71 14.37 69.71 39.28 9.03 3.81 18.74 8.33 23.2 17.06 4.075 7.99 2.55 17.57.82 26.37z" data-name="Path 2864"/>
	<path fill="#fff" d="M119.592 150.913c6.278 5.6 14.5 8.853 21.824 12.955a53.826 53.826 0 0118.569 16.865c4.387 6.177 8.677 12.971 16.479 15.5 8.332 2.7 18.409 2.38 27.021 1.388 8.271-.953 18.083-2.7 24.944-7.479 6.795-4.734 11.063-12.343 18.68-16.085 8.755-4.3 18.895-5.013 27.811-9.212 6.656-3.134 14.662-7.657 17.353-14.715 3.175-8.329-4.881-15.529-10.877-20.353-7.717-6.209-16.9-10.623-26.21-14.2-8.208-3.152-16.57-6.153-25-8.66-6.075-1.806-8.617-6.957-11.562-11.855-4.97-8.268-17.514-9.7-26.455-9.748a29.342 29.342 0 00-20.667 7.64c-5.491 4.9-9.652 11.044-15.2 15.857-4.717 4.094-11.134 5.311-17.267 6-6.747.761-13.887.683-20.358 2.884a12.194 12.194 0 00-5.464 3.535 49.533 49.533 0 00-2.039 8.331c-1.346 8.288 2.074 15.693 8.418 21.352z" data-name="Path 2865"/>
	<g fill="#dbe6eb" data-name="Group 5790">
		<path d="M253.413 262.889c-2.88 6.97-4.38 15.18-.92 21.89 1.95 3.79 5.48 7.23 5.09 11.48-.34 3.65-3.78 6.49-7.41 6.98a11.91 11.91 0 01-4.82-.41 19.916 19.916 0 01-9.57-8.6c-3.15-5.48-4.19-11.89-5.16-18.14-.15.29-.31.59-.46.88 2.03-14.54 13.79-30.39 21.42-40.41 1.84-2.41 4.42-5.02 7.37-4.36a5.372 5.372 0 013.75 4.12 12.341 12.341 0 01-.38 5.81c-1.89 7.295-6.04 13.775-8.91 20.76z" data-name="Path 2866"/>
		<path d="M148.473 267.344q-.5-1.2-1.05-2.37c-4.43 6.58-6.06 14.66-10.02 21.52-2.92 5.07-8.05 9.58-13.54 10.5.02-3.11 4.1-6.51 5.39-9.04a30.914 30.914 0 003.1-14.75c-.19-8.05-2.74-15.82-5.15-23.51s-4.7-15.58-4.35-23.62a4.484 4.484 0 011.13-3.31c1.29-1.14 3.46-.49 4.55.85a11.564 11.564 0 011.79 4.81 43.761 43.761 0 007.67 16.52c3.6 4.77 8.28 9.01 9.97 14.74a18.842 18.842 0 01.51 7.66z" data-name="Path 2867"/>
		<path d="M158.365 135.055c-2.29 3.195-.647 8.024 2.571 10.283s7.43 2.5 11.346 2.15c7.689-.691 15.338-3.358 22.964-2.156 12.377 1.951 21.515 13.552 33.863 15.675 2.792.48 6.315.057 7.441-2.542s-.961-5.446-3.244-7.1c-4.692-3.387-10.561-4.581-15.94-6.715-4.759-1.889-9.8-5.059-11.6-10.117-1.067-3 .414-8.733-3.879-8.53-3.02.143-7 4.489-9.61 5.872-5.4 2.859-10.988 2.554-16.9 1.631-4.988-.773-13.33-3.587-17.012 1.549z" data-name="Path 2868"/>
		<path d="M194.125 206.536c-4.6.28-9.823.6-12.76 4.152-3.841 4.647-1.376 11.532.677 17.2 9.709 26.814 5.965 56.413 1.586 84.592-.506 3.258-1.019 6.584-.464 9.834s2.379 6.469 5.385 7.823c3.62 1.631 8.036.125 10.924-2.6s4.581-6.45 6.205-10.074l23.271-51.954c5.779 3.447 7.338 10.927 8.828 17.488s4.437 14.026 10.954 15.7c4.879 1.252 10.086-1.483 13.2-5.439s4.572-8.935 5.918-13.789c3.352-12.1 6.437-24.267 9.522-36.435 6.434-25.384 12.9-50.963 14.3-77.112-.046.852-18.3 8.722-20.29 9.931-5.213 3.164-10.069 6.8-15.03 10.325-10.624 7.556-23.3 12.6-35.817 16a131.1 131.1 0 01-26.409 4.358z" data-name="Path 2869"/>
		<path d="M152.361 193.357a184.709 184.709 0 01-53.351-48.592c-.3-.4-.727-.859-1.209-.722-.367.1-.551.505-.679.864-4.128 11.525 1.418 24.6 9.93 33.4s19.631 14.5 29.815 21.29 20.023 15.462 23.608 27.168a12.925 12.925 0 001.672 4.08c4.356 5.828 6.067-3.212 6.322-6.028.35-3.879 1.522-7.979 1.379-11.874-.35-9.576-10.25-15.254-17.487-19.586z" data-name="Path 2870"/>
	</g>
	<path fill="#7da8d9" d="M333.198 242.634a11.37 11.37 0 01-2.671 5.082 80.963 80.963 0 0011.081 9.262 6.127 6.127 0 003.211 1.379c1.454.034 4.241-1.51 3.916-3.245-.3-1.609-3.725-2.823-4.953-3.609a53.905 53.905 0 01-10.584-8.869z" data-name="Path 2871"/>
	<g data-name="Group 5792">
		<g fill="#214c9e" data-name="Group 5791">
			<path d="M284.77 119.327c-1.655.751-3.5 1.723-3.932 3.489a5.987 5.987 0 00.352 3.105 221.8 221.8 0 0014.771 36.793c1.047 2.054 2.267 4.23 4.363 5.191 2.194 1.006 4.76.412 7.073-.278a103.16 103.16 0 0014.652-5.615c1.8-.854 3.689-1.861 4.634-3.618 1.29-2.394.426-5.329-.47-7.9-4.8-13.764-9.985-27.549-17.948-39.76-1.2-1.844-2.214-2.383-3.662-1.124-.648.564-.745.97-1.695 1.474-1.2.638-2.5 1.137-3.741 1.7z" data-name="Path 2872"/>
			<path d="M302.276 108.935c-.206-3.548.849-8.136 4.371-8.611 3.1-.417 5.35 2.774 6.8 5.544q10.074 19.239 18.917 39.09c3.8 8.542 7.5 17.508 7.2 26.855-.3 9.1-4.353 17.6-6.55 26.441-4.115 16.548-1.624 34.083 3.092 50.47s11.605 32.077 16.505 48.41a16.236 16.236 0 01.977 7.054c-.367 2.366-2.039 4.7-4.406 5.06-3.6.548-6.161-3.3-7.734-6.582-7.123-14.869-14.277-29.819-18.9-45.644s-6.653-32.706-3.341-48.857c2.332-11.375 7.273-22.317 7.5-33.927.248-12.612-5.035-25.1-11.149-35.9-2.391-4.218-12.914-23.077-13.282-29.403z" data-name="Path 2873"/>
		</g>
		<path fill="#56a8cf" d="M297.891 121.643c-5.077.5-9.9 3.149-14.172 5.79a.282.282 0 00.284.486c4.588-2.324 8.946-4.572 13.931-5.962.164-.047.142-.333-.043-.314z" data-name="Path 2874"/>
		<path fill="#56a8cf" d="M297.155 127.765c-3.626 1.7-7.088 3.743-10.524 5.792a.215.215 0 00.217.371c3.554-1.834 7.118-3.693 10.476-5.873a.168.168 0 00-.169-.29z" data-name="Path 2875"/>
		<path fill="#56a8cf" d="M304.963 131.05c-5.587 2.593-10.98 5.613-16.518 8.311-.281.137-.035.551.244.418a161.163 161.163 0 0016.4-8.506.129.129 0 00-.126-.223z" data-name="Path 2876"/>
		<path fill="#56a8cf" d="M308.649 137.653c-3.519 1.045-6.3 3.854-9.4 5.715a54.014 54.014 0 01-5.307 2.786c-.968.444-2.011.646-2.223 1.774-.034.181.234.33.322.136.476-1.062 3.084-1.7 4.186-2.228a44.767 44.767 0 004.5-2.486c2.741-1.725 5.215-3.8 8.054-5.376a.177.177 0 00-.132-.321z" data-name="Path 2877"/>
		<path fill="#56a8cf" d="M310.078 144.964c-5.691 2.663-11.113 5.88-16.807 8.555-.315.148-.041.608.272.465 5.663-2.591 11.541-5.222 16.685-8.764a.148.148 0 00-.15-.256z" data-name="Path 2878"/>
		<path fill="#56a8cf" d="M312.913 149.464c-5.84 2.72-11.361 6.229-16.953 9.42a.258.258 0 00.26.445c5.631-3.12 11.5-6.012 16.854-9.589a.16.16 0 00-.161-.276z" data-name="Path 2879"/>
		<path fill="#56a8cf" d="M317.783 155.252a138.56 138.56 0 00-13.3 5.779c-.216.1-5.194 2.118-3.514 2.632a.141.141 0 00.108-.257c.088.046 3.486-1.645 3.762-1.765q2.21-.96 4.406-1.948c2.92-1.31 5.877-2.57 8.665-4.148.151-.088.048-.356-.127-.293z" data-name="Path 2880"/>
	</g>
	<g data-name="Group 5793">
		<path fill="#eb9c6c" d="M363.322 309.224c1.429-.1.544.9.981 2.763.107.34.34.73-.037.881a.341.341 0 01-.374-.082c-.148.088-.627.182-.387.119-.793.205-.936.28-1.243.057-.424-.3-.177-1.052-.715-2.086a1.172 1.172 0 01-.223-.754c.045-.618.916-.857 1.521-.909a3.454 3.454 0 01.477.011" data-name="Path 2881"/>
		<path fill="#eb9c6c" d="M346.698 319.55c1.513.029.491 1 .781 3 .082.367.292.8-.118.923a.362.362 0 01-.387-.119c-.163.078-.675.134-.417.089-.853.144-1.011.21-1.313-.052-.419-.36-.091-1.124-.563-2.26a1.237 1.237 0 01-.168-.813c.1-.647 1.042-.82 1.683-.82a3.69 3.69 0 01.5.055" data-name="Path 2882"/>
		<path fill="#2f6681" d="M355.236 277.383c.377-.032 2.609-1.6 2.964-.993 2.306 3.72-.724 9.416-1 11.084-1.435 8.723-.676 6.21 2.432 10.568a11.7 11.7 0 011.474 3.192c1.016 3.107 2.537 5.265 2.866 7.365.2 1.311.625 1.7-.226 2.194a5.332 5.332 0 01-1.336.577c-.552.155-.809.423-1.625-.489-.363-.408-7.115-7.793-9.343-11.907-2.757-5.085-1.786-1.614-3.475-10.452 0-.008-.633-4.19-.634-4.209a4.628 4.628 0 01.906-2.618c2.43-3.176 3.607-3.572 6.4-4.206a4.484 4.484 0 01.593-.106" data-name="Path 2883"/>
		<path fill="#68c9f9" d="M357.644 274.683a.626.626 0 01.616.741c.983 3.916-.96 6.995-2.174 9.147a15.279 15.279 0 01-1.171 1.87c-.208.289-1.64 2.082-1.64 2.082-.016.022-.04.051-.059.074.233-.359-.69.872-1.925 2.089-3.113 3.072-4.113 4.9-3.385 9.585.779 5 1.4 2.148.881 11.9-.214 3.97.248 9.12-.758 9.622a6.416 6.416 0 01-2.5.34c-.368 0-.761.076-1.32-1.1a20.249 20.249 0 01-1.84-5.282c-.831-3.454-1.72-10.716-1.783-11.611-.369-3.661-.932-3.784-.924-6.8.01-2.471 2.06-9.874 2.117-10.063.86-2.856.66-1.878 1.39-4.247 1.881-6.1 1.684-5.735 4.214-6.346a22.94 22.94 0 013.826-.631c.122-.02 5.167-.932 5.384-1.005.584-.221.755-.292.755-.292l.158-.059a.658.658 0 01.139-.016" data-name="Path 2884"/>
		<path fill="#d08126" d="M355.284 247.758c.392 0 .936.384.452 1.171-2.58 4.281-1.2 6.536-1.333 7.615-.064.515-.375.645-.668.545a10.434 10.434 0 01-1.088.1 9.1 9.1 0 01-2.29-.475c-.825-.182-1.281-.529-1.031-1.329a10.283 10.283 0 00.571-2.686 4.012 4.012 0 00-.116-1.858c-.173-.752.428-.964.786-.759.43-.675.642-.994 2.462-1.648a3.6 3.6 0 01.9-.285 4.985 4.985 0 001.2-.376.639.639 0 01.149-.018" data-name="Path 2885"/>
		<path fill="#eb9c6c" d="M354.15 243.039a2.144 2.144 0 011.7 1 5.1 5.1 0 01.712.909 6.682 6.682 0 01.276.7c.653 1.738.21 2.507-1.014 3.808a8.3 8.3 0 01-2.7 2.249c-.621.333-2.692 1.245-3.7 1.055a2.136 2.136 0 01-1.042-.528c-.809-.841.265-3.625.758-4.675l-.013.034c1.053-2.334 1.573-2.833 2.479-3.586a2.9 2.9 0 012.549-.969" data-name="Path 2886"/>
		<path fill="#2f6681" d="M354.598 241.166a1.707 1.707 0 01.732.134 1.686 1.686 0 01.411.308 20.449 20.449 0 012.492 1.959l-.112-.106a4.793 4.793 0 011.277 2.111l-.008-.022c.959 3.408-1.806 7.774-5.365 7.827-1.409.024-2.206-.534-2.046-1.934.2-1.659 1.44-2.059 1.585-3.124.184-1.33-.305-1.385-.757-2.792-.619-1.891-.717-3.314 1.044-4.2a1.614 1.614 0 01.747-.161" data-name="Path 2887"/>
		<path fill="#eb9c6c" d="M354.219 248.089a.968.968 0 00-.687-.205 1.86 1.86 0 00-.822.128c-.243.116-.557.255-.631.432-.119.283.124.226-.147.335a.685.685 0 00-.18 1.342 3.1 3.1 0 002.617-.779.942.942 0 00-.15-1.253m-.169 1.537" data-name="Path 2888"/>
		<path fill="#2f6681" d="M346.021 322.848c-1.1-.221-1.383-.466-3.868 1.017a6.454 6.454 0 01-1.569.838 2.409 2.409 0 00-.486.148.745.745 0 00-.116 1.168c.469.6 1.559.625 3.178.77a11.29 11.29 0 004.354-.565 1.671 1.671 0 00.813-1.66c0-.728-.2-1.53-.892-1.752-.264-.249-1.089.088-1.414.036M344.629 326.79" data-name="Path 2889"/>
		<path fill="#eb9c6c" d="M332.211 249.689c-.15-.129-.3-.261-.439-.395a22.769 22.769 0 01-3.308-3.457c-.411-.594-.755-1.235-1.213-1.793a3.1 3.1 0 00-1.769-1.168 4.625 4.625 0 001.3 1.924 36.794 36.794 0 01-4.048-3.082c-.142.058-.186.233-.207.385a6.019 6.019 0 00.12 2.249 2.787 2.787 0 00.426 1 2.917 2.917 0 00.894.745c.936.558 2.233.852 2.888 1.723a7.423 7.423 0 011.023 1.372c.675 1.222 1.36 2.439 2.042 3.657.768 1.37 2.594 4.591 4.386 4.9a1.757 1.757 0 002.14-.987 2.877 2.877 0 00-.509-2.713 21.827 21.827 0 00-3.726-4.36z" data-name="Path 2890"/>
		<path fill="#eb9c6c" d="M333.834 257.237a1.745 1.745 0 00.157.176 4.135 4.135 0 001.41.807 47.222 47.222 0 009.246 2.7 40.122 40.122 0 004.37.544 5.409 5.409 0 003.279-.526 2.779 2.779 0 001.3-1.722 1.71 1.71 0 00-.9-1.555 5.563 5.563 0 00-1.435-.6 50.586 50.586 0 00-14.988-2.733 4.253 4.253 0 00-1.655.239 1.9 1.9 0 00-1.15 1.277 1.692 1.692 0 00.366 1.393z" data-name="Path 2891"/>
		<path fill="#2f6681" d="M362.984 312.105c-1.06.028-1.375-.138-3.356 1.753a6.112 6.112 0 01-1.272 1.105 2.234 2.234 0 00-.417.238.705.705 0 00.139 1.1c.558.453 1.57.249 3.1.042a10.681 10.681 0 003.9-1.439 1.582 1.582 0 00.4-1.7c-.149-.673-.5-1.372-1.192-1.429-.3-.175-.987.31-1.3.33M362.531 316.031" data-name="Path 2892"/>
		<path fill="#3c84b8" d="M341.919 253.489c.043 0 1.7.276 2.045.318.534.067 2.1.035 1.91.038a22.786 22.786 0 017.307.811c2.542.685 3.293 1.507 3.836 2.261 2.732 3.784 1.542 8.932 1.865 12.661l-.009-.048c.2 1.515.338 8.3.048 8.766-.7 1.128-9.886 1.76-11.677 1.518-3.194-.432-2.79-.178-2.1-6.007.406-3.4.7-9.411.7-9.42.238-1.837-.02-1.741-.331-1.861a8.475 8.475 0 01-.682-.294 4.361 4.361 0 00-.639-.188c-3.184-.777-2.555-.386-4.562-1.17-1.087-.43-.992-.8-.586-1.484.837-1.42.257-.742 1.839-4.349.342-.776.206-1.552 1.038-1.552" data-name="Path 2893"/>
		<path fill="#94ceed" d="M336.733 253.283l11.458.419c3.136.114 6.522.32 8.937 2.323 2.626 2.178 3.358 5.862 3.68 9.258a72.259 72.259 0 01-1.243 21.748c-.45 2.124-.982 4.416-.1 6.4.609 1.359 1.874 2.594 1.626 4.063a4.067 4.067 0 01-2.04 2.434 34.1 34.1 0 01-18.4 5.646 3.191 3.191 0 01-2.532-.764 3.073 3.073 0 01-.574-1.544c-1.014-6.243.744-12.577 2.664-18.6s4.046-12.167 3.784-18.487a2.684 2.684 0 00-.537-1.782 3.03 3.03 0 00-1.689-.68 22 22 0 01-12.179-7.061c-1.447-1.641-3.268-3.932-3.744-6.126-.462-2.129 1.7-4.1 3.155-5.38 2.799 2.352 5.217 5.462 7.734 8.133z" data-name="Path 2894"/>
	</g>
	<g data-name="Group 5794">
		<path fill="#eb9c6c" d="M93.406 273.72q-.051.291-.089.581a22.665 22.665 0 00-.367 4.735c.058.714.2 1.423.2 2.139a3.081 3.081 0 01-.625 2.01 4.59 4.59 0 01-.208-2.3 36.629 36.629 0 00-1.172 4.912c-.145.044-.289-.062-.4-.165a5.978 5.978 0 01-1.322-1.8 2.756 2.756 0 01-.3-1.033 2.923 2.923 0 01.218-1.134c.369-1.017 1.179-2.059 1.136-3.139a7.373 7.373 0 00-.078-1.7c-.249-1.364-.489-2.729-.73-4.094-.272-1.534-.894-5.157.289-6.519a1.742 1.742 0 012.264-.587c.915.423 1.15 1.409 1.315 2.4a21.645 21.645 0 01-.131 5.694z" data-name="Path 2895"/>
		<path fill="#c9c9c9" d="M96.044 250.089a5.536 5.536 0 01.07 1.543 50.21 50.21 0 01-2.57 14.9 4.218 4.218 0 01-.788 1.461 1.887 1.887 0 01-1.583.635 1.724 1.724 0 01-1.282-1.022 4.118 4.118 0 01-.271-1.591 44.423 44.423 0 011.623-13.8 5.374 5.374 0 011.611-2.876 2.765 2.765 0 012.05-.627 1.7 1.7 0 011.14 1.377z" data-name="Path 2896"/>
		<path fill="#7dbcd9" d="M91.627 248.989a5.709 5.709 0 00-1.352 2.431 33.8 33.8 0 00-1.259 8.488c-.365 6.08-.633 12.268.827 18.181a10.449 10.449 0 003.849 1.062 161.781 161.781 0 00-.137-19.26 37.845 37.845 0 01-.043-7.666 14.612 14.612 0 01.375-1.864c.128-.468.455-1.044.282-1.537-.401-1.14-1.961-.385-2.542.165z" data-name="Path 2897"/>
		<path fill="#3c85bb" d="M125.472 228.749a4.8 4.8 0 00-2.187-.17 1.613 1.613 0 00-1.32 1.544c.085.976 1.292 1.484 1.578 2.421.2.651-.09 1.391.167 2.022.316.777 1.276 1.023 1.931 1.549a5.42 5.42 0 011.46 2.87 4.183 4.183 0 001.7 2.694 1.12 1.12 0 001.168.025 1.542 1.542 0 00.434-.7 3.158 3.158 0 01.74-1.209c.757-.679 1.961-.588 2.782-1.188a2.86 2.86 0 00.8-2.991 19.96 19.96 0 00-1.3-3.011c-.315-.733-.538-1.505-.89-2.221-.384-.782-2.257-4.118-3.4-3.3-.406.292-.449 1.04-.817 1.406-.736.747-1.937.472-2.846.259z" data-name="Path 2898"/>
		<path fill="#eb9c6c" d="M124.104 241.13c.1-.171.194-.342.283-.515a22.661 22.661 0 001.969-4.326c.19-.691.3-1.4.549-2.077a3.078 3.078 0 011.276-1.674 4.583 4.583 0 01-.592 2.229 36.533 36.533 0 002.786-4.212c.151.008.25.157.319.292a5.98 5.98 0 01.623 2.148 2.768 2.768 0 01-.072 1.073 2.94 2.94 0 01-.594.991c-.7.828-1.814 1.529-2.143 2.559a7.348 7.348 0 00-.509 1.62q-.351 2.051-.718 4.1c-.271 1.535-.928 5.151-2.506 6.025a1.743 1.743 0 01-2.329-.225 2.855 2.855 0 01-.411-2.708 21.654 21.654 0 012.069-5.3z" data-name="Path 2899"/>
		<path fill="#c9c9c9" d="M124.821 249.307a1.994 1.994 0 01-.164.167 4.105 4.105 0 01-1.438.731 46.941 46.941 0 01-9.3 2.226 40.311 40.311 0 01-4.359.325 5.37 5.37 0 01-3.224-.682 2.759 2.759 0 01-1.209-1.772 1.7 1.7 0 01.972-1.5 5.482 5.482 0 011.452-.525 50.224 50.224 0 0114.993-1.977 4.218 4.218 0 011.629.319 1.882 1.882 0 011.077 1.321 1.678 1.678 0 01-.429 1.367z" data-name="Path 2900"/>
		<path fill="#d9803d" d="M103.019 247.689a5.909 5.909 0 01-5.588 1.694 9.153 9.153 0 00-1.7-.383 3.617 3.617 0 001.4-2.421 7.015 7.015 0 00-.1-3.183c-.056-.207-.528-1.1-.311-1.258.185-.137 1.222.313 1.52.306a2.579 2.579 0 00.948-.235c.05-.022.1-.043.151-.067a10.214 10.214 0 011.029-.446.4.4 0 01.228-.024.437.437 0 01.164.106q.686.62 1.373 1.236a8.8 8.8 0 00-.345 1.386c-.007.037-.012.074-.018.112a8.942 8.942 0 00-.1 1.348 3.594 3.594 0 00.018.387 1.852 1.852 0 00.1.483 1.515 1.515 0 001.231.959z" data-name="Path 2901"/>
		<path fill="#eb9c6c" d="M104.717 243.359a2 2 0 01-1.252 1.293 5.49 5.49 0 01-1.289-.081c-.136-.018-.274-.04-.408-.063a4.307 4.307 0 01-1.254-.342 6.087 6.087 0 01-1.094-1.5 1.808 1.808 0 00-.061-.133c-.047-.1-.11-.206-.175-.324a2.868 2.868 0 01-.447-1.047c0-1.913.809-2.416 1.52-3.351a6.1 6.1 0 012.851-1.981 3.333 3.333 0 011.953-.193c.561.163.488.57.517 1.073a14.084 14.084 0 01-.861 6.649z" data-name="Path 2902"/>
		<path fill="#3f8dcb" d="M100.276 243.949a5.908 5.908 0 001.014-1.022 30.335 30.335 0 001.454-3.149 4.7 4.7 0 011.525-1.611 12.121 12.121 0 001.578-.983 3.384 3.384 0 001.03-2.552 7.021 7.021 0 00-.678-2.734 2.311 2.311 0 01-1.455.606c-1.469.2-2.963.066-4.438.2a5.839 5.839 0 00-3.974 1.73 6.923 6.923 0 00-1.226 4.449 10.907 10.907 0 00.154 2.368 6.43 6.43 0 001.309 2.769c1.083 1.334 2.529.911 3.707-.071z" data-name="Path 2903"/>
		<path fill="#eb9c6c" d="M103.098 239.434a1.179 1.179 0 00-.476-.466.571.571 0 00-.63.075.6.6 0 00-.149.485 1.78 1.78 0 00.153.5 6.148 6.148 0 00.863 1.6c.068.081.166.167.267.136a.264.264 0 00.134-.126c0-.14.2-.4.236-.549a2.071 2.071 0 00.059-.647c-.014 0 .02.041-.025.037-.217-.244-.241-.738-.432-1.045z" data-name="Path 2904"/>
		<path fill="#94ceed" d="M94.519 315.329a2.85 2.85 0 00.019 1.254 1.95 1.95 0 002.054 1.148 5.572 5.572 0 002.328-.959 20.566 20.566 0 003.381-2.4 3.85 3.85 0 00.957-1.225 1.7 1.7 0 00-.01-1.509 1.926 1.926 0 00-2.158-.678 13.367 13.367 0 00-2.2 1.025c-1 .465-1.589.817-2.615 1.213a2.2 2.2 0 00-1.756 2.131z" data-name="Path 2905"/>
		<path fill="#2f6681" d="M93.166 276.227a34.786 34.786 0 00.635 7.839q.6 4.1.928 8.231a14.077 14.077 0 01.038 2.547c-.142 1.368-.66 2.666-.937 4.013a23.184 23.184 0 00-.009 6.973q.229 2.307.461 4.613a21.162 21.162 0 00.736 4.325 2.155 2.155 0 002.492-.5 59.677 59.677 0 011.942-11.955c.329-1.223.7-2.439.91-3.687a42.368 42.368 0 00.374-4.273c.364-5.451 1.574-10.885 1.086-16.325a52.518 52.518 0 00-1.07-6.242.763.763 0 00-.811-.746l-3.353-.51c-.678-.1-1.572-.43-2.111.143a6.171 6.171 0 00-.808 2.547 19.976 19.976 0 00-.503 3.007z" data-name="Path 2906"/>
		<path fill="#94ceed" d="M105.634 317.549a3.094 3.094 0 00-.029 1.326 2.109 2.109 0 002.159 1.334 6.164 6.164 0 002.562-.9c1.26-.668 2.522-1.337 3.72-2.111a4.48 4.48 0 001.754-1.723 1.742 1.742 0 00-.508-2.211c-.781-.45-1.742.009-2.584.331a16.181 16.181 0 01-2.819.707c-.966.183-2.623.167-3.466.656-.732.421-.653 1.783-.789 2.591z" data-name="Path 2907"/>
		<path fill="#3f8dcb" d="M99.681 281.08c.551.825 1.215 1.573 1.736 2.418a17.112 17.112 0 011.553 3.746c1.146 3.529 2.3 7.124 2.362 10.834.042 2.6-.457 5.176-.524 7.774a46.9 46.9 0 00.25 5.177l.453 5.3a7.269 7.269 0 004.18-.871 57.651 57.651 0 01.974-13.071c.364-2.083.794-4.159.982-6.265a54.857 54.857 0 00-.611-11.6c-.594-4.778-1.2-9.607-2.867-14.124.113.306-8.022 1.092-8.723 1.162-2.6.26-1.887 3.389-1.5 5.269a12.025 12.025 0 001.735 4.251z" data-name="Path 2908"/>
		<path fill="#244e66" d="M97.821 292.114a18.14 18.14 0 01.68 2.65 14.2 14.2 0 01-.039 3.151l-.309 3.572c-.267 3.079-.5 6.166-1 9.216-.2 1.223.219 2.21.349 3.584a98.752 98.752 0 002.485-11.522 105.211 105.211 0 001.32-13.656l.21-3.958a3.574 3.574 0 00-.269-1.963 4.08 4.08 0 00-1.516-1.276c-1.462-.916-2.4-2.234-3.682-3.3-.457.609-.036 2.195.024 2.926.1 1.191.209 2.382.355 3.568a43.357 43.357 0 001.392 7.008z" data-name="Path 2909"/>
		<path fill="#676767" d="M108.625 262.382a21.548 21.548 0 00.209-2.443 15.4 15.4 0 00-.868-4.33l-1.726-5.706a10.3 10.3 0 00-.777-2.035 6.134 6.134 0 01-2.788-.178l.133.091a6.582 6.582 0 01-4.518 1.52v-.009c-.179-.086-.479-.059-.7-.157a4.858 4.858 0 01-.585-.317c-.28-.177-.607-.565-.46-.917a2.446 2.446 0 01-1.535.537 2.269 2.269 0 00-1.369.369 3.6 3.6 0 00-1.091 2.145 2.442 2.442 0 00-.037.112 5.76 5.76 0 00-.074 2.148 30.042 30.042 0 00.688 4.469c.23.917.533 1.816.7 2.747.682 3.747-.854 7.64-.135 11.381.455-.034.832.321 1.19.6a7.274 7.274 0 004.368 1.337c1.55.037 3.093-.194 4.642-.233 1.764-.044 3.735.1 5.066-1.064a43.943 43.943 0 01-.333-10.067z" data-name="Path 2910"/>
		<path fill="#4f4e4e" d="M105.237 249.163a1.163 1.163 0 00-1.465.457 2.974 2.974 0 00-.379 1.624c-.071 3.387.935 6.7 1.213 10.079a6.424 6.424 0 01-.095 2.135c-.173.672-.529 1.281-.751 1.938a8.152 8.152 0 00-.089 4.039 38.343 38.343 0 01.717 4.018 16.874 16.874 0 004.909-1.014.446.446 0 00.255-.171.465.465 0 00.011-.315 36.762 36.762 0 01-.391-9.7 17.271 17.271 0 00.057-2.47 15.808 15.808 0 00-.39-2.24 11.113 11.113 0 00-2.065-5.037 16 16 0 01-1.355-1.489 1.867 1.867 0 01-.236-1.9l.457.689" data-name="Path 2911"/>
		<path fill="#b0b0b0" d="M125.023 248.36c-.08.309-.1.641-.2.947a1.994 1.994 0 01-.164.167 4.105 4.105 0 01-1.438.731 46.941 46.941 0 01-9.3 2.226c0-.293 0-.629.174-.781.287-.247.877-.176 1.227-.273a14.573 14.573 0 012.46-.6 13.739 13.739 0 002.289-.413 20.565 20.565 0 002.541-.692 18.62 18.62 0 002.411-1.312z" data-name="Path 2912"/>
		<path fill="#b0b0b0" d="M101.864 246.289c.079.082.033.052-.022 0z" data-name="Path 2913"/>
		<path fill="#94ceed" d="M113.004 246.589l7.231-1.276a5.034 5.034 0 001.908-.609c2.226-1.452 1.138-5.4 3.2-7.069l3.5 1.389c-.248 3.032-.538 6.194-2.142 8.779a13 13 0 01-7.703 5.286 38.593 38.593 0 01-9.485 1.005c.985 11.1 1.97 28.2 2.955 39.3a56.8 56.8 0 01-15.748.726 5.992 5.992 0 01-2.676-.706c-1.843-1.163-1.976-3.753-1.889-5.929.332-8.29.889-22.62-.024-30.865a21.375 21.375 0 01-.226-4.48 5.959 5.959 0 011.854-3.974 3.78 3.78 0 013.24-.83 11.607 11.607 0 002.661.674 48.106 48.106 0 008.632-.635c1.579-.239 3.146-.515 4.712-.786z" data-name="Path 2914"/>
	</g>
	<g data-name="Group 5796">
		<path fill="#94ceed" d="M231.845 44.025a16.349 16.349 0 00-3.519 1.247 9.259 9.259 0 00-3.383 2.133l2.53 1.2a4.924 4.924 0 001.364.492 4.34 4.34 0 001.545-.119 14 14 0 005.01-2.109 10.612 10.612 0 002.034-1.821c.09-.105.394-.374.392-.516 0-.2-.477-.215-.615-.242-.539-.1-1.08-.2-1.624-.277a11.58 11.58 0 00-3.734.012z" data-name="Path 2915"/>
		<path fill="#d9803d" d="M231.17 44.65a3.464 3.464 0 01-1.416.784l-1.753.635a23.733 23.733 0 003.737 8.269 21.522 21.522 0 004.129-4.286 9.768 9.768 0 002.177-5.158c-.465.209-1.2-.4-1.518-.8a2.72 2.72 0 01-.482-1.43 16.183 16.183 0 01.374-4.531 5.7 5.7 0 01-2.918 1.745c-.866.206-2.453.463-2.114 1.717.278 1.022.621 2.152-.216 3.055z" data-name="Path 2916"/>
		<path fill="#eb9c6c" d="M229.178 34.17a5.848 5.848 0 00-.614 4.413 12.567 12.567 0 001.936 4.116 2.537 2.537 0 001.615 1.321 2.293 2.293 0 001.716-.764c2.921-2.685 3.375-7 1.922-9.268a3.956 3.956 0 00-6.575.182z" data-name="Path 2917"/>
		<path fill="#1e4058" d="M228.15 34.461a2.981 2.981 0 012.8-.89 4 4 0 012.46 1.718 6.13 6.13 0 01.963 2.888c.043.449-5.144-.113-5.6-.219-.838-.2-1.58-.166-1.471-1.14a4.225 4.225 0 01.848-2.357z" data-name="Path 2918"/>
		<path fill="#1e4058" d="M229.229 32.469a5.431 5.431 0 012.608-1.664 5.162 5.162 0 015.622 1.654 6.224 6.224 0 01.948 3.667 12.125 12.125 0 01-1.173 5.1c-.148.312-.414.669-.749.589-.26-.061-.383-.353-.457-.609a9.5 9.5 0 01-.332-1.808 2.441 2.441 0 00-.456-1.558 5.635 5.635 0 00-1.127-.636c-.6-.376-.9-1.07-1.385-1.588a3.052 3.052 0 00-2.141-.962 3.271 3.271 0 00-1.357.294c-.311.13-.668.406-.922.007-.397-.624.54-2.031.921-2.486z" data-name="Path 2919"/>
		<path fill="#eb9c6c" d="M235.003 39.355c-.128-1.2.855-2.276 1.38-1.948.233.146.239.479.2.752a7.085 7.085 0 01-1.064 2.876l-.509-1.473" data-name="Path 2920"/>
		<path fill="#eb9c6c" d="M225.358 50.074a4.455 4.455 0 00-.414 1.047 40.081 40.081 0 00-1.977 10.8 3.172 3.172 0 00.14 1.173 1.049 1.049 0 001.877.339 3.324 3.324 0 00.551-1.037 35.666 35.666 0 002.3-9.84 4 4 0 00-.313-2.32 1.688 1.688 0 00-1.125-.865 1.224 1.224 0 00-1.039.703z" data-name="Path 2921"/>
		<path fill="#e8f5fa" d="M240.306 55.279a19.638 19.638 0 005.571-.241q.035-1.2-.027-2.4a8.079 8.079 0 00-.091-1.3 28.124 28.124 0 00-.049-.491l-.039.011a8.2 8.2 0 00-1.521-3.307 14.949 14.949 0 00-7.185-3.082 41.813 41.813 0 01-4.874 7.238 22.073 22.073 0 00-1.088-2.566c-.318-.9-.493-1.84-.8-2.74a3.325 3.325 0 01-.157-1.1 21.312 21.312 0 00-3.556 1.342 6.052 6.052 0 00-2.226 3.082c-.017.048-.03.1-.046.144a28.37 28.37 0 00-.879 3.967.985.985 0 00.154.737.329.329 0 00.027.026 1.453 1.453 0 001.039.4 19.5 19.5 0 011.991.212l.033-.157a.459.459 0 00.077-.061q.184.579.338 1.161a1.866 1.866 0 00.222.487 16.816 16.816 0 01-.418 9.634c4.339.689 13.139.472 13.139.472l.63-.251a3.536 3.536 0 00-.538-1.16 3.646 3.646 0 01-.665-2.587 49.25 49.25 0 01.84-8.548 10.058 10.058 0 00.098 1.078z" data-name="Path 2922"/>
		<path fill="#7dbcd9" d="M226.174 50.177c-.31 1.332-.611 2.668-.792 4.024a1.081 1.081 0 00.038.611c.146.309 1.317.419 1.317.419s-.232-1.05-.29-1.423a22.3 22.3 0 01-.273-3.631z" data-name="Path 2923"/>
		<path fill="#7dbcd9" d="M229.728 56.036a51.648 51.648 0 007.4-.091 4.74 4.74 0 01-2.874 1.166c-.961.047-1.92-.2-2.879-.133a14.748 14.748 0 01-2.364.258 2.776 2.776 0 01-1.86-.976c-.314-.377-.8-1.227-.584-1.725.717 1.109 1.658 1.376 3.161 1.501z" data-name="Path 2924"/>
		<path fill="#7dbcd9" d="M240.324 55.116l-.525-5.809a29.641 29.641 0 01-.564 7.108 41.875 41.875 0 00-.928 4.87 7.248 7.248 0 001.042 4.749 1.57 1.57 0 00.522.516.673.673 0 00.7-.012 4.466 4.466 0 01-.924-3.351c.037-2.915.317-5.822.6-8.724" data-name="Path 2925"/>
		<path fill="#3f8dcb" d="M239.462 62.473c1.617 4.069 3.069 8.284 3.264 12.658.209 4.684-1.03 9.3-2.259 13.823a1.932 1.932 0 01-1.643 1.722 9.217 9.217 0 01-3.884.247c-.36-3.107-1.676-6.008-2.658-8.977a43.276 43.276 0 01-1.77-19.482c-.007.045-2.536-.114-2.766-.113a47.151 47.151 0 005.8.069z" data-name="Path 2926"/>
		<path fill="#2f6681" d="M227.257 90.751a33.465 33.465 0 005.576.392 14.051 14.051 0 001.084-6.692 56.47 56.47 0 00-.989-6.772 108.71 108.71 0 01-1.587-14.993 22.544 22.544 0 00-3.5-.326c-.349.172-.478.81-.605 1.137a29.927 29.927 0 00-1.856 8.842c-.41 6.18.732 12.304 1.877 18.412z" data-name="Path 2927"/>
		<path fill="#94ceed" d="M242.509 117.423a2.981 2.981 0 00-.649-1.356 12.483 12.483 0 01-2.149-6.56 6.53 6.53 0 01-1.992-.055 11.765 11.765 0 01-.365 2.524 6.417 6.417 0 00-.322 3.047 4.233 4.233 0 01.318.445 6.762 6.762 0 011.632 2.85 3.557 3.557 0 00.481.356 2.369 2.369 0 001.949.287 1.586 1.586 0 001.097-1.538z" data-name="Path 2928"/>
		<path fill="#94ceed" d="M227.92 113.289a17.909 17.909 0 00-2.336 2.522c-.229.4-.335.992.049 1.243a1.036 1.036 0 00.829.019 22.863 22.863 0 004.773-1.871 1.555 1.555 0 00.886-.861 1.586 1.586 0 00-.012-.636l-.673-4.36c-.037-.24-1.452-.157-1.629-.121-.608.124-.419.55-.506 1.091a6.013 6.013 0 01-1.381 2.974z" data-name="Path 2929"/>
		<path fill="#3f8dcb" d="M235.306 93.478l.516 3.662c.9 6.4 1.485 9.92 1.38 13.633.155.032.309.067.462.1a14.427 14.427 0 011.739.117c.344 0 .687 0 1.03.007-.4-5.617 1.749-10.961 1.17-16.458a33.359 33.359 0 00-1.2-5.463 3.469 3.469 0 00-.706-1.513 2.231 2.231 0 00-1.42-.624c-1.555-.14-3.527 1.307-3.457 2.972.044 1.185.322 2.396.486 3.567z" data-name="Path 2930"/>
		<path fill="#2f6681" d="M228.926 110.346l2.894.273c.449-4.429 2.15-8.755 1.808-13.193-.129-1.672-.547-3.307-.763-4.969a9.408 9.408 0 01.449-4.946c-.118.273-2.561.077-2.888.06q-.746-.037-1.489-.133c-.329-.042-1.01-.3-1.319-.17-.565.235-.373 1.888-.37 2.4a28.232 28.232 0 00.191 2.978 137.063 137.063 0 011.487 17.7z" data-name="Path 2931"/>
		<path fill="#eb9c6c" d="M218.898 61.845c-1.96.765-3.877 1.861-5.981 1.883a17.919 17.919 0 00-3.3-.061l2.082.8a5.738 5.738 0 01-3.347 1.1c-.354 0-.79.014-.948.331a3.914 3.914 0 003.265 1.119 10.98 10.98 0 002.65-.993c2.986-1.269 6.35-1.177 9.534-1.8a4.949 4.949 0 001.649-.556 1.975 1.975 0 00.979-1.377c.284-2.335-3.667-1.34-4.833-1.028a16.667 16.667 0 00-1.75.582z" data-name="Path 2932"/>
		<path fill="#244e66" d="M231.49 69.48a20.963 20.963 0 00.382 3.81c.149 1.115.184 2.226.328 3.331.382 2.941 1.493 5.818 1.755 8.774a5.9 5.9 0 01-.4 3.233 11.643 11.643 0 00-.75-3.755c-.364-1.233-.816-2.411-1.111-3.666a27.316 27.316 0 01-.856-7.809c.074-1.319.607-2.637.652-3.918z" data-name="Path 2933"/>
		<path fill="#244e66" d="M232.449 91.367c-1.256.866-.113 3.285.149 4.4a22.953 22.953 0 01.5 4.6 8.676 8.676 0 01-.076 2.4 13.016 13.016 0 01.484-1.943 8.231 8.231 0 00.18-2.153 33.578 33.578 0 00-.823-5.057 21.127 21.127 0 00-.414-2.247z" data-name="Path 2934"/>
		<path fill="#3a82ba" d="M240.373 88.998c-1.706.694.207 4.418.432 5.592a20.019 20.019 0 01.223 5.49c-.091.962-.1 1.918-.168 2.9a24.818 24.818 0 00.345-11.5 6.807 6.807 0 00-.832-2.482z" data-name="Path 2935"/>
		<path fill="none" stroke="#6bb2de" stroke-miterlimit="10" stroke-width=".131" d="M230.298 62.482c-.278.938-1.448 7.272.846 6.671" data-name="Path 2936"/>
		<path fill="none" stroke="#6bb2de" stroke-miterlimit="10" stroke-width=".131" d="M235.127 62.696a4.914 4.914 0 00.041.854 5.686 5.686 0 00.521 1.6 7.7 7.7 0 001.928 2.69c.8.68 2.221 1.955 3.329 1.447" data-name="Path 2937"/>
		<path fill="none" stroke="#6bb2de" stroke-miterlimit="10" stroke-width=".131" d="M229.357 62.796a12.656 12.656 0 01-1.523 4.448c-.345.684-.844 1.653-1.652 1.749" data-name="Path 2938"/>
		<path fill="none" stroke="#6bb2de" stroke-miterlimit="10" stroke-width=".131" d="M231.357 63.217c-.357-.539-1.1.506-.538.828.59.335 1.11-.526.545-.95" data-name="Path 2939"/>
		<path fill="#1e4058" d="M235.245 30.472a2.509 2.509 0 011.384-.8 4.868 4.868 0 014.552 1.5 7.314 7.314 0 011.815 4.577 15.125 15.125 0 01-.677 4.954 29.706 29.706 0 00-.949 3.732 6.22 6.22 0 00.486 3.759 3.648 3.648 0 01-2.079-2.5 9.845 9.845 0 01-.174-3.353 51.791 51.791 0 00.256-5.635 7.427 7.427 0 00-.455-2.521 3.345 3.345 0 00-1.7-1.851 2.185 2.185 0 00-2.389.394s-.368-.887-.389-1.025a1.557 1.557 0 01.319-1.231z" data-name="Path 2940"/>
		<path fill="#94ceed" d="M227.039 60.502a9.591 9.591 0 01-1.025 2.516 4.684 4.684 0 01-1.166 1.306 3.19 3.19 0 01-.3.2 7.974 7.974 0 01-3.5.942c-2.145.188-4.3.2-6.462.2a9.636 9.636 0 01-.555-3.437 28.009 28.009 0 005.912-1.105 3.509 3.509 0 001.769-.991 3.74 3.74 0 00.593-1.779c.278-1.9.567-3.794.845-5.691a12.141 12.141 0 011.326-4.632 4.31 4.31 0 012.806-2.124c1.438-.108.649 1.79.677 2.7a40.678 40.678 0 01-.92 11.895z" data-name="Path 2941"/>
		<g data-name="Group 5795">
			<path fill="#3c85bb" d="M205.113 67.817l-4.775-9.128c-.244-.466.051-.824.659-.8l16.234.68a1.978 1.978 0 011.542.891l4.774 9.131c.244.467-.05.825-.658.8l-16.234-.679a1.975 1.975 0 01-1.542-.895z" data-name="Path 2942"/>
			<path fill="#c2e8f6" d="M201.979 58.789l15.193.636a1.123 1.123 0 01.875.506l4.233 8.1c.139.265-.028.468-.373.453l-15.194-.636a1.122 1.122 0 01-.875-.505l-4.233-8.1c-.138-.263.029-.466.374-.454z" data-name="Path 2943"/>
		</g>
		<path fill="#94ceed" d="M232.635 53.697a13.29 13.29 0 00-.318 4.951q.928 14.9 2.226 29.782a2.912 2.912 0 00.476 1.621 2.8 2.8 0 002.114.741 29.48 29.48 0 007.253-.574c.211-9.566.414-19.227-1.51-28.6-.664-3.239-1.582-6.436-1.923-9.725-.183-1.759-.19-3.652-1.048-5.249-.54-1.006-1.56-2.362-2.58-1.206-.938 1.062-1.331 2.765-2.134 3.955a18.016 18.016 0 00-2.556 4.304z" data-name="Path 2944"/>
		<path fill="#eb9c6c" d="M240.392 47.846a5.748 5.748 0 00-.094 1.443 51.588 51.588 0 001.876 14.017 4.075 4.075 0 00.638 1.38 1.352 1.352 0 002.434-.331 4.236 4.236 0 00.262-1.49 45.905 45.905 0 00-1.1-12.969 5.154 5.154 0 00-1.306-2.718 2.179 2.179 0 00-1.724-.612c-.554.123-.863.756-.986 1.28z" data-name="Path 2945"/>
		<path fill="#7dbcd9" d="M239.604 49.537a20.932 20.932 0 00.24 9.042 25.107 25.107 0 00-8.572-3.827c.131 1.336.736 2.758-.4 3.467 1.24 1.01 3.278 3.475 4.854 4.4.959.562 2.058 1.223 3.037 1.749a11.869 11.869 0 012.278 1.247 5.066 5.066 0 002.482 1.285c.634-.962.284-2.237-.051-3.339a54.075 54.075 0 01-2.2-11.944 5.969 5.969 0 00-1.029-3.642c.368.23-.164.46-.31.663a2.313 2.313 0 00-.329.899z" data-name="Path 2946"/>
		<path fill="#94ceed" d="M230.503 55.527c-.055 4.124-.74 8.209-1.19 12.308a135.838 135.838 0 00-.668 18.1 5.314 5.314 0 01-.6 3.22c-.637.911-2.2 1.225-2.817.3a103.228 103.228 0 01-.387-17.853c.359-3.806 1.141-7.565 1.4-11.379.212-3.1.09-6.236.714-9.291.175-.852.6-3.6 1.539-3.935 1.272-.453 1.588 2.16 1.673 2.821a40.373 40.373 0 01.336 5.709z" data-name="Path 2947"/>
		<path fill="#7dbcd9" d="M227.235 50.397l-.329 3.657c-.221 2.472-.452 4.942-.673 7.414a9.068 9.068 0 01-.219 1.55 4.684 4.684 0 01-1.166 1.306 3.19 3.19 0 01-.3.2 69.92 69.92 0 001.4-8.725c.135-1.314.231-2.631.475-3.929a5.892 5.892 0 01.417-1.7c.31-.559.444-.281.395.227z" data-name="Path 2948"/>
		<path fill="#eb9c6c" d="M236.914 62.289c-2.069-1.638-3.965-3.656-6.479-4.455a22.432 22.432 0 01-3.974-1.136l2.79-.2a7.2 7.2 0 00-3.608-2.547c-.424-.131-.943-.307-1.016-.744a4.907 4.907 0 014.326-.143 13.786 13.786 0 012.813 2.163c3.113 2.618 7.18 3.743 10.769 5.658a6.187 6.187 0 011.772 1.271 2.469 2.469 0 01.669 2.011c-.517 2.9-4.889.26-6.172-.542a21.15 21.15 0 01-1.89-1.336z" data-name="Path 2949"/>
		<path fill="#94ceed" d="M246.331 55.023a43.441 43.441 0 01-.2 8.932 3.205 3.205 0 01-1.133 2.46c-1.035.639-2.358-.024-3.377-.689q-5.012-3.276-9.737-6.964l1.014-3.405 8.025 4.445c-.344-.19-.514-2.135-.589-2.54q-.255-1.377-.38-2.774a26.586 26.586 0 01.027-5.5c.6-4.991 3.62-2.045 4.882.193a14.122 14.122 0 011.468 5.842z" data-name="Path 2950"/>
		<path fill="#94ceed" d="M236.752 44.174a22.122 22.122 0 014.623 1.1 7.427 7.427 0 013.68 2.89 8.833 8.833 0 011.03 3.07 22.267 22.267 0 01.291 5.321 1.726 1.726 0 01-.389 1.17 1.565 1.565 0 01-1.037.332 8.156 8.156 0 01-6.159-2.936 17.222 17.222 0 01-2.683-4.248c-.282-.6-.886-1.414-.519-2.046a8.594 8.594 0 001.112-2.056c.072-.256.443-2.533.051-2.597z" data-name="Path 2951"/>
		<path fill="#94ceed" d="M230.884 44.65a.2.2 0 00.134-.1" data-name="Path 2952"/>
		<path fill="#94ceed" d="M230.123 47.54a17.668 17.668 0 00.048 3.324l-3.263-2.7a.936.936 0 01-.366-.469.849.849 0 01.187-.631 4.354 4.354 0 011.93-1.61 12.841 12.841 0 002.48-.945 7.522 7.522 0 00-1.016 3.031z" data-name="Path 2953"/>
	</g>
</svg>
