<?xml version="1.0" standalone="no"?>
<!DOCTYPE svg PUBLIC "-//W3C//DTD SVG 20010904//EN"
 "http://www.w3.org/TR/2001/REC-SVG-20010904/DTD/svg10.dtd">
<svg version="1.0" xmlns="http://www.w3.org/2000/svg"
 width="700.000000pt" height="700.000000pt" viewBox="0 0 700.000000 700.000000"
 preserveAspectRatio="xMidYMid meet">
<metadata>
Created by potrace 1.11, written by Peter Selinger 2001-2013
</metadata>
<g transform="translate(0.000000,700.000000) scale(0.100000,-0.100000)"
fill="#000000" stroke="none">
<path d="M1936 6034 c-237 -43 -504 -175 -664 -328 -500 -478 -462 -1519 108
-2986 38 -96 92 -238 120 -315 217 -584 588 -1054 1105 -1402 108 -72 109 -67
8 59 -660 827 -1125 1851 -1318 2898 -56 303 -68 442 -62 700 7 308 42 469
143 658 89 168 199 279 359 358 168 83 369 112 552 80 194 -34 253 -70 510
-318 305 -294 441 -410 603 -513 236 -151 489 -217 711 -186 101 15 137 31 69
31 -105 0 -297 78 -446 181 -131 91 -220 176 -417 397 -202 225 -372 396 -468
470 -152 115 -311 190 -464 216 -112 20 -340 20 -449 0z"/>
</g>
</svg>
